<?xml version="1.0" encoding="utf-8"?>
<!-- Generator: Adobe Illustrator 19.0.0, SVG Export Plug-In . SVG Version: 6.00 Build 0)  -->
<svg version="1.1" id="Capa_1" xmlns="http://www.w3.org/2000/svg" xmlns:xlink="http://www.w3.org/1999/xlink" x="0px" y="0px"
	 viewBox="-198 318.7 198.7 205.2" style="enable-background:new -198 318.7 198.7 205.2;" xml:space="preserve">
<style type="text/css">
	.st0{opacity:0.15;}
	.st1{fill:#99C66B;}
	.st2{opacity:0.45;fill:url(#XMLID_6_);}
	.st3{fill:#FFFFFF;}
	.st4{fill:#0F4747;}
</style>
<g id="Nuevo_símbolo">
	<circle id="XMLID_5_" class="st0" cx="-98.7" cy="424.6" r="99.3"/>
	<circle id="XMLID_4_" class="st1" cx="-98.7" cy="418" r="99.3"/>
	<g id="XMLID_2_">
		
			<linearGradient id="XMLID_6_" gradientUnits="userSpaceOnUse" x1="-395.1385" y1="-295.6978" x2="-215.3646" y2="-295.6978" gradientTransform="matrix(4.489700e-011 1 -1 4.489700e-011 -394.3576 723.2827)">
			<stop  offset="0" style="stop-color:#FFFFFF"/>
			<stop  offset="0.4877" style="stop-color:#FFFFFF;stop-opacity:0"/>
		</linearGradient>
		<circle id="XMLID_3_" class="st2" cx="-98.7" cy="418" r="89.9"/>
	</g>
</g>
<path id="XMLID_2376_" class="st3" d="M-87.6,408.1l-15,8c0,0-4.6-0.4-5.7,0.1c-1.1,0.5-10.5,4.2-10.7,5.5c-0.1,1.3-0.8,5.3-0.8,5.3
	l-22.3-10.8c0,0,18.6-11.2,34.6-11.7c16.1-0.5,16.6,1.2,16.6,1.2L-87.6,408.1z"/>
<g id="XMLID_2357_">
	<g id="XMLID_2372_">
		<path id="XMLID_2373_" class="st4" d="M-139.9,475.3c-13.4,0-21.4-5.4-24.5-16.4c-0.8-2.8-1.2-5.9-1.5-9.8
			c-1-14.4,19.2-35.8,40.7-43.3c21.3-7.4,35.3-1.1,35.8-0.8c0.1,0,0.1,0.1,0.2,0.1c0.3,0.2,7.3,4.5,14,11.9
			c7.4,8.1,4.3,19.7-9.3,35.5c-12.5,14.4-30.5,22.1-53.7,22.9C-138.7,475.3-139.3,475.3-139.9,475.3z M-105,405.7
			c-5.2,0-11.6,0.8-19,3.4c-19.5,6.8-39.2,27.2-38.3,39.8c0.3,3.7,0.7,6.6,1.4,9.1c1.8,6.7,6.1,14.3,22.7,13.8
			c22.2-0.7,39.4-8,51.2-21.7c12.2-14.2,15.3-24.3,9.3-30.8c-5.9-6.5-12.3-10.7-13.2-11.2C-91.6,407.8-96.7,405.7-105,405.7z"/>
	</g>
	<g id="XMLID_2370_">
		<path id="XMLID_2371_" class="st4" d="M-142.2,465.3c-11,0-18.4-2.2-21.1-6.5c-0.5-0.8-0.3-1.9,0.5-2.4c0.8-0.5,1.9-0.3,2.4,0.5
			c2.4,3.7,11.4,5.5,24.1,4.6c13.1-0.9,44.8-16.1,51.4-24.8c6.4-8.4,7.8-16.8,7.8-16.9c0.1-1,1-1.6,2-1.5c1,0.1,1.6,1,1.5,2
			c-0.1,0.4-1.5,9.4-8.5,18.5c-7.2,9.3-40,25.2-54,26.1C-138.2,465.2-140.3,465.3-142.2,465.3z"/>
	</g>
	<g id="XMLID_2368_">
		<path id="XMLID_2369_" class="st4" d="M-91.4,446c-0.5,0-1-0.2-1.3-0.6c0,0-1.6-1.6-9.5-6.2c-8.5-4.9-39.3-20.2-39.6-20.4
			c-0.9-0.4-1.2-1.5-0.8-2.3c0.4-0.9,1.5-1.2,2.3-0.8c1.3,0.6,31.3,15.5,39.8,20.5c8.5,4.9,10.2,6.7,10.4,7c0.6,0.7,0.5,1.8-0.2,2.5
			C-90.6,445.9-91,446-91.4,446z"/>
	</g>
	<g id="XMLID_2364_">
		<path id="XMLID_2365_" class="st4" d="M-117.1,429.8c-1.4,0-2.6-0.6-3.4-1.8c-1.3-2-1.2-4.9,0.4-7c2.3-3,11.5-6.3,13.3-7
			c0.3-0.1,0.6-0.1,0.9-0.1c1.4,0.2,3.3,1.1,4.3,2.8c0.5,0.8,0.9,2.2,0.2,4.1c-1.6,4.3-12.7,8.3-14.3,8.8
			C-116.2,429.7-116.6,429.8-117.1,429.8z M-106.1,417.4c-4.1,1.5-10,4.1-11.2,5.6c-0.8,1-0.8,2.3-0.3,2.9c0.1,0.2,0.3,0.4,0.9,0.2
			c3.9-1.1,11.3-4.8,12-6.7c0.2-0.6,0.1-0.9,0-1.1C-104.9,418-105.5,417.6-106.1,417.4z"/>
	</g>
	<g id="XMLID_2362_">
		<path id="XMLID_2363_" class="st4" d="M-102.8,417.8c-0.6,0-1.2-0.3-1.5-0.9c-0.5-0.9-0.1-1.9,0.7-2.4c14.2-7.7,14.8-7.7,15.4-7.7
			c1,0,1.8,0.8,1.8,1.8c0,0.8-0.6,1.5-1.4,1.7c-1.2,0.5-8.9,4.5-14.1,7.3C-102.2,417.8-102.5,417.8-102.8,417.8z"/>
	</g>
	<g id="XMLID_2360_">
		<path id="XMLID_2361_" class="st4" d="M-88.5,407.4c-0.6,0-1.2-0.3-1.5-0.8c-0.5-0.8-0.3-1.9,0.6-2.4c0.4-0.2,8.9-5.5,16.8-5.5
			c0.8,0,1.7,0,2.5,0c7.1,0.1,15.9,0.2,19.7-4.8c4.1-5.5,3.9-8.7-1.5-17.8c-3.8-6.5-5-11.6-3.6-15.4c0.9-2.3,2.8-4,5.4-4.9
			c6.3-2.1,14.6-2.8,14.9-2.8c1-0.1,1.8,0.6,1.9,1.6s-0.6,1.8-1.6,1.9c-0.1,0-8.3,0.7-14.1,2.6c-1.7,0.6-2.8,1.5-3.3,2.8
			c-1,2.6,0.2,7,3.3,12.4c5.4,9.3,6.8,14.3,1.3,21.7c-4.8,6.4-15,6.3-22.5,6.2c-0.9,0-1.7,0-2.5,0c-6.9,0-14.9,4.9-15,5
			C-87.8,407.3-88.1,407.4-88.5,407.4z"/>
	</g>
	<g id="XMLID_2358_">
		<path id="XMLID_2359_" class="st4" d="M-83.9,410.8c-0.6,0-1.2-0.3-1.5-0.8c-0.5-0.8-0.2-1.9,0.6-2.4c0.3-0.2,7.3-4.3,15.9-4.3
			c1.2,0,2.5,0,3.8,0.1c7.3,0.2,14.8,0.4,18.4-5.2c0.5-0.8,1-1.5,1.4-2.2c3.9-6,6.1-9.3,3.1-15.2c-1.3-2.6-2.8-4.6-4.2-6.3
			c-2.5-3.3-4.6-6.1-2.6-9.8c2.7-5.2,8.2-7.1,12-7.1c2.6,0,6.8-2,8.3-2.7c0.8-0.5,1.9-0.1,2.4,0.7c0.5,0.8,0.1,1.9-0.7,2.4
			c-0.6,0.3-6,3.2-9.9,3.2c-2.8,0-6.9,1.4-8.9,5.2c-0.9,1.6-0.1,2.8,2.3,6.1c1.3,1.8,3,4,4.5,6.8c3.9,7.6,0.8,12.5-3.2,18.7
			c-0.4,0.7-0.9,1.4-1.4,2.1c-4.6,7.2-13.9,7-21.4,6.8c-1.3,0-2.5-0.1-3.7-0.1c-7.6,0-14,3.8-14.1,3.8
			C-83.3,410.7-83.6,410.8-83.9,410.8z"/>
	</g>
</g>
</svg>
