<?xml version="1.0" encoding="utf-8"?>
<!-- Generator: Adobe Illustrator 19.0.0, SVG Export Plug-In . SVG Version: 6.00 Build 0)  -->
<svg version="1.1" id="Capa_1" xmlns="http://www.w3.org/2000/svg" xmlns:xlink="http://www.w3.org/1999/xlink" x="0px" y="0px"
	 viewBox="-198 318.7 198.7 205.2" style="enable-background:new -198 318.7 198.7 205.2;" xml:space="preserve">
<style type="text/css">
	.st0{opacity:0.15;}
	.st1{fill:#99C66B;}
	.st2{opacity:0.45;fill:url(#XMLID_6_);}
	.st3{fill:#FFFFFF;}
	.st4{fill:#0F4747;}
</style>
<g id="Nuevo_símbolo">
	<g id="Nuevo_símbolo_1_">
		<g id="Nuevo_símbolo_2_">
			<g id="Nuevo_símbolo_3_">
				<g id="Nuevo_símbolo_4_">
					<g id="Nuevo_símbolo_5_">
						<g id="Nuevo_símbolo_6_">
							<circle id="XMLID_5_" class="st0" cx="-98.7" cy="424.6" r="99.3"/>
							<circle id="XMLID_4_" class="st1" cx="-98.7" cy="418" r="99.3"/>
							<g id="XMLID_2_">
								
									<linearGradient id="XMLID_6_" gradientUnits="userSpaceOnUse" x1="-395.1385" y1="-295.6978" x2="-215.3646" y2="-295.6978" gradientTransform="matrix(4.489700e-011 1 -1 4.489700e-011 -394.3576 723.2827)">
									<stop  offset="0" style="stop-color:#FFFFFF"/>
									<stop  offset="0.4877" style="stop-color:#FFFFFF;stop-opacity:0"/>
								</linearGradient>
								<circle id="XMLID_3_" class="st2" cx="-98.7" cy="418" r="89.9"/>
							</g>
						</g>
						<path id="XMLID_2544_" class="st3" d="M-90.6,366.5c0,0-14.8-12.4-20.4-14.7c-5.7-2.3-10.3-1.3-14.2,0.8
							c-3.9,2.1-19.6,7.5-19.6,7.5l-2.8,0.3c0,0,17,13.7,20.1,14.7c3.1,1,7,3.1,12.4,1.3c5.4-1.8,22.4-7,22.4-7L-90.6,366.5z"/>
						<g id="XMLID_2531_">
							<g id="XMLID_2540_">
								<path id="XMLID_2541_" class="st4" d="M-108.2,486.6c-1.9,0-3.8-0.2-5.6-0.5c-15.5-3-16.7-12.5-16.5-16.5
									c0.3-5.3,0.6-11.4-7.6-35.4c-8.3-24.4-0.4-34.5,3.4-36.3c2.9-1.4,23.7-8.2,52.4-6.4c29.1,1.9,30.9,19.9,31,20.7c0,0,0,0,0,0
									l0.4,5c0,0.5-0.1,1-0.5,1.3s-0.8,0.6-1.3,0.6c-0.1,0-6.1,0-12.8,1.9c-3.8,1-3.6,5.8-3,13.6c0.2,2.5,0.4,5,0.4,7.6
									c0,5.1,3.2,5.7,9.9,6c2.6,0.1,5,0.2,6.8,1c1.2,0.5,2,1.7,2.5,3.4c2.1,7.1-1.9,24.4-5.4,30c-5.2,8.4-31.5,0.6-31.7,0.5
									c-0.9-0.3-4,0.5-6.7,1.2C-96.9,485.2-102.4,486.6-108.2,486.6z M-92.1,394.7c-22.7,0-38.4,5.1-40.9,6.3
									c-2.8,1.4-9,10.2-1.6,32.1c7.8,22.9,8.1,29.9,7.8,36.7c-0.2,3.8,1.3,10.5,13.7,12.9c6.8,1.3,14.3-0.6,19.8-2
									c4.1-1,6.8-1.7,8.7-1.1c6.8,2.3,24.9,5.4,27.7,1c3.3-5.3,6.7-21.6,5-27.2c-0.2-0.8-0.5-1.1-0.7-1.2
									c-1.2-0.5-3.2-0.6-5.4-0.7c-5.3-0.2-13.2-0.4-13.3-9.4c0-2.5-0.2-5-0.4-7.4c-0.6-7.9-1.2-15.4,5.5-17.3
									c4.9-1.4,9.4-1.8,11.9-1.9l-0.3-3.1c-0.1-0.7-1.8-15.8-27.7-17.5C-85.7,394.8-89,394.7-92.1,394.7z"/>
							</g>
							<g id="XMLID_2536_">
								<path id="XMLID_2537_" class="st4" d="M-120.9,379c-0.5,0-1,0-1.4-0.1c-6.8-1.2-24.3-15.2-26.3-16.8
									c-0.5-0.4-0.7-1.1-0.6-1.7s0.6-1.2,1.2-1.3c0.2,0,17.1-4.8,22.6-7.6c7.1-3.7,14.2-1.1,17.8,0.7c4.5,2.3,16.8,13.2,17.3,13.7
									c0.2,0.1,0.3,0.3,0.4,0.5c0.8-0.2,1.6,0.3,2,1.1c0.4,0.9-0.1,1.9-1,2.3C-91.5,370.5-112.7,379-120.9,379z M-143.8,361.4
									c6.4,5,17.8,13.3,22.1,14c4,0.7,18-3.9,28.2-7.9c-4-3.5-12.5-10.8-15.7-12.4c-3-1.5-8.9-3.6-14.6-0.7
									C-128.1,356.7-138.4,359.8-143.8,361.4z"/>
							</g>
							<g id="XMLID_2534_">
								<path id="XMLID_2535_" class="st4" d="M-98,395c-0.1,0-0.1,0-0.2,0c-1-0.1-1.7-1-1.6-1.9l2.2-21.1c0.1-1,1-1.7,1.9-1.6
									c1,0.1,1.7,1,1.6,1.9l-2.2,21.1C-96.3,394.3-97.1,395-98,395z"/>
							</g>
							<g id="XMLID_2532_">
								<path id="XMLID_2533_" class="st4" d="M-90,395.3c-0.9,0-1.7-0.8-1.7-1.7l-0.6-25.4c0-1,0.7-1.8,1.7-1.8c0,0,0,0,0,0
									c0.9,0,1.7,0.8,1.7,1.7l0.6,25.4C-88.3,394.5-89,395.3-90,395.3C-90,395.3-90,395.3-90,395.3z"/>
							</g>
						</g>
					</g>
				</g>
			</g>
		</g>
	</g>
</g>
</svg>
