<?xml version="1.0" encoding="utf-8"?>
<!-- Generator: Adobe Illustrator 19.0.0, SVG Export Plug-In . SVG Version: 6.00 Build 0)  -->
<svg version="1.1" id="Capa_1" xmlns="http://www.w3.org/2000/svg" xmlns:xlink="http://www.w3.org/1999/xlink" x="0px" y="0px"
	 viewBox="-198 318.7 198.7 205.2" style="enable-background:new -198 318.7 198.7 205.2;" xml:space="preserve">
<style type="text/css">
	.st0{opacity:0.15;}
	.st1{fill:#99C66B;}
	.st2{opacity:0.45;fill:url(#XMLID_6_);}
	.st3{fill:#FFFFFF;}
	.st4{fill:#0F4747;}
</style>
<g id="Nuevo_símbolo">
	<g id="Nuevo_símbolo_1_">
		<g id="Nuevo_símbolo_2_">
			<g id="Nuevo_símbolo_3_">
				<g id="Nuevo_símbolo_4_">
					<g id="Nuevo_símbolo_5_">
						<circle id="XMLID_5_" class="st0" cx="-98.7" cy="424.6" r="99.3"/>
						<circle id="XMLID_4_" class="st1" cx="-98.7" cy="418" r="99.3"/>
						<g id="XMLID_2_">
							
								<linearGradient id="XMLID_6_" gradientUnits="userSpaceOnUse" x1="-395.1385" y1="-295.6978" x2="-215.3646" y2="-295.6978" gradientTransform="matrix(4.489700e-011 1 -1 4.489700e-011 -394.3576 723.2827)">
								<stop  offset="0" style="stop-color:#FFFFFF"/>
								<stop  offset="0.4877" style="stop-color:#FFFFFF;stop-opacity:0"/>
							</linearGradient>
							<circle id="XMLID_3_" class="st2" cx="-98.7" cy="418" r="89.9"/>
						</g>
					</g>
					<path id="XMLID_2218_" class="st3" d="M-114,370.4c0,0-2.8,15.2-1.5,30.2s7.4,24,7.4,24s-23.8-0.5-32.9-3.5
						c-6.8-3.3-9.1-3-9.1-3s0.9-23.3,9.1-32.9c8.2-9.6,23.5-14,25.2-14.4S-114,370.4-114,370.4z"/>
					<g id="XMLID_2195_">
						<g id="XMLID_2214_">
							<path id="XMLID_2215_" class="st4" d="M-103.8,454.4c-6.2,0-11.8-0.8-16.2-2.1c-8.9-2.7-21.2-12.5-27.6-26.1
								c-5-10.7-5.3-21.7-0.9-31.8c11.5-26.5,40.7-27.5,41-27.5h0c15.4-0.3,26.7,1.4,39.1,11.3c11.9,9.5,15.9,34.5,8.4,52.4
								C-67.6,448.7-87.5,454.4-103.8,454.4z M-107.3,370.4c-0.3,0-27.3,0.9-37.9,25.4c-5,11.6-2.3,22.2,0.8,29
								c5.9,12.7,17.2,21.8,25.4,24.2c14.6,4.4,46.1,3.1,55.9-19.7c7-16.7,3.5-39.7-7.4-48.3C-82.1,371.8-92.7,370.1-107.3,370.4z"
								/>
						</g>
						<g id="XMLID_2212_">
							<path id="XMLID_2213_" class="st4" d="M-72.3,445.4c-0.1,0-0.3,0-0.5-0.1c-1.2-0.3-30.4-8.3-39.8-26
								c-9.3-17.6-3.2-48.8-2.9-50.1c0.2-0.9,1.1-1.6,2.1-1.4c0.9,0.2,1.6,1.1,1.4,2.1c-0.1,0.3-6.1,31.3,2.6,47.8
								c8.6,16.4,37.3,24.2,37.6,24.3c0.9,0.2,1.5,1.2,1.2,2.1C-70.8,444.9-71.5,445.4-72.3,445.4z"/>
						</g>
						<g id="XMLID_2210_">
							<path id="XMLID_2211_" class="st4" d="M-122.6,425.8c-19.7,0-27.2-7.3-27.6-7.7c-0.7-0.7-0.7-1.8,0-2.5
								c0.7-0.7,1.8-0.7,2.5,0c0.1,0.1,9.7,9.1,35.8,6c25.9-3.1,45.4-21.2,49.5-29.7c0.4-0.9,1.5-1.2,2.3-0.8
								c0.9,0.4,1.2,1.5,0.8,2.3c-4.6,9.4-24.7,28.3-52.3,31.6C-115.5,425.6-119.2,425.8-122.6,425.8z"/>
						</g>
						<g id="XMLID_2208_">
							<path id="XMLID_2209_" class="st4" d="M-95.7,370.8L-95.7,370.8c-1,0-1.8-0.8-1.8-1.8c0-0.1,0.1-7.4,0-10.2
								c-0.2,0-0.4,0.1-0.5,0.2c-0.1,1.6-0.2,5.9-0.3,9.7c0,1-0.8,1.7-1.7,1.7c0,0,0,0,0,0c-1,0-1.7-0.8-1.7-1.8
								c0.2-10.5,0.4-11,0.5-11.4c0.6-1.4,3.3-2.3,5-2c1.4,0.3,2.2,1.3,2.3,2.6c0.1,2,0,10.8,0,11.2C-94,370-94.7,370.8-95.7,370.8z
								"/>
						</g>
						<g id="XMLID_2206_">
							<path id="XMLID_2207_" class="st4" d="M-100.2,481.9c-2,0-4.2-2-4.5-4.2c-0.2-1.4-0.7-21-0.8-25c0-1,0.7-1.8,1.7-1.8
								c1-0.1,1.8,0.7,1.8,1.7c0.2,9.3,0.7,23.5,0.8,24.6c0.1,0.5,0.7,1.1,1,1.1c0.1-0.1,0.9-0.9,0.8-3.4c-0.1-3.5-0.7-22-0.7-22.2
								c0-1,0.7-1.8,1.7-1.8c1-0.1,1.8,0.7,1.8,1.7c0,0.2,0.6,18.7,0.7,22.2c0.1,4.6-2,6.9-4.1,7
								C-100.1,481.9-100.1,481.9-100.2,481.9z"/>
						</g>
						<g id="XMLID_2204_">
							<path id="XMLID_2205_" class="st4" d="M-103,490.4c-2.5,0-4.9-0.1-7.2-0.2c-6.8-0.4-14.5-2.7-16.2-7.2
								c-0.5-1.2-0.8-3.6,1.7-6.1c5.4-5.3,19.9-5.4,21.5-5.4c1,0,1.7,0.8,1.7,1.8c0,1-0.8,1.7-1.8,1.7c-0.1,0-0.1,0-0.2,0
								c-4.2,0-15.2,0.8-18.8,4.4c-1.3,1.3-1,2.1-0.9,2.4c0.8,2.2,5.9,4.6,13.1,5c11,0.6,21.7-0.2,25.5-1.9c2.8-1.2,5.2-3.6,5.3-5.2
								c0-0.9-0.7-1.8-2.3-2.6c-6.2-3.3-15.9-2.1-16-2.1c-1,0.1-1.8-0.6-2-1.5s0.6-1.8,1.5-2c0.4-0.1,10.9-1.3,18.1,2.5
								c3.5,1.8,4.2,4.2,4.1,5.8c-0.1,3.5-3.9,6.8-7.4,8.3C-86.9,489.7-95.1,490.4-103,490.4z"/>
						</g>
						<g id="XMLID_2202_">
							<path id="XMLID_2203_" class="st4" d="M-99.9,461C-100,461-100,461-99.9,461c-1,0-1.8-0.8-1.8-1.8c0-1,0.8-1.7,1.8-1.7
								c0,0,0,0,0,0c0.5,0,24.8-0.1,39.5-14.7c7.4-7.3,11.1-17.2,11.1-29.2c0-30.7-15.9-47.5-48.6-51.2c-1-0.1-1.7-1-1.5-1.9
								s1-1.6,1.9-1.5c14.5,1.7,25.6,5.6,33.9,12.1c11.9,9.2,17.9,23.6,17.9,42.6c0,13-4.1,23.7-12.2,31.7
								C-73.6,460.7-98.1,461-99.9,461z"/>
						</g>
						<g id="XMLID_2200_">
							<path id="XMLID_2201_" class="st4" d="M-142.7,364.7c-0.5,0-1-0.2-1.3-0.6l-11.5-13.6c-0.6-0.7-0.5-1.8,0.2-2.5
								c0.7-0.6,1.8-0.5,2.5,0.2l11.5,13.6c0.6,0.7,0.5,1.8-0.2,2.5C-141.9,364.6-142.3,364.7-142.7,364.7z"/>
						</g>
						<g id="XMLID_2198_">
							<path id="XMLID_2199_" class="st4" d="M-40.9,392.4c-0.5,0-1.1-0.2-1.4-0.7c-0.6-0.8-0.4-1.9,0.3-2.5l14.4-10.9
								c0.8-0.6,1.9-0.4,2.5,0.3c0.6,0.8,0.4,1.9-0.3,2.5L-39.8,392C-40.1,392.3-40.5,392.4-40.9,392.4z"/>
						</g>
						<g id="XMLID_2196_">
							<path id="XMLID_2197_" class="st4" d="M-156.9,459.2c-0.5,0-1-0.2-1.4-0.6c-0.6-0.8-0.5-1.9,0.3-2.5l14.1-11.5
								c0.8-0.6,1.9-0.5,2.5,0.3s0.5,1.9-0.3,2.5l-14.1,11.5C-156.1,459.1-156.5,459.2-156.9,459.2z"/>
						</g>
					</g>
				</g>
			</g>
		</g>
	</g>
</g>
</svg>
