<?xml version="1.0" encoding="utf-8"?>
<!-- Generator: Adobe Illustrator 19.0.0, SVG Export Plug-In . SVG Version: 6.00 Build 0)  -->
<svg version="1.1" id="Capa_1" xmlns="http://www.w3.org/2000/svg" xmlns:xlink="http://www.w3.org/1999/xlink" x="0px" y="0px"
	 viewBox="-198 318.7 198.7 205.2" style="enable-background:new -198 318.7 198.7 205.2;" xml:space="preserve">
<style type="text/css">
	.st0{opacity:0.15;}
	.st1{fill:#99C66B;}
	.st2{opacity:0.45;fill:url(#XMLID_6_);}
	.st3{fill:#FFFFFF;}
	.st4{fill:#0F4747;}
</style>
<g id="Nuevo_símbolo">
	<g id="Nuevo_símbolo_1_">
		<g id="Nuevo_símbolo_2_">
			<g id="Nuevo_símbolo_3_">
				<g id="Nuevo_símbolo_4_">
					<circle id="XMLID_5_" class="st0" cx="-98.7" cy="424.6" r="99.3"/>
					<circle id="XMLID_4_" class="st1" cx="-98.7" cy="418" r="99.3"/>
					<g id="XMLID_2_">
						
							<linearGradient id="XMLID_6_" gradientUnits="userSpaceOnUse" x1="-395.1385" y1="-295.6978" x2="-215.3646" y2="-295.6978" gradientTransform="matrix(4.489700e-011 1 -1 4.489700e-011 -394.3576 723.2827)">
							<stop  offset="0" style="stop-color:#FFFFFF"/>
							<stop  offset="0.4877" style="stop-color:#FFFFFF;stop-opacity:0"/>
						</linearGradient>
						<circle id="XMLID_3_" class="st2" cx="-98.7" cy="418" r="89.9"/>
					</g>
				</g>
				<circle id="XMLID_1769_" class="st3" cx="-121.4" cy="372.6" r="10.9"/>
				<g id="XMLID_1732_">
					<g id="XMLID_1765_">
						<path id="XMLID_1766_" class="st4" d="M-145.9,414.8c-4,0-7.2-3.3-7.2-7.2c0-4,3.3-7.2,7.2-7.2c4,0,7.2,3.3,7.2,7.2
							C-138.7,411.6-141.9,414.8-145.9,414.8z M-145.9,403.8c-2.1,0-3.7,1.7-3.7,3.7c0,2.1,1.7,3.7,3.7,3.7c2.1,0,3.7-1.7,3.7-3.7
							C-142.2,405.5-143.8,403.8-145.9,403.8z"/>
					</g>
					<g id="XMLID_1761_">
						<path id="XMLID_1762_" class="st4" d="M-48.8,414.8c-4,0-7.2-3.3-7.2-7.2c0-4,3.3-7.2,7.2-7.2s7.2,3.3,7.2,7.2
							C-41.6,411.6-44.8,414.8-48.8,414.8z M-48.8,403.8c-2.1,0-3.7,1.7-3.7,3.7c0,2.1,1.7,3.7,3.7,3.7s3.7-1.7,3.7-3.7
							C-45.1,405.5-46.7,403.8-48.8,403.8z"/>
					</g>
					<g id="XMLID_1757_">
						<path id="XMLID_1758_" class="st4" d="M-97.6,414.8c-4,0-7.2-3.3-7.2-7.2c0-4,3.3-7.2,7.2-7.2s7.2,3.3,7.2,7.2
							C-90.3,411.6-93.6,414.8-97.6,414.8z M-97.6,403.8c-2.1,0-3.7,1.7-3.7,3.7c0,2.1,1.7,3.7,3.7,3.7s3.7-1.7,3.7-3.7
							C-93.8,405.5-95.5,403.8-97.6,403.8z"/>
					</g>
					<g id="XMLID_1753_">
						<path id="XMLID_1754_" class="st4" d="M-42.2,473.4c-0.8,0-1.5-0.1-2-0.2c-0.2,0-0.6-0.1-0.7-0.1c-2.2,0-2.4-2.6-2.6-7.5
							c-0.1-3.4-0.1-7.5-0.1-11.2c0-3.2,0-6-0.1-6.9c0-0.1,0-0.1,0-0.2c-0.3,0.2-0.7,0.6-0.7,1.1c-0.1,1.2-0.2,3.4-0.2,6.1
							c-0.3,10.3-0.6,15.2-1.2,16.6c-0.7,1.5-2.4,2.2-4.6,2c-2.2-0.2-4.5-1.2-5-3.1c-0.4-1.6,0.2-26.4,0.6-39.8
							c-1.1,0.6-2.3,1.3-3,1.9c-2.1,1.7-9.4,7.3-13.7,5.6c-0.4-0.2-0.8-0.4-1.1-0.7c-0.5,0-1.2-0.1-1.7-0.4c-1.3-0.5-3.3-2.3-6.3-5
							c-0.5-0.4-0.9-0.8-1.3-1.2l4.7,25.7c0.1,0.5,0,1-0.4,1.4s-0.8,0.6-1.3,0.6h-3c-0.1,4.9-0.2,8.7-0.2,10.1
							c-0.1,1.9-0.7,3.2-1.8,4.1c-1.6,1.2-3.6,0.9-4.8,0.6c-0.2,0-0.6-0.1-0.7-0.1c-2.2,0-2.7-1.2-2.7-14.7h-1.1
							c-0.3,9.4-0.6,11.8-1.1,12.7c-0.7,1.5-2.4,2.2-4.6,2c-2.2-0.2-4.5-1.2-5-3.1c-0.1-0.4-0.2-1-0.1-11.6h-1.8
							c-0.5,0-1-0.2-1.3-0.6c-0.3-0.4-0.5-0.9-0.4-1.4l3.8-26c-1,0.5-2,1.2-2.7,1.7c-2.1,1.8-9.4,7.3-13.7,5.6
							c-0.5-0.2-0.9-0.4-1.2-0.7c-0.4,0-0.9-0.1-1.3-0.3c-1.3-0.5-3.3-2.3-6.3-5c-0.6-0.5-1.1-1-1.6-1.4c0.7,4.7,0.2,35.3,0,38.2
							c-0.1,1.9-0.7,3.2-1.8,4.1c-1.6,1.2-3.6,0.9-4.8,0.6c-0.2,0-0.6-0.1-0.7-0.1c-2.2,0-2.4-2.6-2.6-7.5
							c-0.1-3.4-0.1-7.5-0.1-11.2c0-3.2,0-5.9-0.1-6.9c0-0.1,0-0.1,0-0.2c-0.3,0.2-0.7,0.6-0.7,1.1c-0.1,1.2-0.1,3.4-0.2,6.1
							c-0.3,10.3-0.6,15.2-1.2,16.6c-0.7,1.5-2.4,2.2-4.6,2c-2.2-0.2-4.5-1.2-5-3.1c-0.4-1.6,0.2-26.4,0.6-39.8
							c-1.1,0.6-2.3,1.3-3,1.9c-2.1,1.8-9.4,7.3-13.7,5.6c-1.6-0.6-2.1-1.7-2.3-2.5c-0.4-2.6,2.3-5.3,8.3-10.3
							c6-5.1,15.4-10.4,15.8-10.6c0.1-0.1,0.2-0.1,0.3-0.1c2.4-0.8,7.8-0.8,9.1-0.5c1.5,0.4,13.8,9.3,19.3,14.6
							c1.1-1,2.4-2.1,3.8-3.4c6-5.1,15.4-10.4,15.8-10.6c0.1-0.1,0.2-0.1,0.3-0.1c2.4-0.8,7.8-0.8,9.1-0.5
							c1.5,0.4,13.9,9.4,19.4,14.7c0,0,0.1,0.1,0.1,0.1c1.1-1.1,2.5-2.2,4-3.6c6-5.1,15.4-10.4,15.8-10.6c0.1-0.1,0.2-0.1,0.3-0.1
							c2.4-0.8,7.8-0.8,9.1-0.5c1.5,0.4,13.9,9.4,19.4,14.7c3.3,3.2,3,5.4,2.2,6.7c-1.5,2.2-5.3,2.3-6.9,1.7c-1.3-0.5-3.3-2.3-6.3-5
							c-0.6-0.5-1.1-1-1.6-1.4c0.6,4.7,0.2,35.3,0,38.2c-0.1,1.9-0.7,3.2-1.8,4.1C-40.3,473.2-41.3,473.4-42.2,473.4z M-43.7,469.7
							c0,0,0.1,0,0.1,0c0.6,0.1,1.7,0.3,2,0c0.2-0.1,0.4-0.6,0.4-1.5c0.3-5.3,0.5-34.8,0.1-37.4c-0.6-1.8-0.2-3.6,1-4.5
							c1-0.7,2.3-0.7,3.4,0.2c0.6,0.5,1.6,1.4,2.9,2.5c1.6,1.4,4.5,4,5.3,4.3c0.6,0.2,2.3,0,2.6-0.3l0,0c0,0-0.1-0.7-1.7-2.3
							c-5.3-5.2-16.4-13-18-13.8c-1-0.2-5.1-0.1-6.8,0.4c-1.2,0.7-9.8,5.6-15.1,10.2c-2.2,1.9-3.9,3.4-5.2,4.7
							c-0.4,0.4-0.8,0.6-1.4,0.5c-0.5,0-1-0.3-1.3-0.7c-0.3-0.4-0.6-0.8-1.1-1.2c-5.3-5.2-16.4-13-18-13.8c-1-0.2-5.1-0.1-6.8,0.4
							c-1.2,0.7-9.8,5.6-15.1,10.2c-2.1,1.8-3.7,3.2-5,4.5c-0.4,0.4-0.8,0.5-1.3,0.5c-0.5,0-1-0.3-1.3-0.6c-0.3-0.3-0.6-0.7-0.9-1
							c-5.3-5.2-16.4-13-18-13.8c-1-0.2-5.1-0.1-6.8,0.4c-1.2,0.7-9.8,5.6-15.1,10.2c-2.1,1.8-6.3,5.4-7,6.9
							c1.7,0.7,6.6-2.1,10.2-5.1c2-1.7,6.2-3.6,6.4-3.6c0.5-0.2,1.2-0.2,1.7,0.1c0.5,0.3,0.8,0.9,0.8,1.5c-0.4,14.8-1,38.6-0.8,41.6
							c0.6,0.5,2.5,0.8,3.1,0.5c0.4-1.7,0.7-10.4,0.9-15.1c0.1-2.7,0.2-5,0.2-6.2c0.2-2.4,2.2-4.5,4.4-4.5c0,0,0,0,0,0
							c1.4,0,3.1,0.9,3.3,3.5c0.1,1.1,0.1,3.8,0.1,7.2c0,4.6,0,12.7,0.4,15.3c0,0,0.1,0,0.1,0c0.6,0.1,1.7,0.3,2,0
							c0.2-0.1,0.4-0.6,0.4-1.5c0.3-4.9,0.5-34.9,0.1-37.4c-0.6-1.8-0.2-3.6,1-4.5c1-0.7,2.3-0.6,3.4,0.2c0.6,0.5,1.7,1.4,2.9,2.5
							c1.6,1.4,4.5,4,5.3,4.3c0.1,0,0.3,0.1,0.8,0.1c0.6,0,1.2,0.3,1.5,0.8c0,0,0.1,0,0.2,0.1c1.7,0.7,6.6-2.1,10.2-5.1
							c2-1.7,6.2-3.6,6.4-3.6c0.6-0.3,1.3-0.2,1.8,0.2c0.5,0.4,0.8,1,0.7,1.6l-4,27.3h1.5c0.5,0,0.9,0.2,1.2,0.5s0.5,0.8,0.5,1.3
							c-0.2,9-0.1,11.6-0.1,12.3c0.6,0.5,2.5,0.8,3.1,0.5c0.4-1.6,0.7-10.1,0.8-13c0-0.9,0.8-1.7,1.7-1.7h4.6c0.5,0,0.9,0.2,1.2,0.5
							s0.5,0.8,0.5,1.2c0,2.8,0,10.6,0.4,13.1c0,0,0.1,0,0.1,0c0.6,0.1,1.7,0.3,2,0c0.2-0.1,0.4-0.6,0.4-1.5c0.1-1.5,0.2-6,0.3-11.7
							c0-1,0.8-1.7,1.8-1.7h2.7l-4.7-26c0-0.3,0-0.5,0-0.8c0.3-1,0.9-1.8,1.8-2.1c0.5-0.2,1.5-0.3,2.8,0.5c0.6,0.5,1.6,1.4,2.9,2.5
							c1.6,1.4,4.5,4,5.3,4.3c0.1,0,0.5,0.1,1.1,0.1c0.7,0,1.2,0.3,1.6,0.8c0,0,0.1,0,0.2,0.1c1.7,0.7,6.6-2.1,10.2-5.1
							c2-1.7,6.2-3.6,6.4-3.6c0.5-0.2,1.2-0.2,1.7,0.1c0.5,0.3,0.8,0.9,0.8,1.5c-0.4,14.8-1,38.6-0.8,41.6c0.6,0.5,2.5,0.8,3.1,0.5
							c0.4-1.7,0.7-10.4,0.9-15.1c0.1-2.7,0.2-5,0.2-6.2c0.2-2.4,2.2-4.5,4.4-4.5c0,0,0,0,0,0c1.4,0,3.1,0.9,3.3,3.5
							c0.1,1.1,0.1,3.8,0.1,7.2C-44.1,459-44.1,467.1-43.7,469.7z"/>
					</g>
					<g id="XMLID_1749_">
						<path id="XMLID_1750_" class="st4" d="M-121.6,385.7c-7.2,0-13-5.8-13-13s5.8-13,13-13c7.2,0,13,5.8,13,13
							S-114.5,385.7-121.6,385.7z M-121.6,363.2c-5.2,0-9.5,4.3-9.5,9.5s4.3,9.5,9.5,9.5s9.5-4.3,9.5-9.5S-116.4,363.2-121.6,363.2z
							"/>
					</g>
					<g id="XMLID_1747_">
						<path id="XMLID_1748_" class="st4" d="M-121.6,360.2c-1,0-1.8-0.8-1.8-1.8v-8.6c0-1,0.8-1.8,1.8-1.8s1.8,0.8,1.8,1.8v8.6
							C-119.9,359.4-120.7,360.2-121.6,360.2z"/>
					</g>
					<g id="XMLID_1745_">
						<path id="XMLID_1746_" class="st4" d="M-121.6,397.3c-1,0-1.8-0.8-1.8-1.8v-10.4c0-1,0.8-1.8,1.8-1.8s1.8,0.8,1.8,1.8v10.4
							C-119.9,396.6-120.7,397.3-121.6,397.3z"/>
					</g>
					<g id="XMLID_1743_">
						<path id="XMLID_1744_" class="st4" d="M-134.9,376.3h-15c-1,0-1.8-0.8-1.8-1.8s0.8-1.8,1.8-1.8h15c1,0,1.8,0.8,1.8,1.8
							S-134,376.3-134.9,376.3z"/>
					</g>
					<g id="XMLID_1741_">
						<path id="XMLID_1742_" class="st4" d="M-96.1,375.1h-12.5c-1,0-1.8-0.8-1.8-1.8s0.8-1.8,1.8-1.8h12.5c1,0,1.8,0.8,1.8,1.8
							S-95.2,375.1-96.1,375.1z"/>
					</g>
					<g id="XMLID_1739_">
						<path id="XMLID_1740_" class="st4" d="M-110.4,366.4c-0.5,0-0.9-0.2-1.3-0.5c-0.7-0.7-0.6-1.8,0-2.5l8-7.7
							c0.7-0.7,1.8-0.6,2.5,0c0.7,0.7,0.6,1.8,0,2.5l-8,7.7C-109.5,366.2-109.9,366.4-110.4,366.4z"/>
					</g>
					<g id="XMLID_1737_">
						<path id="XMLID_1738_" class="st4" d="M-139.2,391.2c-0.5,0-0.9-0.2-1.3-0.5c-0.7-0.7-0.7-1.8,0-2.5l8.6-8.3
							c0.7-0.7,1.8-0.7,2.5,0c0.7,0.7,0.7,1.8,0,2.5l-8.6,8.3C-138.4,391-138.8,391.2-139.2,391.2z"/>
					</g>
					<g id="XMLID_1735_">
						<path id="XMLID_1736_" class="st4" d="M-131.8,365.2c-0.4,0-0.7-0.1-1.1-0.4l-8.6-6.5c-0.8-0.6-0.9-1.7-0.3-2.5
							c0.6-0.8,1.7-0.9,2.5-0.3l8.6,6.5c0.8,0.6,0.9,1.7,0.3,2.5C-130.7,364.9-131.2,365.2-131.8,365.2z"/>
					</g>
					<g id="XMLID_1733_">
						<path id="XMLID_1734_" class="st4" d="M-103.5,390.3c-0.4,0-0.8-0.1-1.1-0.4l-8.3-6.5c-0.8-0.6-0.9-1.7-0.3-2.5
							c0.6-0.8,1.7-0.9,2.5-0.3l8.3,6.5c0.8,0.6,0.9,1.7,0.3,2.5C-102.4,390-103,390.3-103.5,390.3z"/>
					</g>
				</g>
			</g>
		</g>
	</g>
</g>
</svg>
