<?xml version="1.0" encoding="utf-8"?>
<!-- Generator: Adobe Illustrator 19.0.0, SVG Export Plug-In . SVG Version: 6.00 Build 0)  -->
<svg version="1.1" id="Capa_1" xmlns="http://www.w3.org/2000/svg" xmlns:xlink="http://www.w3.org/1999/xlink" x="0px" y="0px"
	 viewBox="-198 318.7 198.7 205.2" style="enable-background:new -198 318.7 198.7 205.2;" xml:space="preserve">
<style type="text/css">
	.st0{opacity:0.15;}
	.st1{fill:#99C66B;}
	.st2{opacity:0.45;fill:url(#XMLID_6_);}
	.st3{fill:#FFFFFF;}
	.st4{fill:#0F4747;}
</style>
<g id="Nuevo_símbolo">
	<g id="Nuevo_símbolo_1_">
		<g id="Nuevo_símbolo_2_">
			<g id="Nuevo_símbolo_3_">
				<g id="Nuevo_símbolo_4_">
					<g id="Nuevo_símbolo_5_">
						<g id="Nuevo_símbolo_6_">
							<g id="Nuevo_símbolo_7_">
								<g id="Nuevo_símbolo_8_">
									<circle id="XMLID_5_" class="st0" cx="-98.7" cy="424.6" r="99.3"/>
									<circle id="XMLID_4_" class="st1" cx="-98.7" cy="418" r="99.3"/>
									<g id="XMLID_2_">
										
											<linearGradient id="XMLID_6_" gradientUnits="userSpaceOnUse" x1="-395.1385" y1="-295.6978" x2="-215.3646" y2="-295.6978" gradientTransform="matrix(4.489700e-011 1 -1 4.489700e-011 -394.3576 723.2827)">
											<stop  offset="0" style="stop-color:#FFFFFF"/>
											<stop  offset="0.4877" style="stop-color:#FFFFFF;stop-opacity:0"/>
										</linearGradient>
										<circle id="XMLID_3_" class="st2" cx="-98.7" cy="418" r="89.9"/>
									</g>
								</g>
								<path id="XMLID_1818_" class="st3" d="M-94.4,393.8c0,0-11.5,5.9-13.9,6.4c-2.5,0.5-6.8,1.6-6.8,1.6l-4,15.1
									c0,0,13.2-1.2,19.3-3.8c6.2-2.6,11.7-5,11.7-5L-94.4,393.8z"/>
								<path id="XMLID_1817_" class="st3" d="M-79.4,421.9l7,16.5c0,0-20.8,11.3-38,14.4c-17.3,3.1-22.2,3.9-22.2,3.9l6.8-19.9
									c0,0,15.5,1.8,27.7-4.3S-79.4,421.9-79.4,421.9z"/>
								<g id="XMLID_1772_">
									<g id="XMLID_1813_">
										<path id="XMLID_1814_" class="st4" d="M-105.1,482.9c-21.6,0-33.3-4-37.1-7.8c-1-1-1.4-2.2-1.4-3.5c0.1-3.2,3.2-6.2,4.1-7
											c0.5-0.8,3-4.3,4-6.6c0.9-2.1,16.6-49.8,26.9-81.4v0c0.8-2.6,2.5-3,3.2-3.1c0.9-0.1,2.5,0.2,3.8,2.8
											c1.1,2.3,37,71,43,82.4l0.2-0.1c1.4-0.8,3-0.8,4.4-0.1c1.4,0.7,2.3,2.1,2.5,3.7c0.3,3-0.1,6.6-5.8,10.7
											c-6.4,4.6-23.5,9.7-45.8,9.9C-103.8,482.9-104.4,482.9-105.1,482.9z M-105.3,377.7c-2.6,8.1-25.7,79-27,81.7
											c-1.3,2.9-4.3,7.2-4.4,7.3c-0.1,0.1-0.2,0.2-0.3,0.3c-1,0.8-3,3.1-3,4.6c0,0.4,0.1,0.6,0.4,0.9c2.6,2.6,13.3,7.1,36.5,6.8
											c23-0.2,38.8-5.7,43.8-9.2c4.8-3.4,4.5-5.8,4.3-7.4c-0.1-0.5-0.3-0.8-0.6-1c-0.3-0.2-0.7-0.2-1.1,0l-1.8,1
											c-0.4,0.2-0.9,0.3-1.4,0.2c-0.5-0.1-0.8-0.4-1.1-0.9c-1.7-3.3-42.6-81.6-43.8-84.1c-0.1-0.3-0.3-0.5-0.4-0.6
											C-105.2,377.4-105.2,377.5-105.3,377.7L-105.3,377.7z"/>
									</g>
									<g id="XMLID_1811_">
										<path id="XMLID_1812_" class="st4" d="M-104.2,475c-17.5,0-34-7.4-34.7-7.7c-0.9-0.4-1.3-1.4-0.9-2.3
											c0.4-0.9,1.4-1.3,2.3-0.9c0.2,0.1,16.5,7.4,33.3,7.4c16.2,0,28-0.8,43.8-11.8c0.8-0.5,1.9-0.4,2.4,0.4
											c0.6,0.8,0.4,1.9-0.4,2.4C-75,474.2-87.8,475-104.2,475z"/>
									</g>
									<g id="XMLID_1809_">
										<path id="XMLID_1810_" class="st4" d="M-133.3,458.8c-0.8,0-1.6-0.6-1.7-1.5c-0.2-1,0.5-1.9,1.4-2
											c0.4-0.1,35.3-5.9,47.2-12c10.4-5.3,12.6-7.5,12.6-7.5c0.5-0.8,1.5-1.2,2.4-0.7c0.8,0.5,1.2,1.5,0.7,2.4
											c-0.8,1.5-6,4.8-14.1,8.9c-12.4,6.3-46.8,12.1-48.2,12.4C-133.1,458.8-133.2,458.8-133.3,458.8z"/>
									</g>
									<g id="XMLID_1807_">
										<path id="XMLID_1808_" class="st4" d="M-126.5,438.4c-0.9,0-1.7-0.7-1.7-1.6c-0.1-1,0.7-1.8,1.6-1.9
											c0.2,0,22.3-1.7,31.9-6.5c9.7-4.8,13.5-8.1,13.5-8.1c0.7-0.6,1.8-0.5,2.5,0.2s0.5,1.8-0.2,2.5c-0.2,0.1-4.1,3.5-14.2,8.6
											c-10.3,5.1-32.3,6.8-33.3,6.8C-126.4,438.4-126.4,438.4-126.5,438.4z"/>
									</g>
									<g id="XMLID_1805_">
										<path id="XMLID_1806_" class="st4" d="M-120.1,419.1c-0.9,0-1.7-0.7-1.7-1.7c0-1,0.7-1.8,1.7-1.8c0.1,0,13.9-0.7,20.6-4
											c7-3.4,10.9-6,10.9-6c0.8-0.5,1.9-0.3,2.4,0.5c0.5,0.8,0.3,1.9-0.5,2.4c-0.2,0.1-4.1,2.7-11.3,6.3
											C-105.4,418.3-119.4,419-120.1,419.1C-120,419-120.1,419.1-120.1,419.1z"/>
									</g>
									<g id="XMLID_1803_">
										<path id="XMLID_1804_" class="st4" d="M-115.2,404c-0.8,0-1.5-0.5-1.7-1.3c-0.3-0.9,0.3-1.9,1.2-2.2c0,0,2.5-0.7,9.4-3.2
											c6.6-2.4,10.2-5.5,10.2-5.6c0.7-0.6,1.8-0.6,2.5,0.1c0.6,0.7,0.6,1.8-0.1,2.5c-0.2,0.1-4.1,3.7-11.4,6.3
											c-7,2.5-9.5,3.2-9.6,3.3C-114.8,404-115,404-115.2,404z"/>
									</g>
									<g id="XMLID_1801_">
										<path id="XMLID_1802_" class="st4" d="M-112.5,367.5c-0.5,0-0.9-0.2-1.3-0.5l-11.8-12.3c-0.7-0.7-0.6-1.8,0.1-2.5
											c0.7-0.7,1.8-0.6,2.5,0.1l11.8,12.3c0.7,0.7,0.6,1.8-0.1,2.5C-111.6,367.4-112.1,367.5-112.5,367.5z"/>
									</g>
									<g id="XMLID_1799_">
										<path id="XMLID_1800_" class="st4" d="M-105,363.5c0,0-0.1,0-0.1,0c-1-0.1-1.7-0.9-1.6-1.9l1.1-15.6
											c0.1-1,0.9-1.7,1.9-1.6c1,0.1,1.7,0.9,1.6,1.9l-1.1,15.6C-103.4,362.8-104.1,363.5-105,363.5z"/>
									</g>
									<g id="XMLID_1797_">
										<path id="XMLID_1798_" class="st4" d="M-100.9,371.3c-0.5,0-1.1-0.2-1.4-0.7c-0.6-0.8-0.4-1.9,0.4-2.5l13.3-9.9
											c0.8-0.6,1.9-0.4,2.5,0.4c0.6,0.8,0.4,1.9-0.4,2.5l-13.3,9.9C-100.2,371.2-100.6,371.3-100.9,371.3z"/>
									</g>
									<g id="XMLID_1793_">
										<path id="XMLID_1794_" class="st4" d="M-129.4,394.9h-6.3c-0.8,0-1.4-0.5-1.7-1.2l-2.5-7.7c-0.2-0.5-0.1-1,0.1-1.4
											c0.2-0.4,0.7-0.7,1.1-0.8c3.8-0.8,8.1-1.8,8.6-2c0.5-0.2,1.1-0.1,1.6,0.3c0.4,0.3,0.7,0.8,0.7,1.4v9.7
											C-127.6,394.1-128.4,394.9-129.4,394.9z M-134.4,391.4h3.3v-5.7c-1.5,0.3-3.3,0.8-4.8,1.1L-134.4,391.4z"/>
									</g>
									<g id="XMLID_1789_">
										<path id="XMLID_1790_" class="st4" d="M-161.1,458.8c-0.4,0-0.8-0.1-1.1-0.4l-6-5.2c-0.7-0.6-0.8-1.5-0.3-2.3l3.3-5
											c0.5-0.7,1.4-1,2.2-0.6l7.3,3.5c0.5,0.2,0.8,0.6,0.9,1.1c0.1,0.5,0,1-0.2,1.4l-4.5,6.7c-0.3,0.4-0.7,0.7-1.2,0.8
											C-160.9,458.8-161,458.8-161.1,458.8z M-164.8,451.6l3.4,2.9l2.3-3.4l-4.1-2L-164.8,451.6z"/>
									</g>
									<g id="XMLID_1785_">
										<path id="XMLID_1786_" class="st4" d="M-69.2,385.2c-0.4,0-0.8-0.1-1.1-0.4l-5.5-4.5c-0.7-0.6-0.9-1.7-0.3-2.4l7-9.3
											c0.3-0.4,0.7-0.6,1.2-0.7c0.5-0.1,0.9,0.1,1.3,0.4l7,5.7c0.4,0.3,0.6,0.8,0.6,1.3c0,0.5-0.2,1-0.5,1.3l-8.6,8.1
											C-68.3,385-68.8,385.2-69.2,385.2z M-72.3,378.6l3,2.5l6-5.7l-4.1-3.3L-72.3,378.6z"/>
									</g>
									<g id="XMLID_1781_">
										<path id="XMLID_1782_" class="st4" d="M-44.3,438.4h-9c-1,0-1.8-0.8-1.8-1.8v-7.5c0-0.9,0.7-1.6,1.5-1.7l7.5-1
											c0.9-0.1,1.8,0.5,1.9,1.4l1.5,8.5c0.1,0.5,0,1-0.4,1.4C-43.3,438.2-43.8,438.4-44.3,438.4z M-51.5,434.9h5.1l-0.8-4.8
											l-4.3,0.6V434.9z"/>
									</g>
									<g id="XMLID_1777_">
										<path id="XMLID_1778_" class="st4" d="M-23.9,421.2c-0.3,0-0.5-0.1-0.7-0.2l-4.5-2.1c-0.6-0.3-1-0.9-1-1.6v-5.2
											c0-1,0.8-1.8,1.8-1.8h6.3c0.5,0,1,0.2,1.4,0.7c0.3,0.4,0.5,1,0.3,1.5l-1.8,7.3c-0.1,0.5-0.5,0.9-0.9,1.2
											C-23.4,421.1-23.6,421.2-23.9,421.2z M-26.7,416.2l1.6,0.7l0.7-3h-2.3V416.2z"/>
									</g>
									<g id="XMLID_1775_">
										<path id="XMLID_1776_" class="st4" d="M-150.4,438.3c-1.3,0-2.7-0.2-4-0.7c-3.1-1.2-7.2-4.3-9.1-12.7
											c-0.9-3.9-0.3-7.3,1.9-10.1c5.1-6.7,17.1-7.4,17.6-7.4c1,0,1.8,0.7,1.8,1.7s-0.7,1.8-1.7,1.8c-0.1,0-10.9,0.6-15,6
											c-1.5,2-1.9,4.3-1.2,7.2c1.2,5.5,3.7,9,7,10.2c3.2,1.2,6.4,0.1,8.2-1.2c2.4-1.7,4.6-6,4-9c-0.3-1.6-1.4-2.5-3.3-3
											c-1.7-0.4-4-0.5-4.9,1.1c-0.7,1.2-0.5,2.9,0,3.4c0.6,0.7,0.5,1.8-0.2,2.5c-0.7,0.6-1.8,0.5-2.5-0.2
											c-1.3-1.6-1.8-4.9-0.2-7.5c0.9-1.5,3.3-3.9,8.7-2.7c3.3,0.7,5.4,2.7,6,5.7c0.9,4.5-2,10.2-5.4,12.6
											C-144.7,437.2-147.4,438.3-150.4,438.3z"/>
									</g>
									<g id="XMLID_1773_">
										<path id="XMLID_1774_" class="st4" d="M-57.4,415.3c-1.9,0-3.6-0.4-5.2-1.1c-3.2-1.4-5.6-4.3-6.7-8.2
											c-0.8-2.7,0-5.2,2.3-6.7c3.3-2.2,9.1-2,12.3,0.6c2.3,1.9,3,4.7,1.8,7.7c-0.4,0.9-1.4,1.3-2.3,1c-0.9-0.4-1.3-1.4-1-2.3
											c0.6-1.6,0.4-2.8-0.8-3.7c-2-1.6-6.1-1.8-8.1-0.4c-1,0.7-1.3,1.5-0.9,2.8c0.9,2.9,2.5,4.9,4.8,6c2.6,1.2,6,1,9.2-0.5
											c1.9-0.9,3.1-2.6,3.4-5c0.5-3.4-1-7.1-3.9-9.8c-5.3-4.9-14.2,0.2-14.3,0.2c-0.8,0.5-1.9,0.2-2.4-0.6
											c-0.5-0.8-0.2-1.9,0.6-2.4c0.5-0.3,11.3-6.4,18.4,0.2c3.8,3.5,5.7,8.3,5,12.9c-0.5,3.5-2.5,6.2-5.4,7.6
											C-52.8,414.8-55.2,415.3-57.4,415.3z"/>
									</g>
								</g>
							</g>
						</g>
					</g>
				</g>
			</g>
		</g>
	</g>
</g>
</svg>
