<?xml version="1.0" encoding="utf-8"?>
<!-- Generator: Adobe Illustrator 19.0.0, SVG Export Plug-In . SVG Version: 6.00 Build 0)  -->
<svg version="1.1" id="Capa_1" xmlns="http://www.w3.org/2000/svg" xmlns:xlink="http://www.w3.org/1999/xlink" x="0px" y="0px"
	 viewBox="-198 318.7 198.7 205.2" style="enable-background:new -198 318.7 198.7 205.2;" xml:space="preserve">
<style type="text/css">
	.st0{opacity:0.15;enable-background:new    ;}
	.st1{fill:#9AC56C;}
	.st2{opacity:0.45;fill:url(#XMLID_10_);enable-background:new    ;}
	.st3{fill:#FFFFFF;}
	.st4{fill:#134848;}
</style>
<g id="Nuevo_símbolo">
	<path id="XMLID_8_" class="st0" d="M-98.6,325.2c54.9,0,99.3,44.5,99.3,99.3s-44.4,99.4-99.3,99.4s-99.3-44.5-99.3-99.3
		S-153.5,325.2-98.6,325.2z"/>
	<path id="XMLID_7_" class="st1" d="M-98.6,318.7c54.9,0,99.3,44.5,99.3,99.3s-44.4,99.4-99.3,99.4s-99.3-44.5-99.3-99.4
		S-153.5,318.7-98.6,318.7z"/>
	<g id="XMLID_5_">
		
			<linearGradient id="XMLID_10_" gradientUnits="userSpaceOnUse" x1="-1113.1722" y1="16210.252" x2="-933.3723" y2="16210.252" gradientTransform="matrix(4.489700e-011 1 -1 4.489700e-011 16111.6426 1441.2827)">
			<stop  offset="0" style="stop-color:#FFFFFF"/>
			<stop  offset="0.4877" style="stop-color:#FFFFFF;stop-opacity:0"/>
		</linearGradient>
		<path id="XMLID_6_" class="st2" d="M-98.6,328.1c49.6,0,89.9,40.2,89.9,89.9s-40.3,89.9-89.9,89.9s-89.9-40.2-89.9-89.9
			S-148.2,328.1-98.6,328.1z"/>
	</g>
</g>
<path id="XMLID_1675_" class="st3" d="M-157,421.3l10,7.5c0,0,5.1-7.9,7.4-7.5c2.3,0.4,5.2,4.7,5.9,6.7s-0.8,4.7-2.3,5.1
	c-1.5,0.4-6,1.9-6,1.9l6.5,7.1l-3.6,7.1c0,0-5.2-6.8-8.1-5.9c-2.9,0.9-6.7,4.7-5.6,7.4c1.1,2.7,3.7,6.6,3.7,6.6l-5.3,5.8l-21.7-19.6
	l8-7.1c0,0,3.4,3.7,6.8,2.5c3.4-1.2,6.1-2,4.7-5.6c-1.4-3.6-5.8-5.2-5.8-5.2l4.4-6L-157,421.3z"/>
<path id="XMLID_1674_" class="st3" d="M-52.9,355.7c0,0-0.9-1.2-11.3,9.6c-10.4,10.9-31,36.8-31,36.8s-4.2,0.4-4.8,1.7
	c-0.6,1.3-0.6,1.3-0.6,1.3s-7.7-0.2-8.3,3.6c-0.6,3.8-2.6,12.8-3.8,16.1c-1.2,3.3-2.5,4.9-2.5,4.9s12.5-0.7,13.9-4.3s5.8-12.7,7-13
	c1.2-0.3,2.3-0.2,4.3-0.8c2-0.6,0.5-4.1,0.5-4.1l-0.7-1.2c0,0,33.3-31.2,35.2-33.7s8-10.5,7.6-12.5C-48,358.1-50,356.7-52.9,355.7z"
	/>
<g id="XMLID_1639_">
	<g id="XMLID_1672_">
		<path id="XMLID_1673_" class="st4" d="M-90.7,408c-0.4,0-0.9-0.2-1.2-0.5c-0.7-0.7-0.7-1.8,0-2.5c0.2-0.2,22.8-23,31.7-31.1
			c8.1-7.4,10.9-12.5,10.7-14.7c0-0.5-0.2-0.8-0.5-0.9c-2.7-1.9-6.5,0.4-8.2,2.3c-2.3,2.5-36.9,42.7-37.2,43.1
			c-0.6,0.7-1.7,0.8-2.5,0.2c-0.7-0.6-0.8-1.7-0.2-2.5c1.4-1.7,35-40.7,37.3-43.2c2.6-2.9,8.2-6,12.8-2.8c1.2,0.8,1.9,2.1,1.9,3.6
			c0.3,5.5-7.3,13.3-11.9,17.5c-8.9,8.1-31.4,30.8-31.6,31C-89.8,407.8-90.3,408-90.7,408z"/>
	</g>
	<g id="XMLID_1668_">
		<path id="XMLID_1669_" class="st4" d="M-91,412.2c-1.9,0-4.2-0.7-5.4-1.8c-1.4-1.1-3.6-3.1-3.7-3.2c-0.1-0.1-0.1-0.1-0.2-0.2
			c-0.9-1.1-2.2-3.1-1.8-4.8c0.2-0.8,0.8-1.4,1.5-1.7c2.4-0.9,4.4,0.1,7.5,2c2.6,1.5,5.5,4.9,5.4,7.2c0,0.9-0.5,1.7-1.3,2.1
			C-89.5,412.1-90.2,412.2-91,412.2z M-97.6,404.7c0.5,0.4,2.3,2.1,3.4,3c0.6,0.5,1.7,0.8,2.6,0.9c-0.6-0.9-1.8-2.2-3.2-3.1
			c-1.8-1-2.7-1.5-3.4-1.7C-98,404.1-97.8,404.4-97.6,404.7z"/>
	</g>
	<g id="XMLID_1666_">
		<path id="XMLID_1667_" class="st4" d="M-114,430.2c-0.4,0-0.8-0.1-1.2-0.4l-24-21c-0.4-0.4-1.9-2-3.6-7.5
			c-1.8-5.9,1.3-14.7,1.4-15.1c0.2-0.6,0.7-1,1.2-1.1c0.6-0.1,1.2,0,1.6,0.4l30.1,28c0.7,0.7,0.7,1.8,0.1,2.5
			c-0.7,0.7-1.8,0.7-2.5,0.1l-27.9-26.2c-0.7,2.8-1.5,7.2-0.6,10.3c1.4,4.6,2.6,5.9,2.6,5.9l23.9,21c0.7,0.6,0.8,1.7,0.2,2.5
			C-113.1,430-113.5,430.2-114,430.2z"/>
	</g>
	<g id="XMLID_1664_">
		<path id="XMLID_1665_" class="st4" d="M-77.8,461.5c-0.4,0-0.8-0.1-1.2-0.4l-34.8-30.5c-0.7-0.6-0.8-1.7-0.2-2.5
			c0.6-0.7,1.7-0.8,2.5-0.2l29.2,25.6c-0.9-2.5-1.6-5-1.6-6.8v-6.8l-17.7-15.6c-0.7-0.6-0.8-1.7-0.2-2.5c0.6-0.7,1.7-0.8,2.5-0.2
			l18.3,16.1c0.4,0.3,0.6,0.8,0.6,1.3v7.6c0,2.5,2.5,8.8,4.1,12.3c0.3,0.8,0.1,1.6-0.5,2.1C-77,461.4-77.4,461.5-77.8,461.5z"/>
	</g>
	<g id="XMLID_1662_">
		<path id="XMLID_1663_" class="st4" d="M-139.6,388.5c-0.6,0-1.2-0.3-1.5-0.8c-0.5-0.8-0.2-1.9,0.6-2.4l52.2-31.9
			c0.7-0.4,1.5-0.3,2.1,0.2l18.1,15.9c0.7,0.6,0.8,1.7,0.2,2.5c-0.6,0.7-1.7,0.8-2.5,0.2l-17.1-15.1l-51.2,31.1
			C-139,388.4-139.3,388.5-139.6,388.5z"/>
	</g>
	<g id="XMLID_1660_">
		<path id="XMLID_1661_" class="st4" d="M-82.1,440.9c-0.6,0-1.2-0.3-1.5-0.8c-0.5-0.8-0.3-1.9,0.6-2.4l52-32.5l-32-26
			c-0.8-0.6-0.9-1.7-0.3-2.5c0.6-0.8,1.7-0.9,2.5-0.3l33.9,27.5c0.4,0.4,0.7,0.9,0.6,1.5c0,0.6-0.3,1.1-0.8,1.4l-54,33.9
			C-81.4,440.9-81.7,440.9-82.1,440.9z"/>
	</g>
	<g id="XMLID_1658_">
		<path id="XMLID_1659_" class="st4" d="M-77.8,461.5c-0.6,0-1.1-0.3-1.5-0.8c-0.5-0.8-0.3-1.9,0.5-2.4l55-36.7
			c0.8-0.5,1.9-0.3,2.4,0.5c0.5,0.8,0.3,1.9-0.5,2.4l-55,36.7C-77.1,461.4-77.4,461.5-77.8,461.5z"/>
	</g>
	<g id="XMLID_1656_">
		<path id="XMLID_1657_" class="st4" d="M-77.8,445c-0.6,0-1.1-0.3-1.5-0.8c-0.5-0.8-0.3-1.9,0.5-2.4L-29,409
			c0.8-0.5,1.9-0.3,2.4,0.5c0.5,0.8,0.3,1.9-0.5,2.4l-49.7,32.8C-77.1,444.9-77.4,445-77.8,445z"/>
	</g>
	<g id="XMLID_1654_">
		<path id="XMLID_1655_" class="st4" d="M-76.5,449.1c-0.6,0-1.2-0.3-1.5-0.8c-0.5-0.8-0.3-1.9,0.6-2.4l48.5-29.8
			c0.8-0.5,1.9-0.2,2.4,0.6c0.5,0.8,0.3,1.9-0.6,2.4l-48.5,29.8C-75.9,449-76.2,449.1-76.5,449.1z"/>
	</g>
	<g id="XMLID_1652_">
		<path id="XMLID_1653_" class="st4" d="M-75.4,453.7c-0.6,0-1.1-0.3-1.5-0.8c-0.5-0.8-0.3-1.9,0.5-2.4l49.9-31.6
			c0.8-0.5,1.9-0.3,2.4,0.5c0.5,0.8,0.3,1.9-0.5,2.4l-49.9,31.6C-74.7,453.6-75,453.7-75.4,453.7z"/>
	</g>
	<g id="XMLID_1650_">
		<path id="XMLID_1651_" class="st4" d="M-114.9,431.4c-0.6,0-1.2-0.3-1.5-0.9s-0.3-1.4,0.2-2c0,0,2-2.5,3.4-6
			c0.7-1.7,1.1-4.4,1.5-7c0.5-2.8,0.9-5.5,1.7-7.2c1-2.1,4-3.4,6.6-4.1l-16.5-13.7c-0.4-0.4-0.7-0.9-0.6-1.5c0-0.6,0.4-1.1,0.9-1.4
			l31-18.4c0.7-0.4,1.5-0.3,2.1,0.2l10.2,9c0.7,0.6,0.8,1.7,0.1,2.5c-0.6,0.7-1.7,0.8-2.5,0.1l-9.2-8.2l-27.8,16.6l17.2,14.6
			c0.5,0.4,0.7,1.2,0.5,1.8s-0.8,1.2-1.5,1.2c-3.1,0.4-7,1.7-7.5,2.8c-0.6,1.2-1,3.8-1.4,6.2c-0.4,2.7-0.9,5.6-1.7,7.7
			c-0.5,1.3-1,2.4-1.6,3.4c2.9-0.7,6.2-1.7,7.9-3.3c1.7-1.5,2.1-2.7,2.7-4.4c0.5-1.4,1.1-3.1,2.6-5.1c3.1-4.2,4.5-5.4,4.7-5.6
			c0.8-0.6,1.9-0.5,2.5,0.3c0.6,0.8,0.5,1.9-0.3,2.5l0,0c0,0-1.3,1.1-4,4.8c-1.2,1.6-1.7,3-2.1,4.2c-0.6,1.8-1.3,3.6-3.6,5.7
			c-3.9,3.6-12.7,4.8-13.7,4.9C-114.8,431.4-114.9,431.4-114.9,431.4z"/>
	</g>
	<g id="XMLID_1648_">
		<path id="XMLID_1649_" class="st4" d="M-79.5,424.8c-0.4,0-0.8-0.1-1.2-0.4l-13.7-12c-0.7-0.6-0.8-1.7-0.2-2.5
			c0.6-0.7,1.7-0.8,2.5-0.2l12.7,11.1l28.5-17.1l-20.7-16.4c-0.8-0.6-0.9-1.7-0.3-2.5c0.6-0.8,1.7-0.9,2.5-0.3l22.7,18
			c0.5,0.4,0.7,0.9,0.7,1.5s-0.4,1.1-0.8,1.4l-31.8,19.1C-78.9,424.8-79.2,424.8-79.5,424.8z"/>
	</g>
	<g id="XMLID_1644_">
		<path id="XMLID_1645_" class="st4" d="M-112.6,490.1c-0.1,0-0.2,0-0.3,0c-0.5-0.1-0.9-0.4-1.2-0.8l-5.8-9.5
			c-0.5-0.8-0.3-1.8,0.5-2.4c1.6-1.1,4-3.4,3.9-4.8s-1.1-3-2.2-3.7c-0.8-0.5-1.3-0.2-1.5-0.2c-2,0.9-4.2,3.7-4.9,4.7
			c-0.3,0.5-0.8,0.7-1.4,0.8c-0.6,0-1.1-0.2-1.4-0.7l-5.4-7.1c-0.6-0.7-0.5-1.7,0.2-2.4l8.7-7.9c-2.2-2-5.6-5.7-5.4-9
			c0.1-1.1,0.6-2.6,2.5-3.7c3.9-2.3,7.4-2.8,9.8-1.4c1.2,0.7,2.7,2.1,2.8,5.1c0.1,1.3,0.1,2.4,0.2,3.2l6.8-4.6
			c0.7-0.5,1.7-0.4,2.3,0.3l5.4,5.9c0.4,0.4,0.5,1,0.4,1.5s-0.4,1-0.9,1.2c-3.2,1.6-6.2,4-6.2,5c0,0.5,0.4,1.4,1.6,2.4
			c1.5,1.2,3.4,1.9,4.7,1.6c2.4-0.5,3-1.6,3-1.6c0.2-0.6,0.8-1,1.4-1.1s1.3,0.2,1.6,0.7l5.5,7.5c0.6,0.8,0.4,1.8-0.3,2.4l-23.3,18.2
			C-111.8,490-112.2,490.1-112.6,490.1z M-116,479.3l3.9,6.5l20.3-15.7l-3.2-4.4c-0.9,0.6-2.1,1.3-3.8,1.6c-2.8,0.5-5.8-0.9-7.6-2.4
			c-1.8-1.5-2.9-3.4-2.9-5.1c0-2.8,3.6-5.5,6.1-7l-2.9-3.2l-7.8,5.3c-0.5,0.3-1,0.4-1.5,0.2c-0.5-0.2-0.9-0.6-1.1-1.1
			c-0.1-0.3-0.5-1.8-0.8-6.6c-0.1-1.1-0.4-1.9-1-2.2c-1-0.5-3.2-0.4-6.4,1.4c-0.7,0.4-0.7,0.7-0.7,0.9c-0.1,1.8,3.3,5.4,5.6,7.3
			c0.4,0.3,0.6,0.8,0.7,1.3c0,0.5-0.2,1-0.6,1.4l-9,8.2l3.1,4c1.2-1.4,3-3.1,4.9-4c1.5-0.7,3.2-0.6,4.7,0.3c2.1,1.3,3.7,3.9,3.9,6.4
			C-111.8,475.2-114.3,477.9-116,479.3z"/>
	</g>
	<g id="XMLID_1640_">
		<path id="XMLID_1641_" class="st4" d="M-154.7,464.7c-0.4,0-0.8-0.1-1.2-0.4l-21.8-19.6c-0.4-0.3-0.6-0.8-0.6-1.3s0.2-1,0.6-1.3
			l8.3-7.4c0.7-0.6,1.8-0.6,2.4,0.1c1.4,1.4,4.1,3.3,5.5,2.9c1.3-0.4,2.7-1.6,3.2-2.8c0.3-0.9,0-1.4-0.1-1.5c-1.3-1.8-4.4-3.5-5.5-4
			c-0.5-0.2-0.9-0.7-1-1.2c-0.1-0.5,0-1.1,0.4-1.5l6-6.6c0.6-0.7,1.6-0.8,2.4-0.2l9.4,7.1c1.6-2.5,4.5-6.6,7.8-7
			c1.1-0.1,2.6,0.1,4,1.7c2.9,3.5,4.1,6.8,3.2,9.4c-0.4,1.3-1.6,3-4.5,3.7c-1.3,0.3-2.3,0.6-3.1,0.8l5.7,5.8
			c0.6,0.6,0.7,1.6,0.2,2.3l-4.8,6.4c-0.3,0.4-0.8,0.7-1.4,0.7l0,0c-0.5,0-1.1-0.3-1.4-0.7c-2.2-2.8-5.1-5.4-6-5.2
			c-0.5,0.1-1.3,0.7-2.1,2.1c-0.9,1.7-1.2,3.7-0.8,4.9c0.9,2.3,2.1,2.6,2.1,2.7c0.6,0.1,1.1,0.6,1.3,1.2c0.2,0.6,0,1.3-0.4,1.7
			l-6.4,6.8C-153.8,464.5-154.3,464.7-154.7,464.7z M-173.9,443.3l19.1,17.1l3.7-4c-0.8-0.7-1.6-1.8-2.3-3.5c-1-2.7-0.2-5.8,1-7.9
			c1.2-2.1,2.8-3.5,4.5-3.8c2.8-0.5,6,2.5,8,4.8l2.6-3.4l-6.6-6.7c-0.4-0.4-0.6-0.9-0.5-1.5c0.1-0.5,0.4-1,0.9-1.3
			c0.2-0.1,1.7-0.9,6.4-2c1.1-0.3,1.8-0.7,2-1.4c0.3-1.1-0.1-3.2-2.6-6c-0.5-0.6-0.8-0.5-1-0.5c-1.8,0.2-4.7,4.2-6.1,6.9
			c-0.2,0.5-0.7,0.8-1.2,0.9s-1,0-1.4-0.3l-9.7-7.3l-3.4,3.8c1.6,0.9,3.6,2.3,4.9,4c1,1.4,1.2,3,0.5,4.7c-0.8,2.3-3.1,4.4-5.6,5
			c-2.8,0.7-5.9-1.3-7.6-2.7L-173.9,443.3z"/>
	</g>
</g>
</svg>
