<?xml version="1.0" encoding="utf-8"?>
<!-- Generator: Adobe Illustrator 19.0.0, SVG Export Plug-In . SVG Version: 6.00 Build 0)  -->
<svg version="1.1" id="Capa_1" xmlns="http://www.w3.org/2000/svg" xmlns:xlink="http://www.w3.org/1999/xlink" x="0px" y="0px"
	 viewBox="-198 318.7 198.7 205.2" style="enable-background:new -198 318.7 198.7 205.2;" xml:space="preserve">
<style type="text/css">
	.st0{opacity:0.15;}
	.st1{fill:#99C66B;}
	.st2{opacity:0.45;fill:url(#XMLID_6_);}
	.st3{fill:#FFFFFF;}
	.st4{fill:#0F4747;}
</style>
<g id="Nuevo_símbolo">
	<g id="Nuevo_símbolo_1_">
		<g id="Nuevo_símbolo_2_">
			<g id="Nuevo_símbolo_3_">
				<g id="Nuevo_símbolo_4_">
					<g id="Nuevo_símbolo_5_">
						<g id="Nuevo_símbolo_6_">
							<g id="Nuevo_símbolo_7_">
								<circle id="XMLID_5_" class="st0" cx="-98.7" cy="424.6" r="99.3"/>
								<circle id="XMLID_4_" class="st1" cx="-98.7" cy="418" r="99.3"/>
								<g id="XMLID_2_">
									
										<linearGradient id="XMLID_6_" gradientUnits="userSpaceOnUse" x1="-395.1385" y1="-295.6978" x2="-215.3646" y2="-295.6978" gradientTransform="matrix(4.489700e-011 1 -1 4.489700e-011 -394.3576 723.2827)">
										<stop  offset="0" style="stop-color:#FFFFFF"/>
										<stop  offset="0.4877" style="stop-color:#FFFFFF;stop-opacity:0"/>
									</linearGradient>
									<circle id="XMLID_3_" class="st2" cx="-98.7" cy="418" r="89.9"/>
								</g>
							</g>
							<path id="XMLID_1850_" class="st3" d="M-96.1,419.3c0,0-13.8-2-27.4,0c-13.5,2-28.7,7.3-28.7,7.3s17.1,6.9,44.4,7.1
								c27.4,0.1,42.3-2.1,47.6-3.4s7.5-4.2,7.5-4.2s-4.3-4.6-10.6-4c-6.3,0.6-12.6-2.7-12.6-2.7s-2.6,2.7-9.1,3.7
								C-91.4,423.9-96.1,419.3-96.1,419.3z"/>
							<g id="XMLID_1821_">
								<g id="XMLID_1846_">
									<path id="XMLID_1847_" class="st4" d="M-84.6,425.5c-3.1,0-7.9-1.2-11.1-4.5c-2.1-2.2-4.2-6.1-2.3-12.4
										c3.4-11.4,14-12.7,19.1-13.3c1-0.1,2-0.2,2.4-0.4c1.2-0.8,4.6-7.9,7.2-13.7c2.8-6,6-12.8,9.3-18.4c3.4-5.8,7-9,10.6-9.7
										c2.4-0.4,4.1,0.4,4.8,0.9c3.6,1.4,3.8,5.2,3.4,9.2c-0.3,3.3-8.3,13.1-23.1,30.1c-2.7,3.1-5.1,5.9-5.5,6.5
										c-1,1.4-0.4,5.9,0.3,8.5c0,0.1,0.1,0.3,0.1,0.4c0.3,12.7-12,16.1-13.4,16.5C-83.3,425.4-83.9,425.5-84.6,425.5z
										 M-48.1,356.5c-0.2,0-0.5,0-0.8,0.1c-1.8,0.4-4.6,2-8.1,8c-3.2,5.5-6.4,12.2-9.1,18.1c-5.1,10.9-7,14.8-9.3,15.5
										c-0.8,0.3-1.8,0.4-3.1,0.5c-5,0.6-13.4,1.6-16.2,10.8c-1.1,3.8-0.6,6.8,1.5,9c2.9,3,8,3.7,9.5,3.3
										c1.1-0.3,10.8-3,10.7-12.8c-0.4-1.7-1.8-8.2,0.3-11.2c0.5-0.8,2.3-2.9,5.8-6.8c6.5-7.5,21.7-25.1,22.2-28.1
										c0.5-5.1-0.6-5.4-1.3-5.7c-0.2-0.1-0.4-0.2-0.5-0.3C-46.6,356.9-47.1,356.5-48.1,356.5z"/>
								</g>
								<g id="XMLID_1844_">
									<path id="XMLID_1845_" class="st4" d="M-102.5,475.7c-1.6,0-3.3,0-5-0.1c-19.2-0.6-24.2-4.3-31.8-10
										c-1.9-1.4-3.9-2.9-6.4-4.6c-12.9-8.5-18.7-30-18.7-34.5c0-1.4,0.3-2.6,0.9-3.8c1.8-3.4,6.6-6,16.9-9.5
										c13.6-4.6,48.2-4.1,49.6-4c1,0,1.7,0.8,1.7,1.8c0,1-0.8,1.7-1.7,1.7c0,0,0,0,0,0c-0.4,0-35.4-0.6-48.5,3.9
										c-9.2,3.1-13.6,5.5-15,7.9c-0.3,0.6-0.5,1.3-0.5,2.1c0,4,5.5,23.9,17.1,31.6c2.6,1.7,4.7,3.3,6.5,4.7
										c7.3,5.5,11.6,8.8,29.8,9.3c22.8,0.7,32.3-2.8,44-16.4c11.2-13,16.4-23.7,15.4-31.8c-0.6-4.9-14.2-9-23.7-10.3
										c-1-0.1-1.6-1-1.5-2c0.1-1,1-1.6,2-1.5c2.6,0.4,25.5,3.8,26.7,13.3c1.1,9.3-4.2,20.5-16.2,34.5
										C-72.2,471.3-82.1,475.7-102.5,475.7z"/>
								</g>
								<g id="XMLID_1842_">
									<path id="XMLID_1843_" class="st4" d="M-95.7,435.6c-10.7,0-22.4-0.7-34.2-2.1c-24.2-2.9-32.6-8.2-32.9-8.4
										c-0.8-0.5-1-1.6-0.5-2.4c0.5-0.8,1.6-1,2.4-0.5c0.1,0.1,8.3,5.1,31.4,7.9c22.9,2.8,46.4,2.8,61.2,0
										c13.6-2.5,19.3-9.9,19.3-10c0.6-0.8,1.7-0.9,2.4-0.4c0.8,0.6,0.9,1.7,0.4,2.4c-0.3,0.3-6.5,8.6-21.5,11.4
										C-75.3,434.9-85,435.6-95.7,435.6z"/>
								</g>
								<g id="XMLID_1840_">
									<path id="XMLID_1841_" class="st4" d="M-153.4,428.7c-0.7,0-1.4-0.4-1.6-1.2c-0.3-0.9,0.1-1.9,1-2.2
										c0.7-0.3,18.3-6.6,31.7-8.1c13.3-1.5,26.9-0.1,27.4,0c1,0.1,1.7,1,1.6,1.9c-0.1,1-1,1.7-1.9,1.6c-0.1,0-13.7-1.4-26.7,0
										c-12.9,1.4-30.7,7.8-30.9,7.9C-153,428.7-153.2,428.7-153.4,428.7z"/>
								</g>
								<g id="XMLID_1838_">
									<path id="XMLID_1839_" class="st4" d="M-53.1,427.7c-0.7,0-1.3-0.4-1.6-1.1c0,0-0.8-1.6-3.8-2.3
										c-3.8-0.9-17.7-2.7-17.9-2.7c-1-0.1-1.6-1-1.5-2c0.1-1,1-1.6,2-1.5c0.6,0.1,14.2,1.9,18.2,2.8c4.7,1.1,6,4,6.2,4.3
										c0.4,0.9,0,1.9-0.9,2.3C-52.7,427.7-52.9,427.7-53.1,427.7z"/>
								</g>
								<g id="XMLID_1836_">
									<path id="XMLID_1837_" class="st4" d="M-100.1,487.4c-12.3,0-26.5-1.4-28.8-3.1c-0.6-0.5-0.8-1.1-0.9-1.5
										c-0.2-2,2.3-8.2,3.9-11.8c0.4-0.9,1.4-1.3,2.3-0.9c0.9,0.4,1.3,1.4,0.9,2.3c-1.5,3.4-3,7.4-3.5,9.2
										c4.8,1.4,28.3,3.3,39.3,1.3c4-1,7.3-1.9,8.6-2.4c-0.6-1.8-2.2-6.3-3.4-9.4c-0.3-0.9,0.1-1.9,1-2.2c0.9-0.3,1.9,0.1,2.2,1
										c0.6,1.6,3.5,9.5,3.8,10.6c0.5,2.3-2,3.2-3.1,3.5c-1.6,0.6-4.1,1.2-8.4,2.3c0,0-0.1,0-0.1,0
										C-89.5,487.1-94.6,487.4-100.1,487.4z"/>
								</g>
								<g id="XMLID_1834_">
									<circle id="XMLID_1835_" class="st4" cx="-106.4" cy="444.5" r="2.1"/>
								</g>
								<g id="XMLID_1832_">
									<circle id="XMLID_1833_" class="st4" cx="-97" cy="444.5" r="2.1"/>
								</g>
								<g id="XMLID_1830_">
									<path id="XMLID_1831_" class="st4" d="M-102.1,462.6c-17.6,0-23.5-11.9-23.8-12.4c-0.4-0.9,0-1.9,0.8-2.3
										c0.9-0.4,1.9,0,2.3,0.8c0.2,0.4,5.3,10.4,20.6,10.4c15.3,0,19.8-11.2,19.9-11.4c0.3-0.9,1.4-1.4,2.3-1
										c0.9,0.3,1.4,1.4,1,2.3C-79.2,449.5-84.4,462.6-102.1,462.6z"/>
								</g>
								<g id="XMLID_1826_">
									<path id="XMLID_1827_" class="st4" d="M-124.6,407.2c-0.5,0-0.9-0.2-1.2-0.5c-0.5-0.5-0.7-1.3-0.4-2c0,0,1.9-4.1,3.7-9.8
										c1.2-3.9-0.5-7.4-3.3-13.3c-0.8-1.7-1.8-3.7-2.7-5.9c-4.5-10.4,5.8-23.5,6.3-24c0.5-0.6,1.4-0.8,2.1-0.5
										c0.7,0.3,1.1,1.1,1,1.9c0,0.1-1.4,7.7-1.9,12.1c-0.2,1.5,0.2,2.3,0.9,4c1.1,2.7,2.8,6.7,3.9,16.2c2,16.9-7.3,21.4-7.7,21.5
										C-124.1,407.2-124.4,407.2-124.6,407.2z M-124.1,361.7c-1.7,3.9-2.9,8.7-1.2,12.7c0.9,2.1,1.8,4,2.6,5.7
										c1.3,2.6,2.4,5,3.1,7.2c0-0.5-0.1-0.9-0.1-1.4c-1.1-9-2.6-12.8-3.7-15.3c-0.8-1.9-1.4-3.4-1.2-5.7
										C-124.4,364-124.3,362.9-124.1,361.7z"/>
								</g>
								<g id="XMLID_1822_">
									<path id="XMLID_1823_" class="st4" d="M-109.2,395.1c-0.3,0-0.6-0.1-0.9-0.3c-0.7-0.5-1-1.4-0.7-2.2c0-0.1,2.4-5.5,3-9.3
										c0.3-2.3-0.7-5.7-2-9.8c-0.7-2.4-1.6-5.1-2.2-7.9c-1.9-8.4,8.1-17,8.5-17.3c0.6-0.5,1.5-0.5,2.1-0.1c0.6,0.4,0.9,1.3,0.7,2
										c0,0.1-1.9,5.8-2.7,11c-0.3,2.2,0.7,3.6,2,5.7c1.4,2.1,3,4.5,3.3,8c0.6,7-8.8,18.3-9.9,19.6
										C-108.2,394.9-108.7,395.1-109.2,395.1z M-106,356.4c-1.8,2.6-3.2,5.7-2.6,8.5c0.6,2.7,1.4,5.2,2.1,7.6
										c1.3,4.2,2.4,7.8,2.1,10.8c1.7-3,3-6,2.8-8.1c-0.2-2.6-1.4-4.4-2.7-6.3c-1.6-2.3-3.2-4.7-2.6-8.2
										C-106.6,359.2-106.3,357.8-106,356.4z"/>
								</g>
							</g>
						</g>
					</g>
				</g>
			</g>
		</g>
	</g>
</g>
</svg>
