<?xml version="1.0" encoding="utf-8"?>
<!-- Generator: Adobe Illustrator 19.0.0, SVG Export Plug-In . SVG Version: 6.00 Build 0)  -->
<svg version="1.1" id="Capa_1" xmlns="http://www.w3.org/2000/svg" xmlns:xlink="http://www.w3.org/1999/xlink" x="0px" y="0px"
	 viewBox="-198 318.7 198.7 205.2" style="enable-background:new -198 318.7 198.7 205.2;" xml:space="preserve">
<style type="text/css">
	.st0{opacity:0.15;}
	.st1{fill:#99C66B;}
	.st2{opacity:0.45;fill:url(#XMLID_6_);}
	.st3{fill:#FFFFFF;}
	.st4{fill:#0F4747;}
</style>
<g id="Nuevo_símbolo">
	<g id="Nuevo_símbolo_1_">
		<g id="Nuevo_símbolo_2_">
			<circle id="XMLID_5_" class="st0" cx="-98.7" cy="424.6" r="99.3"/>
			<circle id="XMLID_4_" class="st1" cx="-98.7" cy="418" r="99.3"/>
			<g id="XMLID_2_">
				
					<linearGradient id="XMLID_6_" gradientUnits="userSpaceOnUse" x1="-395.1385" y1="-295.6978" x2="-215.3646" y2="-295.6978" gradientTransform="matrix(4.489700e-011 1 -1 4.489700e-011 -394.3576 723.2827)">
					<stop  offset="0" style="stop-color:#FFFFFF"/>
					<stop  offset="0.4877" style="stop-color:#FFFFFF;stop-opacity:0"/>
				</linearGradient>
				<circle id="XMLID_3_" class="st2" cx="-98.7" cy="418" r="89.9"/>
			</g>
		</g>
		<circle id="XMLID_1619_" class="st3" cx="-104" cy="421.1" r="18.1"/>
		<polygon id="XMLID_1618_" class="st3" points="-69.2,407.6 -60.9,421.1 -72.3,436.3 -65.1,439.2 -53.5,425.5 -45.3,439.2 
			-37.6,435.6 -46.3,421.1 -34,405.5 -41.9,402.9 -53.2,415.7 -61.2,406.1 		"/>
		<g id="XMLID_1558_">
			<g id="XMLID_1614_">
				<path id="XMLID_1615_" class="st4" d="M-103.7,391.5c-11.1,0-20.1-9-20.1-20.1s9-20.1,20.1-20.1s20.1,9,20.1,20.1
					S-92.6,391.5-103.7,391.5z M-103.7,354.9c-9.1,0-16.6,7.4-16.6,16.6s7.4,16.6,16.6,16.6s16.6-7.4,16.6-16.6
					S-94.5,354.9-103.7,354.9z"/>
			</g>
			<g id="XMLID_1612_">
				<circle id="XMLID_1613_" class="st4" cx="-108.1" cy="366.1" r="1.9"/>
			</g>
			<g id="XMLID_1610_">
				<circle id="XMLID_1611_" class="st4" cx="-99" cy="366.1" r="1.9"/>
			</g>
			<g id="XMLID_1608_">
				<path id="XMLID_1609_" class="st4" d="M-104.4,382.2c-6.6,0-9.3-4.5-9.7-7c-0.2-1,0.4-1.9,1.4-2c0.9-0.2,1.9,0.4,2,1.4
					c0.1,0.5,1.1,4.5,6.9,4.2c5.8-0.3,6.3-3.6,6.4-4c0.1-0.9,1-1.6,1.9-1.6c1,0.1,1.7,0.9,1.6,1.9c-0.2,2.3-2.4,6.8-9.7,7.2
					C-103.9,382.2-104.2,382.2-104.4,382.2z"/>
			</g>
			<g id="XMLID_1604_">
				<path id="XMLID_1605_" class="st4" d="M-103.7,441.2c-11.1,0-20.1-9-20.1-20.1s9-20.1,20.1-20.1s20.1,9,20.1,20.1
					S-92.6,441.2-103.7,441.2z M-103.7,404.5c-9.1,0-16.6,7.4-16.6,16.6s7.4,16.6,16.6,16.6s16.6-7.4,16.6-16.6
					S-94.5,404.5-103.7,404.5z"/>
			</g>
			<g id="XMLID_1602_">
				<circle id="XMLID_1603_" class="st4" cx="-108.1" cy="415.7" r="1.9"/>
			</g>
			<g id="XMLID_1600_">
				<circle id="XMLID_1601_" class="st4" cx="-99" cy="415.7" r="1.9"/>
			</g>
			<g id="XMLID_1598_">
				<path id="XMLID_1599_" class="st4" d="M-104.4,431.9c-6.6,0-9.3-4.5-9.7-7c-0.2-1,0.4-1.9,1.4-2c0.9-0.2,1.9,0.4,2,1.4
					c0.1,0.5,1.1,4.5,6.9,4.2c6-0.3,6.4-4,6.4-4c0.1-1,0.9-1.7,1.9-1.6c1,0.1,1.7,0.9,1.6,1.9c-0.2,2.3-2.4,6.8-9.7,7.2
					C-103.9,431.8-104.2,431.9-104.4,431.9z"/>
			</g>
			<g id="XMLID_1577_">
				<path id="XMLID_1578_" class="st4" d="M-103.7,491.3c-11.1,0-20.1-9-20.1-20.1s9-20.1,20.1-20.1s20.1,9,20.1,20.1
					S-92.6,491.3-103.7,491.3z M-103.7,454.6c-9.1,0-16.6,7.4-16.6,16.6s7.4,16.6,16.6,16.6s16.6-7.4,16.6-16.6
					S-94.5,454.6-103.7,454.6z"/>
			</g>
			<g id="XMLID_1575_">
				<circle id="XMLID_1576_" class="st4" cx="-108.1" cy="465.8" r="1.9"/>
			</g>
			<g id="XMLID_1573_">
				<circle id="XMLID_1574_" class="st4" cx="-99" cy="465.8" r="1.9"/>
			</g>
			<g id="XMLID_1571_">
				<path id="XMLID_1572_" class="st4" d="M-104.4,482c-6.6,0-9.3-4.5-9.7-7c-0.2-1,0.4-1.9,1.4-2c0.9-0.2,1.9,0.4,2,1.4
					c0.1,0.5,1.1,4.5,6.9,4.2c6-0.3,6.4-4,6.4-4c0.1-1,0.9-1.7,1.9-1.6c1,0.1,1.7,0.9,1.6,1.9c-0.2,2.3-2.4,6.8-9.7,7.2
					C-103.9,481.9-104.2,482-104.4,482z"/>
			</g>
			<g id="XMLID_1567_">
				<path id="XMLID_1568_" class="st4" d="M-154.3,391.5c-0.1,0-0.1,0-0.2,0c-0.6-0.1-1.1-0.4-1.4-0.9l-9.4-18.3
					c-0.2-0.4-0.3-0.9-0.1-1.4c0.1-0.4,0.5-0.8,0.9-1l7.3-3.5c0.4-0.2,1-0.2,1.4,0c0.5,0.2,0.8,0.6,1,1l1.9,5.2l14.3-19
					c0.5-0.7,1.5-0.9,2.2-0.5l7,3.8c0.5,0.2,0.8,0.7,0.9,1.2c0.1,0.5,0,1-0.3,1.4l-24.2,31.5C-153.2,391.3-153.7,391.5-154.3,391.5z
					 M-161.3,372.2l7.3,14.3l21.3-27.7l-3.9-2.1l-15.3,20.4c-0.4,0.5-1,0.8-1.7,0.7c-0.6-0.1-1.2-0.5-1.4-1.1l-2.4-6.4L-161.3,372.2
					z"/>
			</g>
			<g id="XMLID_1563_">
				<path id="XMLID_1564_" class="st4" d="M-154.3,487.1c-0.1,0-0.1,0-0.2,0c-0.6-0.1-1.1-0.4-1.4-0.9l-9.4-18.3
					c-0.2-0.4-0.3-0.9-0.1-1.4c0.2-0.4,0.5-0.8,0.9-1l7.3-3.5c0.4-0.2,1-0.2,1.4,0c0.5,0.2,0.8,0.6,1,1l1.9,5.2l14.3-19
					c0.5-0.7,1.5-0.9,2.2-0.5l7,3.8c0.5,0.2,0.8,0.7,0.9,1.2c0.1,0.5,0,1-0.3,1.4l-24.2,31.5C-153.2,486.8-153.7,487.1-154.3,487.1z
					 M-161.3,467.8l7.3,14.3l21.3-27.7l-3.9-2.1l-15.3,20.4c-0.4,0.5-1,0.8-1.7,0.7c-0.6-0.1-1.2-0.5-1.4-1.1l-2.4-6.4L-161.3,467.8
					z"/>
			</g>
			<g id="XMLID_1559_">
				<path id="XMLID_1560_" class="st4" d="M-44.7,441.2c-0.6,0-1.2-0.3-1.5-0.9l-7.4-12.7l-9.7,12.8c-0.4,0.6-1.2,0.8-1.9,0.6
					l-8.7-2.5c-0.6-0.2-1-0.6-1.2-1.2s0-1.2,0.3-1.6l12.5-14.8l-9.1-13.6c-0.4-0.5-0.4-1.2-0.1-1.8c0.3-0.6,0.9-0.9,1.5-0.9h9.2
					c0.5,0,1,0.2,1.3,0.6l6.4,7.7l9.5-11.3c0.4-0.5,1.1-0.7,1.7-0.6l8.5,2c0.6,0.1,1,0.6,1.2,1.1c0.2,0.6,0.1,1.2-0.3,1.7
					l-11.9,15.4l8.3,13.6c0.3,0.4,0.3,0.9,0.2,1.4c-0.1,0.5-0.5,0.9-0.9,1.1l-7.3,3.7C-44.2,441.1-44.4,441.2-44.7,441.2z
					 M-70.3,436l4.9,1.4l10.6-14c0.4-0.5,0.9-0.7,1.5-0.7c0.6,0,1.1,0.4,1.4,0.9l7.9,13.5l4.1-2.1l-7.9-13.1c-0.4-0.6-0.3-1.4,0.1-2
					l11-14.2l-4.8-1.1l-10.1,12.1c-0.3,0.4-0.8,0.6-1.3,0.6h0c-0.5,0-1-0.2-1.3-0.6l-7.2-8.7h-5.1l8,12c0.4,0.6,0.4,1.5-0.1,2.1
					L-70.3,436z"/>
			</g>
		</g>
	</g>
</g>
</svg>
