<?xml version="1.0" encoding="utf-8"?>
<!-- Generator: Adobe Illustrator 19.0.0, SVG Export Plug-In . SVG Version: 6.00 Build 0)  -->
<svg version="1.1" id="Capa_1" xmlns="http://www.w3.org/2000/svg" xmlns:xlink="http://www.w3.org/1999/xlink" x="0px" y="0px"
	 viewBox="-198 318.7 198.7 205.2" style="enable-background:new -198 318.7 198.7 205.2;" xml:space="preserve">
<style type="text/css">
	.st0{opacity:0.15;}
	.st1{fill:#99C66B;}
	.st2{opacity:0.45;fill:url(#XMLID_6_);}
	.st3{fill:#FFFFFF;}
	.st4{fill:#0F4747;}
</style>
<g id="Nuevo_símbolo">
	<circle id="XMLID_5_" class="st0" cx="-98.7" cy="425.4" r="99.3"/>
	<circle id="XMLID_4_" class="st1" cx="-98.7" cy="418.9" r="99.3"/>
	<g id="XMLID_2_">
		
			<linearGradient id="XMLID_6_" gradientUnits="userSpaceOnUse" x1="-394.2933" y1="-295.6978" x2="-214.5194" y2="-295.6978" gradientTransform="matrix(4.489700e-011 1 -1 4.489700e-011 -394.3576 723.2827)">
			<stop  offset="0" style="stop-color:#FFFFFF"/>
			<stop  offset="0.4877" style="stop-color:#FFFFFF;stop-opacity:0"/>
		</linearGradient>
		<circle id="XMLID_3_" class="st2" cx="-98.7" cy="418.9" r="89.9"/>
	</g>
</g>
<path id="XMLID_1886_" class="st3" d="M-105.4,400.4l6.8,31.9c0,0,2.8-0.9,5.6-1.3c2.8-0.5,3.7,2.1,3.1,4.1c-0.6,2-4.2,3.1-4.2,3.1
	s1.5,2.8,1,4.9c-0.5,2.1-0.5,2.1-0.5,2.1s11.1,0.9,16.8,0.6c5.7-0.3,9.8-3.1,9.8-3.1l9.8-42.3c0,0-13,4.2-23.1,3.7
	c-10.1-0.5-21.2-3.8-21.2-3.8H-105.4z"/>
<g id="XMLID_1853_">
	<g id="XMLID_1882_">
		<path id="XMLID_1883_" class="st4" d="M-127.8,441.8c-4.6,0-7.7-2.3-8.8-3.2c-1.2-0.3-4.8-1-9.1-1.1c-5.4-0.2-18.9-2.4-25.8-8.1
			c-4.2-3.5-6.8-13.3-6-22.4c0.7-7.3,3.5-12.7,8-15.2c11.6-6.5,20.5-3.6,27.8,0c6.8,3.4,10.1,14,11,17.5c2.4,0.7,8.2,2.8,13.2,8.3
			c6.1,6.9,3.3,15.4,2.7,16.9c-0.2,1.2-1.5,4.4-8.5,6.6C-124.9,441.6-126.4,441.8-127.8,441.8z M-155.8,391.4c-3.7,0-7.6,1-12,3.5
			c-4.6,2.6-5.9,8.9-6.2,12.5c-0.8,8.6,1.8,16.9,4.7,19.4c5.8,4.8,18.3,7.1,23.7,7.3c5.6,0.2,10,1.2,10.2,1.3
			c0.3,0.1,0.6,0.2,0.8,0.5c0.2,0.2,4.1,3.9,10.2,2c5.1-1.6,6-3.6,6.1-3.9c0-0.2,0-0.3,0.1-0.5c0.1-0.3,3.1-7.7-2-13.4
			c-5.5-6.1-12.3-7.5-12.4-7.5c-0.7-0.1-1.2-0.7-1.4-1.3c0-0.1-2.9-12.9-9.4-16.2C-147.4,392.8-151.4,391.4-155.8,391.4z"/>
	</g>
	<g id="XMLID_1880_">
		<path id="XMLID_1881_" class="st4" d="M-99,449.9c-0.2,0-0.4,0-0.5,0c-1.3-0.1-3-0.7-4.4-3c-1.3-2.2-1.5-4.2-1.4-5.6l-12.4-4
			c-0.9-0.3-1.4-1.3-1.1-2.2s1.3-1.4,2.2-1.1l13.9,4.4c0.5,0.1,0.8,0.5,1,0.9c0.2,0.4,0.2,0.9,0.1,1.4c0,0.1-0.6,2,0.8,4.4
			c0.5,0.8,1.1,1.3,1.8,1.3c1,0.1,2.1-0.5,3.2-1.6c1.3-1.4-0.1-4.7-0.6-5.5c-0.3-0.5-0.3-1.2,0-1.7c0.3-0.5,0.9-0.9,1.5-0.9
			c0,0,1.9,0,3.4-1.1c0.3-0.2,0.5-0.6,0.4-0.9c-0.1-0.6-0.7-1.2-1.7-1.5c-1.8-0.6-4.9,1.6-6.1,2.7c-0.5,0.5-1.2,0.6-1.8,0.3l-15-6.1
			c-0.9-0.4-1.3-1.4-1-2.3c0.4-0.9,1.4-1.3,2.3-1l14,5.7c1.7-1.3,5.5-3.8,8.8-2.7c2.3,0.8,3.8,2.4,4.1,4.3c0.3,1.7-0.4,3.3-1.8,4.3
			c-1,0.7-2,1.1-2.9,1.4c0.7,2.1,1.2,5.2-0.9,7.4C-95.1,448.9-97.1,449.9-99,449.9z"/>
	</g>
	<g id="XMLID_1876_">
		<path id="XMLID_1877_" class="st4" d="M-98.9,435.1c-0.8,0-1.6-0.6-1.7-1.5l-9-53.8c0-0.2,0-0.3,0-0.5c0-0.1,0-0.1,0-0.2
			c0-5.1,5.9-9,15.9-10.5c12.8-2,27,0.4,35.2,3c5,1.6,6.1,4.1,6.2,5.9c0.1,3.3-3.1,6.1-6.1,7.4c-4.2,1.7-15,4-25,3.5
			c-7.1-0.4-17.2-4.1-22.2-6.1l8.5,50.6c0.2,1-0.5,1.9-1.4,2C-98.7,435.1-98.8,435.1-98.9,435.1z M-106,378.5
			c3.7,1.5,15.4,6.2,22.8,6.6c9.1,0.5,19.4-1.5,23.4-3.2c2.1-0.9,4-2.8,3.9-4c0-1-1.4-2-3.8-2.7c-8.5-2.7-22.2-4.7-33.6-2.9
			C-100.3,373.3-105.2,375.8-106,378.5z"/>
	</g>
	<g id="XMLID_1874_">
		<path id="XMLID_1875_" class="st4" d="M-82.7,448.7c-7.4,0-11.9-2.3-12.1-2.4c-0.9-0.4-1.2-1.5-0.7-2.4c0.4-0.9,1.5-1.2,2.4-0.7
			c0.1,0,4.4,2.2,11.2,2c5.7-0.1,11.6-2.1,13.8-2.9l12.3-63.9c0.2-0.9,1.1-1.6,2-1.4c0.9,0.2,1.6,1.1,1.4,2l-12.5,64.8
			c-0.1,0.6-0.5,1.1-1.1,1.3c-0.3,0.1-8.2,3.3-15.9,3.4C-82.1,448.7-82.4,448.7-82.7,448.7z"/>
	</g>
	<g id="XMLID_1872_">
		<path id="XMLID_1873_" class="st4" d="M-83.1,406.3c-10.1,0-21.8-5.6-22.3-5.9c-0.9-0.4-1.2-1.5-0.8-2.3c0.4-0.9,1.5-1.2,2.3-0.8
			c0.1,0.1,12.2,5.8,21.6,5.5c9.5-0.3,23.6-5.5,23.7-5.6c0.9-0.3,1.9,0.1,2.3,1c0.3,0.9-0.1,1.9-1,2.3c-0.6,0.2-14.7,5.5-24.8,5.8
			C-82.5,406.3-82.8,406.3-83.1,406.3z"/>
	</g>
	<g id="XMLID_1870_">
		<path id="XMLID_1871_" class="st4" d="M-85.4,406.2C-85.4,406.2-85.5,406.2-85.4,406.2c-1,0-1.8-0.8-1.8-1.8
			c0.1-1.7,1.3-42.2,1.8-47.6c0.2-1.9,1.3-3.8,3.2-5.3c3.8-3.1,10.7-5,16.2-4.4c0,0,0.1,0,0.1,0c0.7,0.1,1.4,0.6,1.8,1.2
			c1.2,1.9,0.1,5.9-0.4,7.5c-0.3,0.8-1.1,1.3-1.9,1.2c0,0-3.9-0.6-6.5,1.4c-1.4,1.1-2.2,2.7-2.4,4.9c-1,9.2-1.5,40.7-1.5,41
			c0,1-0.8,1.7-1.7,1.7c0,0,0,0,0,0c-1,0-1.7-0.8-1.7-1.8c0-1.3,0.5-32,1.5-41.3c0.4-3.2,1.6-5.6,3.8-7.3c2.6-2,5.7-2.2,7.6-2.2
			c0.3-1.2,0.4-2.3,0.4-2.9c-4.4-0.2-10,1.4-12.9,3.7c-0.8,0.7-1.8,1.7-1.9,3c-0.5,5.3-1.8,46.9-1.8,47.4
			C-83.7,405.5-84.5,406.2-85.4,406.2z"/>
	</g>
	<g id="XMLID_1866_">
		<path id="XMLID_1867_" class="st4" d="M-111.6,479.7c-0.8,0-1.5,0-2.2,0c-14.6-0.2-22.2-2-24.3-3.6c-0.9-0.7-1.4-1.6-1.3-2.6
			c0.1-2,2.1-4.4,11.2-9.2c8.6-4.7,27.6-9.1,50.8-11.9c14.2-1.7,17.3,0.3,18.4,1.9c0.4,0.6,0.6,1.2,0.5,1.8c0.8,1.3,2.5,4.5,3.1,9.4
			c1.1,8.3-6.7,10.5-10,11.5C-70.4,478.5-97.3,479.7-111.6,479.7z M-135.8,473.5c1.7,0.8,8,2.6,22,2.7c14.1,0.1,42.9-1.2,47.4-2.5
			c6-1.7,8-3.8,7.5-7.7c-0.7-5.4-2.9-8.4-2.9-8.4c-0.3-0.4-0.4-0.9-0.3-1.4c-0.6-0.4-3.5-1.6-14.9-0.2c-22.7,2.7-41.3,7-49.5,11.5
			C-133.3,471-135.2,472.8-135.8,473.5z"/>
	</g>
	<g id="XMLID_1864_">
		<path id="XMLID_1865_" class="st4" d="M-43.5,475.6c-1.5,0-3.3-0.5-5.4-1.5c-6-2.9-8.6-3.5-8.6-3.6c-0.9-0.2-1.5-1.2-1.3-2.1
			c0.2-0.9,1.1-1.5,2.1-1.3c0.1,0,2.9,0.7,9.3,3.8c2.9,1.4,4.3,1.3,4.7,1c0.2-0.2,0.3-0.7,0.2-1.2c-0.4-0.8-3.8-2.3-7.1-3.2
			c-0.8-0.2-1.4-1-1.3-1.9c0.1-0.9,0.8-1.5,1.7-1.5c0.1,0,3-0.1,5.8,0c0.9,0,1.6-0.5,1.8-1c0.2-0.3,0.3-0.8,0.1-1.3
			c-1.1-0.7-6.8-0.9-12.3-0.4c-0.9,0.1-1.7-0.5-1.9-1.3c-0.2-0.8,0.3-1.7,1.1-2c0,0,4-1.5,7.6-3.1c3-1.2,4.1-3.9,3.7-5.4
			c-0.9-0.5-4.7,0.4-6.9,0.9l-1.4,0.3c-3.4,0.7-6.3,5-7.1,6.6c-0.4,0.9-1.5,1.2-2.4,0.7c-0.9-0.4-1.2-1.5-0.7-2.4
			c0.2-0.3,3.8-7.2,9.5-8.4l1.4-0.3c5-1.1,10.1-2.3,11.1,1.6c0.7,2.9-0.9,6.9-4.7,9c2.9,0.2,5.2,0.9,6,2.2c0.9,1.5,1,3.4,0,5
			c-0.6,1.1-1.6,1.9-2.7,2.4c1.2,0.8,2,1.7,2.2,2.8c0.4,1.9-0.1,3.7-1.4,4.7C-41.4,475.3-42.3,475.6-43.5,475.6z"/>
	</g>
	<g id="XMLID_1862_">
		<path id="XMLID_1863_" class="st4" d="M-120.7,470.2c-0.7,0-1.3-0.4-1.6-1c-0.3-0.5-2.5-1.7-4.4-2.3c-0.9-0.3-1.4-1.3-1.1-2.2
			c0.3-0.9,1.3-1.4,2.2-1.1c1.6,0.5,5.5,2,6.5,4.2c0.4,0.9,0,1.9-0.9,2.3C-120.2,470.2-120.5,470.2-120.7,470.2z"/>
	</g>
	<g id="XMLID_1860_">
		<path id="XMLID_1861_" class="st4" d="M-103.4,470.2c-0.4,0-0.9-0.2-1.2-0.5c-0.4-0.3-3.5-3.5-4.5-5.3c-0.4-0.7-2.1-1.6-3.3-2
			c-0.9-0.3-1.4-1.3-1.1-2.2c0.3-0.9,1.3-1.4,2.2-1.1c0.7,0.2,4,1.5,5.2,3.7c0.6,1.1,2.7,3.3,3.9,4.5c0.7,0.7,0.7,1.8,0,2.5
			C-102.5,470.1-102.9,470.2-103.4,470.2z"/>
	</g>
	<g id="XMLID_1858_">
		<path id="XMLID_1859_" class="st4" d="M-90.9,468.6c-0.7,0-1.4-0.4-1.6-1.1c-0.8-2-2.4-5.2-3.5-6c-1.6-1.1-3.9-2.3-3.9-2.3
			c-0.9-0.4-1.2-1.5-0.8-2.3c0.4-0.9,1.5-1.2,2.3-0.8c0.1,0.1,2.5,1.3,4.4,2.6c2.4,1.7,4.4,6.7,4.8,7.7c0.3,0.9-0.1,1.9-1,2.3
			C-90.5,468.6-90.7,468.6-90.9,468.6z"/>
	</g>
	<g id="XMLID_1856_">
		<path id="XMLID_1857_" class="st4" d="M-77.4,467.5c-0.6,0-1.2-0.3-1.5-0.9c-0.6-1-2.3-3.7-3.3-4.7c-1.1-1.1-4.9-3.9-6.2-4.9
			c-0.8-0.6-1-1.7-0.4-2.4c0.6-0.8,1.7-1,2.4-0.4c0.5,0.4,5.2,3.8,6.7,5.4c1.5,1.6,3.6,5,3.8,5.4c0.5,0.8,0.2,1.9-0.6,2.4
			C-76.8,467.5-77.1,467.5-77.4,467.5z"/>
	</g>
	<g id="XMLID_1854_">
		<path id="XMLID_1855_" class="st4" d="M-66.2,464c-0.2,0-0.5,0-0.7-0.1c-0.9-0.4-1.3-1.4-0.9-2.3c0.1-0.4-0.6-1.7-1.7-2.7
			c-1.5-1.3-4-3.8-4.1-3.9c-0.7-0.7-0.7-1.8,0-2.5s1.8-0.7,2.5,0c0,0,2.5,2.5,3.9,3.7c1.4,1.2,3.7,4.1,2.6,6.6
			C-64.9,463.5-65.6,464-66.2,464z"/>
	</g>
</g>
</svg>
