<?xml version="1.0" encoding="utf-8"?>
<!-- Generator: Adobe Illustrator 19.0.0, SVG Export Plug-In . SVG Version: 6.00 Build 0)  -->
<svg version="1.1" id="Capa_1" xmlns="http://www.w3.org/2000/svg" xmlns:xlink="http://www.w3.org/1999/xlink" x="0px" y="0px"
	 viewBox="-198 318.7 198.7 205.2" style="enable-background:new -198 318.7 198.7 205.2;" xml:space="preserve">
<style type="text/css">
	.st0{opacity:0.15;}
	.st1{fill:#99C66B;}
	.st2{opacity:0.45;fill:url(#XMLID_6_);}
	.st3{fill:#FFFFFF;}
	.st4{fill:#0F4747;}
</style>
<g id="Nuevo_símbolo">
	<g id="Nuevo_símbolo_1_">
		<g id="Nuevo_símbolo_2_">
			<g id="Nuevo_símbolo_3_">
				<circle id="XMLID_5_" class="st0" cx="-98.7" cy="424.6" r="99.3"/>
				<circle id="XMLID_4_" class="st1" cx="-98.7" cy="418" r="99.3"/>
				<g id="XMLID_2_">
					
						<linearGradient id="XMLID_6_" gradientUnits="userSpaceOnUse" x1="-395.1385" y1="-295.6978" x2="-215.3646" y2="-295.6978" gradientTransform="matrix(4.489700e-011 1 -1 4.489700e-011 -394.3576 723.2827)">
						<stop  offset="0" style="stop-color:#FFFFFF"/>
						<stop  offset="0.4877" style="stop-color:#FFFFFF;stop-opacity:0"/>
					</linearGradient>
					<circle id="XMLID_3_" class="st2" cx="-98.7" cy="418" r="89.9"/>
				</g>
			</g>
			<circle id="XMLID_2737_" class="st3" cx="-63" cy="449.9" r="29.6"/>
			<g id="XMLID_2706_">
				<g id="XMLID_2733_">
					<path id="XMLID_2734_" class="st4" d="M-94.2,412.1c-17.4,0-31.6-14.2-31.6-31.6s14.2-31.6,31.6-31.6s31.6,14.2,31.6,31.6
						S-76.8,412.1-94.2,412.1z M-94.2,352.5c-15.5,0-28.1,12.6-28.1,28.1c0,15.5,12.6,28.1,28.1,28.1s28.1-12.6,28.1-28.1
						C-66.1,365.1-78.7,352.5-94.2,352.5z"/>
				</g>
				<g id="XMLID_2729_">
					<path id="XMLID_2730_" class="st4" d="M-134.3,477.8c-17.4,0-31.6-14.2-31.6-31.6s14.2-31.6,31.6-31.6s31.6,14.2,31.6,31.6
						S-116.9,477.8-134.3,477.8z M-134.3,418.1c-15.5,0-28.1,12.6-28.1,28.1s12.6,28.1,28.1,28.1s28.1-12.6,28.1-28.1
						S-118.8,418.1-134.3,418.1z"/>
				</g>
				<g id="XMLID_2725_">
					<path id="XMLID_2726_" class="st4" d="M-63,481.1c-17.4,0-31.6-14.2-31.6-31.6s14.2-31.6,31.6-31.6s31.6,14.2,31.6,31.6
						S-45.6,481.1-63,481.1z M-63,421.4c-15.5,0-28.1,12.6-28.1,28.1s12.6,28.1,28.1,28.1s28.1-12.6,28.1-28.1S-47.5,421.4-63,421.4
						z"/>
				</g>
				<g id="XMLID_2723_">
					<path id="XMLID_2724_" class="st4" d="M-78.9,391.6h-29.5c-1,0-1.8-0.8-1.8-1.8s0.8-1.8,1.8-1.8h29.5c1,0,1.8,0.8,1.8,1.8
						S-78,391.6-78.9,391.6z"/>
				</g>
				<g id="XMLID_2721_">
					<path id="XMLID_2722_" class="st4" d="M-149.1,463.5c-0.2,0-0.4,0-0.6-0.1c-0.9-0.3-1.4-1.4-1-2.3c0.2-0.5,4.7-12,16.3-12
						c11.6,0,15.7,10.7,15.8,11.2c0.3,0.9-0.1,1.9-1,2.2c-0.9,0.3-1.9-0.1-2.2-1c-0.1-0.4-3.4-8.9-12.6-8.9c-9.2,0-13,9.6-13.1,9.7
						C-147.7,463-148.4,463.5-149.1,463.5z"/>
				</g>
				<g id="XMLID_2719_">
					<path id="XMLID_2720_" class="st4" d="M-62.2,467c-14.2,0-17-13.2-17-13.3c-0.2-0.9,0.4-1.9,1.4-2.1c0.9-0.2,1.9,0.4,2.1,1.4
						c0.1,0.5,2.5,11.1,14.6,10.5c12.2-0.6,13-11,13-11.4c0.1-1,0.9-1.7,1.9-1.6c1,0.1,1.7,0.9,1.6,1.9c0,0.1-1.1,13.9-16.4,14.7
						C-61.5,467-61.9,467-62.2,467z"/>
				</g>
				<g id="XMLID_2717_">
					<circle id="XMLID_2718_" class="st4" cx="-141.4" cy="436.3" r="3"/>
				</g>
				<g id="XMLID_2715_">
					<circle id="XMLID_2716_" class="st4" cx="-126.9" cy="435.8" r="3"/>
				</g>
				<g id="XMLID_2713_">
					<circle id="XMLID_2714_" class="st4" cx="-70.2" cy="441.2" r="3"/>
				</g>
				<g id="XMLID_2711_">
					<circle id="XMLID_2712_" class="st4" cx="-55.7" cy="440.7" r="3"/>
				</g>
				<g id="XMLID_2709_">
					<circle id="XMLID_2710_" class="st4" cx="-100.5" cy="374.3" r="3"/>
				</g>
				<g id="XMLID_2707_">
					<circle id="XMLID_2708_" class="st4" cx="-85.9" cy="373.8" r="3"/>
				</g>
			</g>
		</g>
	</g>
</g>
</svg>
