<?xml version="1.0" encoding="utf-8"?>
<!-- Generator: Adobe Illustrator 19.0.0, SVG Export Plug-In . SVG Version: 6.00 Build 0)  -->
<svg version="1.1" id="Capa_1" xmlns="http://www.w3.org/2000/svg" xmlns:xlink="http://www.w3.org/1999/xlink" x="0px" y="0px"
	 viewBox="-198 318.7 198.7 205.2" style="enable-background:new -198 318.7 198.7 205.2;" xml:space="preserve">
<style type="text/css">
	.st0{opacity:0.15;}
	.st1{fill:#99C66B;}
	.st2{opacity:0.45;fill:url(#XMLID_6_);}
	.st3{fill:#FFFFFF;}
	.st4{fill:#0F4747;}
</style>
<g id="Nuevo_símbolo">
	<g id="Nuevo_símbolo_1_">
		<circle id="XMLID_5_" class="st0" cx="-98.7" cy="424.6" r="99.3"/>
		<circle id="XMLID_4_" class="st1" cx="-98.7" cy="418" r="99.3"/>
		<g id="XMLID_2_">
			
				<linearGradient id="XMLID_6_" gradientUnits="userSpaceOnUse" x1="-395.1385" y1="-295.6978" x2="-215.3646" y2="-295.6978" gradientTransform="matrix(4.489700e-011 1 -1 4.489700e-011 -394.3576 723.2827)">
				<stop  offset="0" style="stop-color:#FFFFFF"/>
				<stop  offset="0.4877" style="stop-color:#FFFFFF;stop-opacity:0"/>
			</linearGradient>
			<circle id="XMLID_3_" class="st2" cx="-98.7" cy="418" r="89.9"/>
		</g>
	</g>
	<polygon id="XMLID_2703_" class="st3" points="-135.5,408.3 -159.3,408.9 -159,424.4 -134.6,424.2 -134.1,433.2 -113.1,414.2 
		-135.6,395.4 	"/>
	<g id="XMLID_2686_">
		<g id="XMLID_2701_">
			<path id="XMLID_2702_" class="st4" d="M-133.6,461.1c-1,0-1.7-0.8-1.8-1.7l-0.4-35c0-1,0.8-1.8,1.7-1.8c0,0,0,0,0,0
				c1,0,1.7,0.8,1.8,1.7l0.4,35C-131.8,460.3-132.6,461.1-133.6,461.1C-133.6,461.1-133.6,461.1-133.6,461.1z"/>
		</g>
		<g id="XMLID_2699_">
			<path id="XMLID_2700_" class="st4" d="M-132.8,433.7c-0.5,0-1-0.2-1.3-0.6c-0.6-0.7-0.6-1.8,0.1-2.5l18.5-16.6l-18.2-14.7
				l0.3,8.7c0,0.5-0.2,0.9-0.5,1.3c-0.3,0.3-0.8,0.5-1.2,0.5l-22.3,0.6v11.9l22.4-0.4c1,0,1.8,0.8,1.8,1.7s-0.8,1.8-1.7,1.8
				L-159,426c-0.5,0-0.9-0.2-1.3-0.5c-0.3-0.3-0.5-0.8-0.5-1.2v-15.4c0-0.9,0.8-1.7,1.7-1.7l22.2-0.6l-0.4-10.8c0-0.7,0.4-1.3,1-1.6
				c0.6-0.3,1.3-0.2,1.9,0.2l22.7,18.4c0.4,0.3,0.6,0.8,0.6,1.3c0,0.5-0.2,1-0.6,1.3l-20,17.9C-131.9,433.6-132.3,433.7-132.8,433.7
				z"/>
		</g>
		<g id="XMLID_2695_">
			<path id="XMLID_2696_" class="st4" d="M-100,490.5c-0.3,0-0.5-0.1-0.8-0.2c-0.6-0.3-1-0.9-1-1.6l0.2-95.3c0-0.5,0.2-1,0.6-1.3
				l37.4-33l-70.5,0.4l0.4,36.2c0,1-0.8,1.8-1.7,1.8c0,0,0,0,0,0c-1,0-1.7-0.8-1.8-1.7l-0.4-38c0-0.5,0.2-0.9,0.5-1.2
				c0.3-0.3,0.8-0.5,1.2-0.5l76.9-0.4c0.5,0,1,0.2,1.3,0.6c0,0,0,0,0,0h0c0,0,0,0,0,0c0,0,0,0,0,0c0.3,0.3,0.4,0.7,0.4,1.1
				l-0.2,101.1c0,0.6-0.3,1.1-0.7,1.4L-99,490.1C-99.3,490.4-99.6,490.5-100,490.5z M-98.1,394.2l-0.2,91l37.4-27.6l0.2-96.4
				L-98.1,394.2z"/>
		</g>
		<g id="XMLID_2693_">
			<path id="XMLID_2694_" class="st4" d="M-169.9,462.1c-1,0-1.7-0.8-1.8-1.7c0-1,0.8-1.8,1.7-1.8l69.2-0.6c0,0,0,0,0,0
				c1,0,1.7,0.8,1.8,1.7c0,1-0.8,1.8-1.7,1.8L-169.9,462.1C-169.9,462.1-169.9,462.1-169.9,462.1z"/>
		</g>
		<g id="XMLID_2691_">
			<path id="XMLID_2692_" class="st4" d="M-27.4,460.9C-27.5,460.9-27.5,460.9-27.4,460.9l-30.9-0.2c-1,0-1.7-0.8-1.7-1.8
				c0-1,0.8-1.7,1.8-1.7h0l30.9,0.2c1,0,1.7,0.8,1.7,1.8C-25.7,460.1-26.5,460.9-27.4,460.9z"/>
		</g>
		<g id="XMLID_2687_">
			<path id="XMLID_2688_" class="st4" d="M-87.6,435.8c-2.5,0-4.3-3-4.3-7.1c0-4.1,1.8-7.1,4.3-7.1s4.3,3,4.3,7.1
				C-83.2,432.8-85.1,435.8-87.6,435.8z M-87.6,425.2c-0.3,0.5-0.8,1.7-0.8,3.5s0.5,3,0.8,3.5c0.3-0.5,0.8-1.7,0.8-3.5
				S-87.2,425.7-87.6,425.2z"/>
		</g>
	</g>
</g>
</svg>
