<?xml version="1.0" encoding="utf-8"?>
<!-- Generator: Adobe Illustrator 19.0.0, SVG Export Plug-In . SVG Version: 6.00 Build 0)  -->
<svg version="1.1" id="Capa_1" xmlns="http://www.w3.org/2000/svg" xmlns:xlink="http://www.w3.org/1999/xlink" x="0px" y="0px"
	 viewBox="-198 318.7 198.7 205.2" style="enable-background:new -198 318.7 198.7 205.2;" xml:space="preserve">
<style type="text/css">
	.st0{opacity:0.15;}
	.st1{fill:#99C66B;}
	.st2{opacity:0.45;fill:url(#XMLID_6_);}
	.st3{fill:#FFFFFF;}
	.st4{fill:#0F4747;}
</style>
<g id="Nuevo_símbolo">
	<g id="Nuevo_símbolo_1_">
		<circle id="XMLID_5_" class="st0" cx="-98.7" cy="424.6" r="99.3"/>
		<circle id="XMLID_4_" class="st1" cx="-98.7" cy="418" r="99.3"/>
		<g id="XMLID_2_">
			
				<linearGradient id="XMLID_6_" gradientUnits="userSpaceOnUse" x1="-395.1385" y1="-295.6978" x2="-215.3646" y2="-295.6978" gradientTransform="matrix(4.489700e-011 1 -1 4.489700e-011 -394.3576 723.2827)">
				<stop  offset="0" style="stop-color:#FFFFFF"/>
				<stop  offset="0.4877" style="stop-color:#FFFFFF;stop-opacity:0"/>
			</linearGradient>
			<circle id="XMLID_3_" class="st2" cx="-98.7" cy="418" r="89.9"/>
		</g>
	</g>
	<circle id="XMLID_2318_" class="st3" cx="-47" cy="408.3" r="14.9"/>
	<g id="XMLID_2289_">
		<g id="XMLID_2314_">
			<path id="XMLID_2315_" class="st4" d="M-139.4,475.6c-0.5,0-1-0.2-1.3-0.6c-0.6-0.7-15.6-18.4-13.1-29.2c1.2-5.1,4.9-8.2,9.4-7.9
				c3.4,0.2,7.2,2.7,8.8,7.4c2.5-2.7,6.7-5.9,10.6-3.6c2.8,1.6,4.6,4.1,5,7c0.5,4.1-1.7,8.5-6.5,13.2c-8.5,8.2-11.2,12.9-11.3,12.9
				c-0.3,0.5-0.8,0.8-1.4,0.9C-139.3,475.6-139.4,475.6-139.4,475.6z M-145.1,441.3c-2.6,0-4.6,2-5.3,5.2
				c-1.6,6.8,6.4,18.6,10.9,24.4c1.6-2.2,4.8-6.1,10.5-11.6c3.9-3.8,5.8-7.3,5.5-10.2c-0.3-2.3-1.9-3.6-3.2-4.4
				c-2.5-1.4-6.7,3.1-8.4,5.5c-0.4,0.6-1.2,0.9-1.9,0.7c-0.7-0.2-1.2-0.8-1.3-1.5c-0.4-5.2-3.6-7.8-6.4-8
				C-144.9,441.3-145,441.3-145.1,441.3z"/>
		</g>
		<g id="XMLID_2310_">
			<path id="XMLID_2311_" class="st4" d="M-141.9,370.2c-0.8,0-1.8-0.3-2.9-1.3c-2-1.8-4-5.8-3.6-7.9c0.5-2.4,4.6-4.3,6.8-4.8
				c1.8-0.4,3.1-0.1,3.8,0.9c0,0,0,0,0,0c1.6,2.2,1.9,5.2,0.9,8.2c-0.7,1.9-2.2,4.3-4.2,4.9C-141.4,370.2-141.6,370.2-141.9,370.2z
				 M-144.9,361.7c0.1,1.2,1.9,4.5,3,5c0.4-0.2,1.3-1.2,1.8-2.8c0.3-1,0.7-2.8-0.2-4.3C-141.5,359.6-144.3,360.9-144.9,361.7z"/>
		</g>
		<g id="XMLID_2306_">
			<path id="XMLID_2307_" class="st4" d="M-108.4,370.1c-3.1,0-6.4-2.5-8.7-4.8c-0.8-0.7-1-1.8-0.8-2.9c0.7-3.3,6-7.6,8.3-8.5
				c0.5-0.2,1-0.1,1.4,0.1c0.6,0.3,5.7,2.9,7.2,6c0.7,1.4,0.6,3.1-0.3,4.9c-1.3,2.5-4,4.8-6.3,5.1
				C-107.8,370-108.1,370.1-108.4,370.1z M-114.4,363c2.5,2.4,5,3.8,6.4,3.5c1.1-0.2,2.9-1.6,3.7-3.3c0.4-0.7,0.5-1.4,0.3-1.7
				c-0.7-1.4-3.2-3.1-4.9-4.1C-111,358.7-114.1,361.7-114.4,363z"/>
		</g>
		<g id="XMLID_2304_">
			<path id="XMLID_2305_" class="st4" d="M-113.4,433.5c-0.9,0-1.8-0.1-2.7-0.3c-5-1-14.8-9.2-29.1-22.2
				c-8.9-8.1-13.8-17.4-13.9-26.2c0-2,5.5-12.6,10.1-21.2c0.5-0.8,1.5-1.2,2.4-0.7c0.9,0.5,1.2,1.5,0.7,2.4
				c-4.5,8.3-9.3,17.9-9.7,19.5c0.1,7.9,4.6,16.3,12.7,23.6c11,10,22.9,20.4,27.4,21.3c3.3,0.7,7.1,1.4,14.7-16.1
				c12-27.5,12.1-35.5,11.1-37.9c-1.7-3.9-10-9.1-13.1-10.7c-0.8-0.5-1.2-1.5-0.7-2.4c0.5-0.8,1.5-1.2,2.4-0.7
				c1.2,0.7,12.2,6.7,14.6,12.4c1.4,3.3,1.8,11-11.1,40.7C-103.8,429.6-108.1,433.5-113.4,433.5z"/>
		</g>
		<g id="XMLID_2302_">
			<path id="XMLID_2303_" class="st4" d="M-113.9,428.2c-4.9,0-12.6-7.4-25.3-19.9c-11.1-10.9-12.6-13.9-14.2-19.7
				c-1.5-5.7,6.7-18.3,8.3-20.8c0.5-0.8,1.6-1,2.4-0.5s1,1.6,0.5,2.4c-3.8,5.6-8.7,14.9-7.8,17.9c1.3,4.9,2.3,7.3,13.3,18.1
				c8.9,8.7,19.9,19.6,23.1,18.9c1.7-0.4,6.5-6.3,13.7-25.9c0.8-2.2,1.6-4.2,2.3-6.1c3.1-8.2,5.3-14.1,3.6-16.1
				c-2.8-3.1-10.4-8.4-10.5-8.5c-0.8-0.6-1-1.6-0.4-2.4c0.6-0.8,1.6-1,2.4-0.4c0.3,0.2,8,5.6,11.1,9.1c3.2,3.6,1,9.3-2.9,19.7
				c-0.7,1.9-1.5,3.9-2.3,6.1c-6.5,17.7-11.9,27.1-16.2,28.1C-113.2,428.2-113.5,428.2-113.9,428.2z"/>
		</g>
		<g id="XMLID_2300_">
			<path id="XMLID_2301_" class="st4" d="M-81.1,479.1c-7.4,0-14.3-1.9-19-5.4c-12.2-9-17.8-38.8-18-40.1c-0.2-1,0.5-1.9,1.4-2
				c0.9-0.2,1.9,0.5,2,1.4c0.1,0.3,5.5,29.7,16.6,37.9c5.6,4.1,14.6,5.7,23.6,4.2c7.7-1.3,13.8-4.6,16.9-9
				c9.1-13.2,10.3-27,10.5-30.9c0.4-8.3,0.4-9.6,0.4-9.6c0-1,0.9-1.8,1.8-1.7c1,0,1.7,0.9,1.7,1.8c0,0,0,1.2-0.4,9.6
				c-0.2,4.1-1.5,18.7-11.1,32.7c-3.6,5.2-10.5,9-19.2,10.5C-76.3,478.9-78.7,479.1-81.1,479.1z"/>
		</g>
		<g id="XMLID_2296_">
			<path id="XMLID_2297_" class="st4" d="M-47.1,426c-8.4,0-15.6-6.4-16.5-14.9l0,0c-0.9-9.1,5.7-17.2,14.8-18.2
				c9.1-0.9,17.2,5.7,18.2,14.8c0.4,4.4-0.8,8.7-3.6,12.2c-2.8,3.4-6.8,5.6-11.2,6C-46,425.9-46.5,426-47.1,426z M-60.1,410.7
				c0.7,7.2,7.2,12.4,14.3,11.7c3.5-0.4,6.6-2,8.8-4.8c2.2-2.7,3.2-6.1,2.9-9.6c-0.4-3.5-2-6.6-4.8-8.8c-2.7-2.2-6.1-3.2-9.6-2.9
				C-55.6,397.1-60.8,403.5-60.1,410.7L-60.1,410.7z"/>
		</g>
		<g id="XMLID_2292_">
			<path id="XMLID_2293_" class="st4" d="M-47.1,418.7c-4.7,0-8.8-3.6-9.3-8.4c-0.5-5.1,3.2-9.7,8.3-10.2c5.1-0.5,9.7,3.2,10.2,8.3
				c0.5,5.1-3.2,9.7-8.3,10.2C-46.5,418.7-46.8,418.7-47.1,418.7z M-47.1,403.6c-0.2,0-0.4,0-0.6,0c-3.2,0.3-5.5,3.2-5.2,6.4l0,0
				c0.3,3.2,3.2,5.5,6.4,5.2c3.2-0.3,5.5-3.2,5.2-6.4C-41.6,405.8-44.1,403.6-47.1,403.6z"/>
		</g>
		<g id="XMLID_2290_">
			<path id="XMLID_2291_" class="st4" d="M-82.3,473.1c-4.6,0-9.3-0.9-13.2-3.1c-10.3-5.9-17.6-36.1-17.9-37.3
				c-0.2-0.9,0.4-1.9,1.3-2.1c0.9-0.2,1.9,0.4,2.1,1.3c2,8.3,8.8,30.8,16.2,35.1c8.8,5.1,23.4,1.8,28.1-1.6
				c4.6-3.3,11.8-14.2,12.7-23.5c0.9-9.5-0.1-17.6-0.1-17.6c-0.1-1,0.6-1.8,1.5-2c1-0.1,1.8,0.6,2,1.5c0,0.3,1,8.5,0.1,18.4
				c-1,10.5-8.9,22.2-14.1,26C-66.9,470.6-74.5,473.1-82.3,473.1z"/>
		</g>
	</g>
</g>
</svg>
