<?xml version="1.0" encoding="utf-8"?>
<!-- Generator: Adobe Illustrator 19.0.0, SVG Export Plug-In . SVG Version: 6.00 Build 0)  -->
<svg version="1.1" id="Capa_1" xmlns="http://www.w3.org/2000/svg" xmlns:xlink="http://www.w3.org/1999/xlink" x="0px" y="0px"
	 viewBox="-198 318.7 198.7 205.2" style="enable-background:new -198 318.7 198.7 205.2;" xml:space="preserve">
<style type="text/css">
	.st0{opacity:0.15;}
	.st1{fill:#99C66B;}
	.st2{opacity:0.45;fill:url(#XMLID_6_);}
	.st3{fill:#FFFFFF;}
	.st4{fill:#0F4747;}
</style>
<g id="Nuevo_símbolo">
	<circle id="XMLID_5_" class="st0" cx="-98.7" cy="424.6" r="99.3"/>
	<circle id="XMLID_4_" class="st1" cx="-98.7" cy="418" r="99.3"/>
	<g id="XMLID_2_">
		
			<linearGradient id="XMLID_6_" gradientUnits="userSpaceOnUse" x1="-395.1385" y1="-295.6978" x2="-215.3646" y2="-295.6978" gradientTransform="matrix(4.489700e-011 1 -1 4.489700e-011 -394.3576 723.2827)">
			<stop  offset="0" style="stop-color:#FFFFFF"/>
			<stop  offset="0.4877" style="stop-color:#FFFFFF;stop-opacity:0"/>
		</linearGradient>
		<circle id="XMLID_3_" class="st2" cx="-98.7" cy="418" r="89.9"/>
	</g>
</g>
<circle id="XMLID_2665_" class="st3" cx="-69.8" cy="373.3" r="11.8"/>
<g id="XMLID_2626_">
	<g id="XMLID_2661_">
		<path id="XMLID_2662_" class="st4" d="M-74.6,484.6c-0.3,0-0.7-0.1-1-0.3c-0.8-0.6-20-14-27.8-33.3c-2.4-5.9-4-11.3-5.6-16.5
			c-3.5-11.5-6.2-20.6-15.5-29.6c-13.2-13-20.1-15.5-20.1-15.5c-0.7-0.2-1.1-0.9-1.2-1.6c0-0.7,0.4-1.4,1.1-1.7l28.7-12.3
			c0.4-0.2,0.8-0.2,1.1-0.1c0.8,0.2,19.1,5.4,27.5,25.6c3,7.1,4.7,14.2,6.4,21.1c3,12.2,5.6,22.7,14,30.1
			C-53.9,462-49.4,464-49.3,464c0.6,0.3,1,0.8,1.1,1.4c0.1,0.6-0.2,1.3-0.7,1.6l-24.6,17.2C-73.9,484.5-74.3,484.6-74.6,484.6z
			 M-139.9,387.8c3.5,2,9.5,6.2,17.9,14.5c9.9,9.7,12.9,19.6,16.3,31.1c1.5,5.1,3.1,10.4,5.5,16.2c6.4,16,21.6,28.1,25.6,31
			l21.3-14.9c-2.7-1.7-7.7-5.3-16.1-12.6c-9.2-8.1-12.1-19.6-15.1-31.9c-1.7-6.7-3.4-13.7-6.2-20.6c-6.9-16.8-21.6-22.4-24.6-23.4
			L-139.9,387.8z"/>
	</g>
	<g id="XMLID_2659_">
		<path id="XMLID_2660_" class="st4" d="M-55.4,470.9c-0.2,0-0.5,0-0.7-0.2c-0.2-0.1-4.1-1.8-9.7-5.1c-6.2-3.6-14.8-15.7-19.5-25.3
			c-2.7-5.6-5-14.1-7.1-22.3c-1.7-6.6-3.5-13.3-5.5-18.3c-4.2-10.5-21.6-20.3-21.8-20.4c-0.8-0.5-1.1-1.5-0.7-2.4
			c0.5-0.8,1.5-1.1,2.4-0.7c0.8,0.4,18.7,10.6,23.3,22.2c2,5.1,3.8,12,5.6,18.7c2.1,8,4.3,16.4,6.9,21.7c5,10.2,13.1,20.9,18.1,23.8
			c5.5,3.2,9.4,4.9,9.4,4.9c0.9,0.4,1.3,1.4,0.9,2.3C-54.1,470.6-54.7,470.9-55.4,470.9z"/>
	</g>
	<g id="XMLID_2657_">
		<path id="XMLID_2658_" class="st4" d="M-169.9,468.8c-0.2,0-0.3,0-0.5-0.1c-0.9-0.3-1.5-1.2-1.2-2.2c0.2-0.7,19.3-68.9,22.9-81.8
			c2-7.4,4.9-11.8,8.8-13.4c2.9-1.2,6.2-0.7,9.8,1.5c9.2,5.5,2.2,23.8,1.9,24.5c-0.4,0.9-1.4,1.3-2.3,1c-0.9-0.4-1.3-1.4-1-2.3
			c1.8-4.5,5.1-16.9-0.4-20.3c-2.6-1.6-4.9-2-6.7-1.2c-2.8,1.1-5.1,4.9-6.8,11c-3.5,12.9-22.7,81.1-22.9,81.8
			C-168.5,468.3-169.2,468.8-169.9,468.8z"/>
	</g>
	<g id="XMLID_2655_">
		<path id="XMLID_2656_" class="st4" d="M-100.9,384.9c-0.3,0-0.6-0.1-0.8-0.2c-0.8-0.5-1.2-1.5-0.7-2.4c1.2-2.1,3.6-8.4,1-11.8
			c-1.5-2-3.6-2.1-5.1-1.9c-3.2,0.5-6.4,3-7.5,5.9c-0.3,0.9-1.3,1.4-2.2,1c-0.9-0.3-1.4-1.3-1-2.2c1.5-4.1,5.8-7.5,10.2-8.2
			c3.4-0.5,6.4,0.6,8.4,3.2c4.6,5.9-0.4,15.2-0.7,15.6C-99.7,384.6-100.3,384.9-100.9,384.9z"/>
	</g>
	<g id="XMLID_2653_">
		<path id="XMLID_2654_" class="st4" d="M-143.3,465.5c-0.2,0-0.4,0-0.5-0.1c-0.9-0.3-1.4-1.3-1.1-2.2l18.9-59.7
			c0.3-0.9,1.3-1.4,2.2-1.1c0.9,0.3,1.4,1.3,1.1,2.2l-18.9,59.7C-141.8,465.1-142.5,465.5-143.3,465.5z"/>
	</g>
	<g id="XMLID_2649_">
		<path id="XMLID_2650_" class="st4" d="M-69.5,387.7c-0.5,0-1.1,0-1.6-0.1c-3.7-0.4-7-2.3-9.3-5.2s-3.3-6.5-2.9-10.2
			c0.9-7.6,7.8-13.1,15.4-12.2c3.7,0.4,7,2.3,9.3,5.2c2.3,2.9,3.3,6.5,2.9,10.2c-0.4,3.7-2.3,7-5.2,9.3
			C-63.3,386.7-66.4,387.7-69.5,387.7z M-69.5,363.4c-5.2,0-9.7,3.9-10.3,9.2c-0.3,2.8,0.5,5.5,2.2,7.7c1.7,2.2,4.2,3.5,7,3.9
			c2.8,0.3,5.5-0.5,7.7-2.2c2.2-1.7,3.5-4.2,3.9-7v0c0.7-5.7-3.4-10.9-9.1-11.5C-68.7,363.5-69.1,363.4-69.5,363.4z"/>
	</g>
	<g id="XMLID_2647_">
		<path id="XMLID_2648_" class="st4" d="M-68.5,357.8c-0.1,0-0.1,0-0.2,0c-1-0.1-1.7-0.9-1.6-1.9l0.9-9.8c0.1-1,0.9-1.7,1.9-1.6
			c1,0.1,1.7,0.9,1.6,1.9l-0.9,9.8C-66.8,357.1-67.6,357.8-68.5,357.8z"/>
	</g>
	<g id="XMLID_2645_">
		<path id="XMLID_2646_" class="st4" d="M-72.6,404.6c-0.1,0-0.1,0-0.2,0c-1-0.1-1.6-1-1.5-1.9l1.3-11.3c0.1-1,1-1.7,1.9-1.5
			c1,0.1,1.6,1,1.5,1.9l-1.3,11.3C-70.9,404-71.7,404.6-72.6,404.6z"/>
	</g>
	<g id="XMLID_2643_">
		<path id="XMLID_2644_" class="st4" d="M-40.4,382.6c-0.1,0-0.2,0-0.3,0l-12.5-2.2c-1-0.2-1.6-1.1-1.4-2s1.1-1.6,2-1.4l12.5,2.2
			c1,0.2,1.6,1.1,1.4,2C-38.8,382-39.6,382.6-40.4,382.6z"/>
	</g>
	<g id="XMLID_2641_">
		<path id="XMLID_2642_" class="st4" d="M-81.2,362c-0.5,0-1-0.2-1.3-0.6l-9.2-10.2c-0.7-0.7-0.6-1.8,0.1-2.5
			c0.7-0.7,1.8-0.6,2.5,0.1l9.2,10.2c0.7,0.7,0.6,1.8-0.1,2.5C-80.4,361.9-80.8,362-81.2,362z"/>
	</g>
	<g id="XMLID_2639_">
		<path id="XMLID_2640_" class="st4" d="M-56.6,365.1c-0.6,0-1.1-0.3-1.4-0.8c-0.5-0.8-0.3-1.9,0.4-2.4l11-7.6
			c0.8-0.5,1.9-0.3,2.4,0.5c0.5,0.8,0.3,1.9-0.4,2.4l-11,7.6C-55.9,365-56.2,365.1-56.6,365.1z"/>
	</g>
	<g id="XMLID_2637_">
		<path id="XMLID_2638_" class="st4" d="M-54.4,402.3c-0.6,0-1.1-0.3-1.5-0.8l-7.1-11c-0.5-0.8-0.3-1.9,0.5-2.4
			c0.8-0.5,1.9-0.3,2.4,0.5l7.1,11c0.5,0.8,0.3,1.9-0.5,2.4C-53.7,402.2-54,402.3-54.4,402.3z"/>
	</g>
	<g id="XMLID_2635_">
		<path id="XMLID_2636_" class="st4" d="M-150.7,403.1c-0.9,0-1.6-0.6-1.7-1.5c-0.1-1,0.5-1.8,1.5-2l20.7-2.9c1-0.1,1.8,0.5,2,1.5
			c0.1,1-0.5,1.8-1.5,2l-20.7,2.9C-150.6,403.1-150.7,403.1-150.7,403.1z"/>
	</g>
	<g id="XMLID_2633_">
		<path id="XMLID_2634_" class="st4" d="M-155.2,417.6c-0.8,0-1.6-0.6-1.7-1.5c-0.2-1,0.5-1.9,1.4-2l28.3-4.9c0.9-0.2,1.9,0.5,2,1.4
			c0.2,1-0.5,1.9-1.4,2l-28.3,4.9C-155,417.6-155.1,417.6-155.2,417.6z"/>
	</g>
	<g id="XMLID_2631_">
		<path id="XMLID_2632_" class="st4" d="M-159,434c-0.8,0-1.5-0.6-1.7-1.4c-0.2-0.9,0.4-1.9,1.4-2.1l28.2-5.8
			c0.9-0.2,1.9,0.4,2.1,1.4c0.2,0.9-0.4,1.9-1.4,2.1l-28.2,5.8C-158.8,434-158.9,434-159,434z"/>
	</g>
	<g id="XMLID_2629_">
		<path id="XMLID_2630_" class="st4" d="M-163,447.3c-0.8,0-1.6-0.6-1.7-1.4c-0.2-0.9,0.4-1.9,1.4-2.1l28-5.5c1-0.2,1.9,0.4,2.1,1.4
			c0.2,0.9-0.4,1.9-1.4,2.1l-28,5.5C-162.8,447.3-162.9,447.3-163,447.3z"/>
	</g>
	<g id="XMLID_2627_">
		<path id="XMLID_2628_" class="st4" d="M-166.7,461.2c-0.8,0-1.6-0.6-1.7-1.4c-0.2-1,0.4-1.9,1.4-2l26.2-4.9c1-0.2,1.9,0.4,2,1.4
			c0.2,1-0.4,1.9-1.4,2l-26.2,4.9C-166.5,461.2-166.6,461.2-166.7,461.2z"/>
	</g>
</g>
</svg>
