<?xml version="1.0" encoding="utf-8"?>
<!-- Generator: Adobe Illustrator 19.0.0, SVG Export Plug-In . SVG Version: 6.00 Build 0)  -->
<svg version="1.1" id="Capa_1" xmlns="http://www.w3.org/2000/svg" xmlns:xlink="http://www.w3.org/1999/xlink" x="0px" y="0px"
	 viewBox="-198 318.7 198.7 205.2" style="enable-background:new -198 318.7 198.7 205.2;" xml:space="preserve">
<style type="text/css">
	.st0{opacity:0.15;}
	.st1{fill:#99C66B;}
	.st2{opacity:0.45;fill:url(#XMLID_6_);}
	.st3{fill:#FFFFFF;}
	.st4{fill:#0F4747;}
</style>
<g id="Nuevo_símbolo">
	<g id="Nuevo_símbolo_1_">
		<g id="Nuevo_símbolo_2_">
			<g id="Nuevo_símbolo_3_">
				<g id="Nuevo_símbolo_4_">
					<circle id="XMLID_5_" class="st0" cx="-98.7" cy="424.6" r="99.3"/>
					<circle id="XMLID_4_" class="st1" cx="-98.7" cy="418" r="99.3"/>
					<g id="XMLID_2_">
						
							<linearGradient id="XMLID_6_" gradientUnits="userSpaceOnUse" x1="-395.1385" y1="-295.6978" x2="-215.3646" y2="-295.6978" gradientTransform="matrix(4.489700e-011 1 -1 4.489700e-011 -394.3576 723.2827)">
							<stop  offset="0" style="stop-color:#FFFFFF"/>
							<stop  offset="0.4877" style="stop-color:#FFFFFF;stop-opacity:0"/>
						</linearGradient>
						<circle id="XMLID_3_" class="st2" cx="-98.7" cy="418" r="89.9"/>
					</g>
				</g>
				<path id="XMLID_2451_" class="st3" d="M-99,352.8c0,0-9.3-1.5-10,1.7s-3.9,10.8-6.5,12.8c-2.6,2-10.9,4.5-15.2,5.2
					c-4.3,0.7-7.2,0-8.3,2.8c-1.1,2.8-2.8,5.9-2.8,5.9s43.8-2,48.1-1.7c4.3,0.4,28.9,0.6,31.2,0.9c2.2,0.4,4.6,0.2,4.6,0.2
					s-2-5.4-4.5-7.8c-2.4-2.4-7.8-2.4-12.2-2.4c-4.5,0-9.8,1.1-10.8-1.5s-3.2-14.3-4.3-15C-90.8,353.2-99,352.8-99,352.8z"/>
				<path id="XMLID_2450_" class="st3" d="M-105.6,385.8c0,0-31.7,0.3-34.1,1.2c-2.3,0.9-5.3,3-4.8,4.5c0.5,1.6,1.6,6.2,3.6,6.2
					c2,0,53.7,0.2,55.6,0.2c1.9,0,27.3,0.3,28.3,0c0.9-0.3,2.2-3.1,2.2-4.7s0.3-5.8-0.6-6.2c-0.9-0.5-1.1-0.9-8.9-1.1
					S-105.6,385.8-105.6,385.8z"/>
				<g id="XMLID_2423_">
					<g id="XMLID_2446_">
						<path id="XMLID_2447_" class="st4" d="M-120.1,400.5c-24,0-24.9-2.3-25.3-3.4c-0.8-2.1-1.7-8.7,2.6-10.9
							c3.2-1.6,31.4-1.9,40-2c0.9,0,35.8-0.9,42.8-0.9c2.7,0,4.6,0.7,5.9,2c1.7,1.9,1.4,4.6,1.2,7c-0.1,0.6-0.1,1.2-0.2,1.7
							c-0.3,5.9-5.4,5.9-7.8,5.9c-2.9,0-37.4,0.2-52.8,0.4C-116,400.5-118.1,400.5-120.1,400.5z M-142.2,395.5
							c1.8,0.8,10.5,1.7,28.5,1.5c15.4-0.2,49.9-0.4,52.8-0.4c3.4,0,4.2-0.5,4.3-2.6c0-0.6,0.1-1.3,0.2-1.9c0.2-1.7,0.4-3.5-0.3-4.3
							c-0.5-0.5-1.6-0.8-3.2-0.8c-7,0-42.4,0.9-42.7,0.9c0,0,0,0,0,0c-14.6,0.1-36.2,0.6-38.5,1.6
							C-142.9,390.2-142.7,393.8-142.2,395.5z"/>
					</g>
					<g id="XMLID_2442_">
						<path id="XMLID_2443_" class="st4" d="M-96.8,485.3c-9.3,0-20.4-0.3-25.2-1.3c-8.9-1.7-10.2-14.9-10.9-22l-0.1-1.1
							c-0.7-6.4-7.1-55.2-7.1-55.7c-0.1-0.5,0.1-1,0.4-1.4s0.8-0.6,1.3-0.6h79.8c0.5,0,1,0.2,1.3,0.6c0.3,0.4,0.5,0.9,0.4,1.4
							c0,0-0.4,4.3-0.9,10.9c-0.2,3.3-8.4,59.4-10.8,62.7c-2.1,2.9-8.6,5.7-14.2,6.2C-84.9,485.1-90.4,485.3-96.8,485.3z
							 M-136.4,406.7c1.2,9.4,6.3,48,6.9,53.8l0.1,1.1c0.6,6.2,1.8,17.7,8.1,18.9c7.7,1.5,33.1,1.3,38.3,0.9
							c4.9-0.4,10.2-2.9,11.6-4.7c1.6-3.5,9.6-53.1,10.2-60.9c0.3-4,0.5-7.2,0.7-9.1H-136.4z"/>
					</g>
					<g id="XMLID_2440_">
						<path id="XMLID_2441_" class="st4" d="M-132.8,455.3C-132.8,455.3-132.8,455.3-132.8,455.3c-7.9-0.2-17.7-1.1-19.2-4.1
							c-1.5-3-8.9-25.4-7.5-36c0.4-2.7,1.6-4.9,3.8-6.4c5.7-4.1,15.7-2.3,16.1-2.2c0.9,0.2,1.6,1.1,1.4,2c-0.2,1-1.1,1.6-2,1.4
							c-0.1,0-9-1.6-13.4,1.6c-1.3,1-2.1,2.3-2.3,4c-1.2,9.5,5.8,31,7.1,33.9c1.2,1,8.5,2,16.1,2.3c1,0,1.7,0.8,1.7,1.8
							C-131.1,454.5-131.8,455.3-132.8,455.3z"/>
					</g>
					<g id="XMLID_2438_">
						<path id="XMLID_2439_" class="st4" d="M-133.4,450.2c0,0-0.1,0-0.1,0c-1-0.1-10.1-0.7-12.7-1.7c-2.7-1-3.9-5.6-5.8-13.7
							c-0.4-1.6-0.7-3.2-1.1-4.7c-1.9-7.4-1.2-14.1,0.5-16.6c1.5-2.3,8.4-2.8,13.9-2.8c1,0,1.8,0.8,1.8,1.8c0,1-0.8,1.8-1.8,1.8
							c-5,0-10.1,0.6-11.1,1.3c-0.8,1.4-1.7,6.9,0.1,13.7c0.4,1.5,0.8,3.1,1.2,4.8c0.9,3.9,2.4,10.4,3.6,11.2
							c1.5,0.6,8,1.2,11.7,1.4c1,0.1,1.7,0.9,1.6,1.9C-131.8,449.5-132.5,450.2-133.4,450.2z"/>
					</g>
					<g id="XMLID_2436_">
						<path id="XMLID_2437_" class="st4" d="M-64.5,455.3c-0.9,0-1.7-0.8-1.7-1.7c0-1,0.7-1.8,1.7-1.8c7.6-0.2,14.9-1.2,16.1-2.3
							c1.4-2.9,8.4-24.3,7.1-33.9c-0.2-1.7-1-3.1-2.3-4c-3.7-2.7-10.9-2.1-13.4-1.6c-0.9,0.2-1.9-0.4-2-1.4c-0.2-0.9,0.4-1.9,1.4-2
							c0.4-0.1,10.4-1.9,16.1,2.2c2.1,1.6,3.4,3.7,3.8,6.4c1.4,10.6-6,33-7.5,36C-46.9,454.2-56.6,455.1-64.5,455.3
							C-64.5,455.3-64.5,455.3-64.5,455.3z"/>
					</g>
					<g id="XMLID_2434_">
						<path id="XMLID_2435_" class="st4" d="M-63.9,450.2c-0.9,0-1.7-0.7-1.7-1.6c-0.1-1,0.7-1.8,1.6-1.9c3.7-0.3,10.2-0.9,11.8-1.5
							c1.1-0.8,2.6-7.3,3.5-11.2c0.4-1.6,0.8-3.3,1.1-4.8c1.8-6.8,0.9-12.2,0.1-13.7c-1-0.7-6.1-1.3-11.1-1.3c-1,0-1.8-0.8-1.8-1.8
							c0-1,0.8-1.8,1.8-1.8c5.5,0,12.4,0.5,13.9,2.8c1.7,2.5,2.4,9.1,0.5,16.6c-0.4,1.5-0.8,3.1-1.1,4.7c-1.9,8.1-3.1,12.7-5.8,13.7
							c-2.6,0.9-11.7,1.6-12.7,1.7C-63.8,450.2-63.8,450.2-63.9,450.2z"/>
					</g>
					<g id="XMLID_2430_">
						<path id="XMLID_2431_" class="st4" d="M-141.5,383.3c-0.4,0-0.8-0.2-1.2-0.4c-0.4-0.3-0.6-0.7-0.6-1.2c0-0.2-0.2-4.5,2.4-7.9
							c2.1-2.8,7.2-3.2,12.5-3.7c1.6-0.2,3.4-0.3,4.9-0.5c5.6-0.8,10.7-6.6,11.2-11c0.6-4.9,5-7.8,11.8-7.8
							c11.6,0,13.1,2.1,13.1,4.2c0,1.7,4.2,11.8,5.6,13.2c0.8,0.3,4.1,0.4,6.5,0.5c4.3,0.2,8.8,0.4,11.2,1.3
							c4.5,1.8,8.1,8.7,8.5,9.5c0.3,0.5,0.2,1.2-0.1,1.7c-0.3,0.5-0.9,0.8-1.5,0.8c-0.3,0-28.7-0.7-41.4-0.9
							c-12.7-0.2-42.6,2-42.9,2C-141.4,383.3-141.5,383.3-141.5,383.3z M-100.5,354.3c-2.3,0-7.8,0.5-8.3,4.7
							c-0.8,6.5-7.4,13-14.2,14c-1.6,0.2-3.4,0.4-5.1,0.5c-4.1,0.4-8.8,0.8-10,2.4c-0.9,1.2-1.3,2.6-1.5,3.7
							c7-0.5,30.1-2.1,41.2-1.9c10.3,0.2,30.6,0.6,38.3,0.8c-1.4-2.1-3.3-4.5-5.1-5.2c-1.9-0.7-6.5-0.9-10.1-1.1
							c-4.7-0.2-7.1-0.3-8.2-1.1c-2.4-1.5-6.8-12.7-7.3-15.8C-91.7,354.9-94.7,354.3-100.5,354.3z"/>
					</g>
					<g id="XMLID_2426_">
						<path id="XMLID_2427_" class="st4" d="M-99.4,365.9c-4.1,0-7.1-1.9-7.1-4.4s3-4.4,7.1-4.4c4.1,0,7.1,1.9,7.1,4.4
							S-95.3,365.9-99.4,365.9z M-102.9,361.5c0.4,0.4,1.6,0.9,3.5,0.9s3.1-0.6,3.5-0.9c-0.4-0.4-1.6-0.9-3.5-0.9
							C-101.3,360.5-102.5,361.1-102.9,361.5z"/>
					</g>
					<g id="XMLID_2424_">
						<path id="XMLID_2425_" class="st4" d="M-92.5,432.1c-18.2,0-41.5-1.8-41.7-1.8c-1-0.1-1.7-0.9-1.6-1.9c0.1-1,0.9-1.7,1.9-1.6
							c0.3,0,26,2,44.4,1.8c18.3-0.2,27-2,27.1-2c0.9-0.2,1.9,0.4,2.1,1.4s-0.4,1.9-1.4,2.1c-0.4,0.1-9.1,1.8-27.7,2
							C-90.5,432.1-91.5,432.1-92.5,432.1z"/>
					</g>
				</g>
			</g>
		</g>
	</g>
</g>
</svg>
