<?xml version="1.0" encoding="utf-8"?>
<!-- Generator: Adobe Illustrator 19.0.0, SVG Export Plug-In . SVG Version: 6.00 Build 0)  -->
<svg version="1.1" id="Capa_1" xmlns="http://www.w3.org/2000/svg" xmlns:xlink="http://www.w3.org/1999/xlink" x="0px" y="0px"
	 viewBox="-198 318.7 198.7 205.2" style="enable-background:new -198 318.7 198.7 205.2;" xml:space="preserve">
<style type="text/css">
	.st0{opacity:0.15;}
	.st1{fill:#99C66B;}
	.st2{opacity:0.45;fill:url(#XMLID_6_);}
	.st3{fill:#FFFFFF;}
	.st4{fill:#0F4747;}
</style>
<g id="Nuevo_símbolo">
	<g id="Nuevo_símbolo_1_">
		<g id="Nuevo_símbolo_2_">
			<g id="Nuevo_símbolo_3_">
				<g id="Nuevo_símbolo_4_">
					<g id="Nuevo_símbolo_5_">
						<g id="Nuevo_símbolo_6_">
							<g id="Nuevo_símbolo_7_">
								<g id="Nuevo_símbolo_8_">
									<g id="Nuevo_símbolo_9_">
										<g id="Nuevo_símbolo_10_">
											<g id="Nuevo_símbolo_11_">
												<g id="Nuevo_símbolo_12_">
													<circle id="XMLID_5_" class="st0" cx="-98.7" cy="424.6" r="99.3"/>
													<circle id="XMLID_4_" class="st1" cx="-98.7" cy="418" r="99.3"/>
													<g id="XMLID_2_">
														
															<linearGradient id="XMLID_6_" gradientUnits="userSpaceOnUse" x1="-395.1385" y1="-295.6978" x2="-215.3646" y2="-295.6978" gradientTransform="matrix(4.489700e-011 1 -1 4.489700e-011 -394.3576 723.2827)">
															<stop  offset="0" style="stop-color:#FFFFFF"/>
															<stop  offset="0.4877" style="stop-color:#FFFFFF;stop-opacity:0"/>
														</linearGradient>
														<circle id="XMLID_3_" class="st2" cx="-98.7" cy="418" r="89.9"/>
													</g>
												</g>
												<path id="XMLID_2101_" class="st3" d="M-134.4,368.9c0,0-14.5-0.1-16.6,1s-1,3.7-1.8,8.4c-0.8,4.7-1.5,31.1-1.4,33.2
													c0.1,2.2,0.8,4.1,3.6,5.5c2.8,1.4,63.3,0.8,68.3,1c4.9,0.3,8.4,0.1,9.7,0c1.3-0.1,4.2-3.7,4.1-5.7
													c-0.1-2-3.1-38.6-2.2-41.2c0.9-2.6-1.5-2.4-4.6-2.3c-3.1,0.1-48-0.4-50.7-0.1C-128.9,369.1-134.4,368.9-134.4,368.9z"/>
												<g id="XMLID_1914_">
													<g id="XMLID_2097_">
														<path id="XMLID_2098_" class="st4" d="M-99.7,431c-20.1,0-44.4-0.2-50.5-0.3c-6.2-0.1-13.7-2.2-14.7-11.4
															c-0.2-1.9-0.1-17.6-0.1-36.4c0-5.5,0-10.1,0-12.7c0-10.1,9.9-10.9,15.3-11.4c0.5,0,0.9-0.1,1.4-0.1
															c5.3-0.5,39.2,0,41.1,0c1,0,19.7-0.5,32.3-0.2c12.7,0.3,14,4.7,14.6,11.5c0,0.4,0.1,0.8,0.1,1.2
															c0.3,3,0.1,12.3-0.1,22.1c-0.2,10.5-0.4,22.3,0,25.4c0.3,2.5-0.3,4.9-1.9,6.9c-2.5,3.2-6.6,4.8-9.4,5.1
															C-73.3,430.9-85.4,431-99.7,431z M-135.2,362c-6,0-11,0.1-12.7,0.2c-0.4,0-0.9,0.1-1.4,0.1
															c-6.6,0.6-12.1,1.5-12.1,7.9c0,2.5,0,7.2,0,12.7c-0.1,13.6-0.1,34.2,0,36c0.2,2.2,0.8,8,11.2,8.2
															c12.1,0.3,74.3,0.5,78.2,0c2.3-0.3,5.4-1.6,7.1-3.8c1-1.3,1.4-2.7,1.2-4.3c-0.4-3.4-0.2-14.8,0-25.9
															c0.2-9.3,0.4-18.9,0.1-21.7c0-0.4-0.1-0.8-0.1-1.2c-0.4-5.2-0.7-8-11.2-8.3c-12.8-0.3-32,0.2-32.2,0.2c0,0,0,0-0.1,0
															C-107.4,362.2-123.2,362-135.2,362z"/>
													</g>
													<g id="XMLID_2093_">
														<path id="XMLID_2094_" class="st4" d="M-134,420.5c-6.7,0-12-0.1-14.3-0.4c-9-1.1-8.3-9-7.8-14.2
															c0.1-0.8,0.1-1.6,0.2-2.4c0.1-1.4,0.1-4.3,0.2-7.6c0.4-16.2,0.7-24.3,1.5-26.1c0.4-0.9,1.5-3.5,17-2.6
															c1.5,0,42,0.5,54.8-0.1c8.6-0.4,11.1,0.2,12.5,1.5c1.2,1.1,1.2,2.5,1.2,3.6c0,0.3,0,0.6,0,0.9
															c0.2,2.8,0.8,22.2,1.2,33.8l0.1,4.6c0.1,2.9-0.7,5.1-2.4,6.7c-3.2,3-8.8,2.4-12.5,2l-0.3,0c-2-0.2-12.7-0.1-24.1,0.1
															C-115.9,420.4-126,420.5-134,420.5z M-151,371.4c-0.6,2.5-1,17.3-1.2,24.5c-0.1,3.5-0.2,6.2-0.2,7.7
															c0,0.8-0.1,1.7-0.2,2.5c-0.5,6.1-0.5,9.8,4.7,10.5c4.8,0.6,25,0.3,41.3,0.1c13.8-0.2,22.4-0.3,24.5-0.1l0.3,0
															c3.1,0.3,7.7,0.8,9.7-1.1c0.9-0.8,1.3-2.2,1.3-4l-0.1-4.6c-0.3-10.8-1-30.9-1.2-33.6c0-0.4,0-0.8,0-1.1
															c0-0.4,0-1-0.1-1.1c-0.4-0.4-2.2-0.9-9.9-0.6c-13.1,0.7-54.7,0.1-55.1,0.1c0,0,0,0-0.1,0
															C-143.5,370.4-149.6,370.7-151,371.4z"/>
													</g>
													<g id="XMLID_2091_">
														<circle id="XMLID_2092_" class="st4" cx="-116.6" cy="386" r="2.4"/>
													</g>
													<g id="XMLID_2089_">
														<circle id="XMLID_2090_" class="st4" cx="-106.8" cy="386" r="2.4"/>
													</g>
													<g id="XMLID_2087_">
														<path id="XMLID_2088_" class="st4" d="M-113,407.6c-4.6,0-8.3-1.3-10.8-3.9c-4.2-4.3-3.8-10.4-3.8-10.6
															c0.1-1,0.9-1.7,1.9-1.6c1,0.1,1.7,0.9,1.6,1.9c0,0.1-0.3,4.8,2.8,7.9c2.1,2.1,5.5,3.1,9.9,2.8
															c4.8-0.3,8.3-1.7,10.2-4.2c2.2-2.9,1.7-6.3,1.7-6.3c-0.2-0.9,0.5-1.9,1.4-2c0.9-0.2,1.9,0.5,2,1.4
															c0,0.2,0.9,5-2.3,9.1c-2.6,3.3-6.8,5.2-12.8,5.6C-111.8,407.6-112.4,407.6-113,407.6z"/>
													</g>
													<g id="XMLID_2085_">
														<path id="XMLID_2086_" class="st4" d="M-119.1,459.7c-26.8,0-28.3-2.4-28.9-3.4c-1.2-1.9-1.3-4.4-0.3-6.9
															c0.9-2.1,2.4-3.6,4-4c0.8-0.2,2-0.3,3.9-0.4c4.7-0.3,12.4-0.8,18-3.2c6.3-2.7,2.9-11.6,2.8-12c-0.3-0.9,0.1-1.9,1-2.3
															c0.9-0.4,1.9,0.1,2.3,1c1.7,4.3,2.9,13.2-4.6,16.5c-6.1,2.7-14.3,3.2-19.2,3.5c-1.5,0.1-2.9,0.2-3.4,0.3
															c-0.4,0.1-1.1,0.7-1.6,1.9c-0.4,1-0.7,2.5-0.1,3.5c2.3,1.5,18.7,2.2,40.1,1.7c2.1,0,4.3-0.1,6.6-0.1
															c7.5-0.1,19-0.3,20.6-1.3c0.6-0.6,1.1-1.8,0.9-2.7c-0.2-0.8-0.9-1.3-2.1-1.6c-1.8-0.5-6-0.7-10.1-0.9
															c-10.2-0.5-14.1-0.8-15.1-3c-2.3-5-3.1-10.8-2.5-17.2c0.1-1,0.9-1.7,1.9-1.6c1,0.1,1.7,0.9,1.6,1.9
															c-0.5,5.7,0.2,10.8,2.1,15.2c1.5,0.7,8.1,1,12.2,1.2c4.5,0.2,8.7,0.4,10.9,1c3.3,0.9,4.2,3,4.5,4.2
															c0.6,2.4-0.6,4.9-2,6.2c-1.8,1.7-8.4,2-22.9,2.2c-2.2,0-4.4,0.1-6.5,0.1C-110.3,459.6-115,459.7-119.1,459.7z"/>
													</g>
													<g id="XMLID_2081_">
														<path id="XMLID_2082_" class="st4" d="M-40.6,487.1c-5.3,0-11.8-3.1-15.6-5.7c-4.2-2.9-7.4-7.7-7.8-11.6
															c-0.1-1.5,0.1-2.9,0.8-4c2.3-3.9,12.1-5.8,14.2-6.1c5.6-1.2,13.5,5.3,15.8,7.3c2.2,2,3.3,5.1,2.9,8.8
															c-0.4,4.3-2.7,8.4-5.6,10.1C-37.3,486.8-38.9,487.1-40.6,487.1z M-47.6,463.1c-0.3,0-0.5,0-0.8,0.1c0,0-0.1,0-0.1,0
															c-4.1,0.7-10.7,2.6-11.8,4.5c-0.3,0.5-0.4,1.1-0.3,1.8c0.3,2.8,3,6.7,6.3,9c5.3,3.7,13.2,6.4,16.5,4.4
															c1.9-1.1,3.6-4.3,3.9-7.4c0.2-2.5-0.4-4.7-1.8-5.9C-40.2,465.6-44.8,463.1-47.6,463.1z"/>
													</g>
													<g id="XMLID_1917_">
														<path id="XMLID_1918_" class="st4" d="M-48,476.5c-4.3,0-12.4-4-15.1-5.3c-0.9-0.4-1.2-1.5-0.8-2.4
															c0.4-0.9,1.5-1.2,2.4-0.8c6.1,3.1,12.4,5.4,13.8,4.9l0.3-0.1c3.1-1,5.9-1.9,7.4-8c0.2-0.9,1.2-1.5,2.1-1.3
															c0.9,0.2,1.5,1.2,1.3,2.1c-1.9,8-6.4,9.5-9.7,10.6l-0.3,0.1C-47,476.5-47.5,476.5-48,476.5z"/>
													</g>
													<g id="XMLID_1915_">
														<path id="XMLID_1916_" class="st4" d="M-43.2,474.8c-0.5,0-1-0.2-1.4-0.7l-2.4-3c-1.5-1.9-7-4.8-10.1-6.1
															c-0.2-0.1-0.4-0.2-0.5-0.4c-1.6-1.6-6.1-5.9-8.3-6.9c-2.8-1.2-9.7-2.7-9.8-2.7c-0.9-0.2-1.5-1.1-1.3-2.1
															c0.2-0.9,1.1-1.5,2.1-1.3c0.3,0.1,7.3,1.6,10.4,2.9c3,1.3,7.9,6.1,9.1,7.4c1.7,0.8,8.7,4,11.1,7l2.4,3
															c0.6,0.8,0.5,1.9-0.3,2.5C-42.4,474.6-42.8,474.8-43.2,474.8z"/>
													</g>
												</g>
											</g>
										</g>
									</g>
								</g>
							</g>
						</g>
					</g>
				</g>
			</g>
		</g>
	</g>
</g>
</svg>
