<?xml version="1.0" encoding="utf-8"?>
<!-- Generator: Adobe Illustrator 19.0.0, SVG Export Plug-In . SVG Version: 6.00 Build 0)  -->
<svg version="1.1" id="Capa_1" xmlns="http://www.w3.org/2000/svg" xmlns:xlink="http://www.w3.org/1999/xlink" x="0px" y="0px"
	 viewBox="-198 318.7 198.7 205.2" style="enable-background:new -198 318.7 198.7 205.2;" xml:space="preserve">
<style type="text/css">
	.st0{opacity:0.15;}
	.st1{fill:#99C66B;}
	.st2{opacity:0.45;fill:url(#XMLID_6_);}
	.st3{fill:#FFFFFF;}
	.st4{fill:#0F4747;}
</style>
<g id="Nuevo_símbolo">
	<g id="Nuevo_símbolo_1_">
		<circle id="XMLID_5_" class="st0" cx="-98.7" cy="424.6" r="99.3"/>
		<circle id="XMLID_4_" class="st1" cx="-98.7" cy="418" r="99.3"/>
		<g id="XMLID_2_">
			
				<linearGradient id="XMLID_6_" gradientUnits="userSpaceOnUse" x1="-395.1385" y1="-295.6978" x2="-215.3646" y2="-295.6978" gradientTransform="matrix(4.489700e-011 1 -1 4.489700e-011 -394.3576 723.2827)">
				<stop  offset="0" style="stop-color:#FFFFFF"/>
				<stop  offset="0.4877" style="stop-color:#FFFFFF;stop-opacity:0"/>
			</linearGradient>
			<circle id="XMLID_3_" class="st2" cx="-98.7" cy="418" r="89.9"/>
		</g>
	</g>
	<path id="XMLID_1729_" class="st3" d="M-60.1,347.8c0,0-7.7,5-9.7,11.3c-2,6.3-2.8,10.5-2.8,10.5s-20.9,40.1-21.3,42.2
		c-0.4,2-1.4,7.3,2.1,9.1c3.5,1.9,7.4-1.5,8.5-2.1s22.3-44,22.3-45.4c-0.1-1.4-1.5-2.5-1.5-2.5s3-2.4,4.7-5.8s5.4-9,4.6-11.2
		c-0.7-2.2-2.7-4.8-3.9-5.1C-58.4,348.5-60.1,347.8-60.1,347.8z"/>
	<g id="XMLID_1678_">
		<g id="XMLID_1727_">
			<path id="XMLID_1728_" class="st4" d="M-117.7,478.1c-0.6,0-1.2-0.3-1.5-0.9l-43.2-79.5c-0.2-0.4-0.3-0.9-0.1-1.4
				c0.1-0.5,0.5-0.8,0.9-1l62.8-30c0.9-0.4,1.9-0.1,2.3,0.8l13.1,25.5c0.4,0.9,0.1,1.9-0.8,2.4c-0.9,0.4-1.9,0.1-2.4-0.8l-12.4-24
				l-59.6,28.5l41.5,76.4l58.7-28.8L-77.6,407c-0.4-0.9-0.1-1.9,0.8-2.3c0.9-0.4,1.9-0.1,2.3,0.8l20.1,39.9c0.2,0.4,0.2,0.9,0.1,1.3
				c-0.1,0.4-0.5,0.8-0.9,1L-117,478C-117.2,478.1-117.5,478.1-117.7,478.1z"/>
		</g>
		<g id="XMLID_1723_">
			<path id="XMLID_1724_" class="st4" d="M-88.6,423.5c-2.2,0-4.1-0.9-5.4-2.6c-1.3-1.7-3-5.5,0.1-12.5c3.8-8.7,19.1-40.3,19.2-40.6
				c0.4-0.8,1.4-1.2,2.3-0.8l11.3,5c0.9,0.4,1.3,1.4,0.9,2.3c-0.5,1.2-12.6,28.9-15.4,34.4c-0.4,0.8-0.8,1.6-1.2,2.4
				c-2.6,5.3-5.4,11.4-10.5,12.2C-87.7,423.4-88.1,423.5-88.6,423.5z M-72.3,370.9c-3.1,6.4-15.1,31.4-18.4,39
				c-1.7,3.9-1.9,7.2-0.5,8.9c0.8,1,2,1.4,3.4,1.1c3.2-0.5,5.7-5.7,7.9-10.3c0.4-0.9,0.8-1.7,1.2-2.5c2.4-4.7,11.9-26.5,14.6-32.7
				L-72.3,370.9z"/>
		</g>
		<g id="XMLID_1721_">
			<path id="XMLID_1722_" class="st4" d="M-93.9,428.7c-0.3,0-0.5-0.1-0.8-0.2c-0.7-0.4-1.1-1.2-0.9-2l1.8-6.5
				c0.3-0.9,1.2-1.5,2.2-1.2c0.6,0.2,1.1,0.7,1.2,1.3c0.6-0.3,1.3-0.2,1.8,0.2c0.8,0.6,0.9,1.7,0.3,2.5l-4.3,5.3
				C-92.9,428.4-93.4,428.7-93.9,428.7z"/>
		</g>
		<g id="XMLID_1701_">
			<path id="XMLID_1702_" class="st4" d="M-60.3,372c-0.2,0-0.4,0-0.6-0.1l-11.8-4.3c-0.4-0.2-0.8-0.5-1-0.9c-0.2-0.4-0.2-0.9,0-1.4
				c1.1-2.7,6.7-16.5,11.1-18.6c2.4-1.1,5.3-0.6,7.7,1.4c2.3,1.9,3.5,4.6,3,6.8c-0.8,3.3-6.2,14.8-6.8,16.1
				C-59,371.6-59.6,372-60.3,372z M-69.7,364.9l8.6,3.2c1.9-4.1,5.3-11.8,5.9-14c0.2-0.8-0.4-2.2-1.8-3.3c-0.5-0.4-2.3-1.7-4-0.9
				C-63,350.8-66.9,358.1-69.7,364.9z"/>
		</g>
		<g id="XMLID_1699_">
			<path id="XMLID_1700_" class="st4" d="M-62.8,396.9c-0.2,0-0.4,0-0.7-0.1c-0.9-0.4-1.3-1.4-0.9-2.3l11.9-28.9l-4.7-2.3
				c-0.9-0.4-1.2-1.5-0.8-2.3c0.4-0.9,1.5-1.2,2.3-0.8l6.2,3c0.8,0.4,1.2,1.4,0.9,2.2l-12.6,30.4C-61.4,396.5-62.1,396.9-62.8,396.9
				z"/>
		</g>
		<g id="XMLID_1697_">
			<path id="XMLID_1698_" class="st4" d="M-118.9,488.7c-0.6,0-1.2-0.3-1.5-0.9l-42.1-73.2c-0.2-0.4-0.3-0.9-0.2-1.4
				s0.4-0.8,0.9-1.1l7.1-3.8c0.9-0.5,1.9-0.1,2.4,0.7c0.5,0.9,0.1,1.9-0.7,2.4l-5.5,3l40.4,70.2l57-28l-3.2-6.5
				c-0.4-0.9-0.1-1.9,0.8-2.3c0.9-0.4,1.9-0.1,2.3,0.8l3.9,8.1c0.4,0.9,0.1,1.9-0.8,2.3l-60.1,29.4
				C-118.4,488.7-118.6,488.7-118.9,488.7z"/>
		</g>
		<g id="XMLID_1695_">
			<path id="XMLID_1696_" class="st4" d="M-122.6,499.3c-0.6,0-1.2-0.3-1.5-0.9l-41.6-73.9c-0.2-0.4-0.3-0.9-0.1-1.4
				c0.2-0.5,0.5-0.8,0.9-1l7.1-3.2c0.9-0.4,1.9,0,2.3,0.9c0.4,0.9,0,1.9-0.9,2.3l-5.4,2.4l39.9,70.8l56.7-27.5l-3.2-5.4
				c-0.5-0.8-0.2-1.9,0.6-2.4c0.8-0.5,1.9-0.2,2.4,0.6l4.1,7c0.2,0.4,0.3,0.9,0.2,1.4s-0.5,0.9-0.9,1.1l-59.8,29
				C-122.1,499.3-122.4,499.3-122.6,499.3z"/>
		</g>
		<g id="XMLID_1693_">
			<path id="XMLID_1694_" class="st4" d="M-136.7,411.7c-0.2,0-0.4,0-0.6-0.1l-6.5-2.3c-0.9-0.3-1.4-1.3-1.1-2.2s1.3-1.4,2.2-1.1
				l4.6,1.6l2.5-11.1c0.2-0.9,1.2-1.5,2.1-1.3c0.9,0.2,1.5,1.1,1.3,2.1l-2.9,13.1c-0.1,0.5-0.4,0.9-0.9,1.1
				C-136.2,411.6-136.5,411.7-136.7,411.7z"/>
		</g>
		<g id="XMLID_1691_">
			<path id="XMLID_1692_" class="st4" d="M-129.2,430c-0.2,0-0.4,0-0.6-0.1l-6.5-2.3c-0.9-0.3-1.4-1.3-1.1-2.2
				c0.3-0.9,1.3-1.4,2.2-1.1l4.6,1.6l2.5-11.1c0.2-0.9,1.2-1.5,2.1-1.3c0.9,0.2,1.5,1.1,1.3,2.1l-2.9,13.1c-0.1,0.5-0.4,0.9-0.9,1.1
				C-128.6,429.9-128.9,430-129.2,430z"/>
		</g>
		<g id="XMLID_1689_">
			<path id="XMLID_1690_" class="st4" d="M-121.2,445.8c-0.2,0-0.4,0-0.6-0.1l-6.5-2.3c-0.9-0.3-1.4-1.3-1.1-2.2
				c0.3-0.9,1.3-1.4,2.2-1.1l4.6,1.6l2.5-11.1c0.2-0.9,1.1-1.5,2.1-1.3c0.9,0.2,1.5,1.1,1.3,2.1l-2.9,13.1c-0.1,0.5-0.4,0.9-0.9,1.1
				C-120.6,445.7-120.9,445.8-121.2,445.8z"/>
		</g>
		<g id="XMLID_1687_">
			<path id="XMLID_1688_" class="st4" d="M-111.7,460.8c-0.2,0-0.4,0-0.6-0.1l-6.5-2.3c-0.9-0.3-1.4-1.3-1.1-2.2
				c0.3-0.9,1.3-1.4,2.2-1.1l4.6,1.6l2.5-11.1c0.2-0.9,1.1-1.5,2.1-1.3c0.9,0.2,1.5,1.1,1.3,2.1l-2.9,13.1c-0.1,0.5-0.4,0.9-0.9,1.1
				C-111.1,460.7-111.4,460.8-111.7,460.8z"/>
		</g>
		<g id="XMLID_1685_">
			<path id="XMLID_1686_" class="st4" d="M-129.7,403.1c-0.6,0-1.3-0.4-1.6-1c-0.4-0.9-0.1-1.9,0.8-2.3l30.6-15.3
				c0.9-0.4,1.9-0.1,2.3,0.8c0.4,0.9,0.1,1.9-0.8,2.3l-30.6,15.3C-129.2,403.1-129.4,403.1-129.7,403.1z"/>
		</g>
		<g id="XMLID_1683_">
			<path id="XMLID_1684_" class="st4" d="M-122.4,416.9c-0.6,0-1.3-0.4-1.6-1c-0.4-0.9-0.1-1.9,0.8-2.3l22-11
				c0.9-0.4,1.9-0.1,2.3,0.8c0.4,0.9,0.1,1.9-0.8,2.3l-22,11C-121.8,416.9-122.1,416.9-122.4,416.9z"/>
		</g>
		<g id="XMLID_1681_">
			<path id="XMLID_1682_" class="st4" d="M-114.4,434.3c-0.6,0-1.3-0.4-1.6-1c-0.4-0.9-0.1-1.9,0.8-2.3l12.6-6.3
				c0.9-0.4,1.9-0.1,2.3,0.8c0.4,0.9,0.1,1.9-0.8,2.3l-12.6,6.3C-113.8,434.3-114.1,434.3-114.4,434.3z"/>
		</g>
		<g id="XMLID_1679_">
			<path id="XMLID_1680_" class="st4" d="M-104.9,451.8c-0.6,0-1.3-0.4-1.6-1c-0.4-0.9-0.1-1.9,0.8-2.3l30.6-15.3
				c0.9-0.4,1.9-0.1,2.3,0.8c0.4,0.9,0.1,1.9-0.8,2.3l-30.6,15.3C-104.4,451.7-104.6,451.8-104.9,451.8z"/>
		</g>
	</g>
</g>
</svg>
