<?xml version="1.0" encoding="utf-8"?>
<!-- Generator: Adobe Illustrator 19.0.0, SVG Export Plug-In . SVG Version: 6.00 Build 0)  -->
<svg version="1.1" id="Capa_1" xmlns="http://www.w3.org/2000/svg" xmlns:xlink="http://www.w3.org/1999/xlink" x="0px" y="0px"
	 viewBox="-198 318.7 198.7 205.2" style="enable-background:new -198 318.7 198.7 205.2;" xml:space="preserve">
<style type="text/css">
	.st0{opacity:0.15;}
	.st1{fill:#99C66B;}
	.st2{opacity:0.45;fill:url(#XMLID_6_);}
	.st3{fill:#FFFFFF;}
	.st4{fill:#0F4747;}
</style>
<g id="Nuevo_símbolo">
	<g id="Nuevo_símbolo_1_">
		<g id="Nuevo_símbolo_2_">
			<g id="Nuevo_símbolo_3_">
				<g id="Nuevo_símbolo_4_">
					<circle id="XMLID_5_" class="st0" cx="-98.7" cy="424.6" r="99.3"/>
					<circle id="XMLID_4_" class="st1" cx="-98.7" cy="418" r="99.3"/>
					<g id="XMLID_2_">
						
							<linearGradient id="XMLID_6_" gradientUnits="userSpaceOnUse" x1="-395.1385" y1="-295.6978" x2="-215.3646" y2="-295.6978" gradientTransform="matrix(4.489700e-011 1 -1 4.489700e-011 -394.3576 723.2827)">
							<stop  offset="0" style="stop-color:#FFFFFF"/>
							<stop  offset="0.4877" style="stop-color:#FFFFFF;stop-opacity:0"/>
						</linearGradient>
						<circle id="XMLID_3_" class="st2" cx="-98.7" cy="418" r="89.9"/>
					</g>
				</g>
				<path id="XMLID_2254_" class="st3" d="M-163.1,426.3c0,0,9.7,35.3,11,38.6c1.3,3.3,4.6,9.4,7.9,10.2c3.3,0.8,5.7,0.2,6.2-3.4
					c0.5-3.6-7.5-31.7-8-39.1c-0.6-7.4-3.3-10.2-3.3-10.2L-163.1,426.3z"/>
				<g id="XMLID_2221_">
					<g id="XMLID_2250_">
						<path id="XMLID_2251_" class="st4" d="M-81.5,490.4c-7.7,0-16.3-1.9-25-7.6c-24-15.7-25.7-41.1-16.7-59.2
							c7.9-15.9,25.6-21.2,30.8-22.5l-0.5-21.4c-2.7,0.1-7.4-0.2-8.6-3.9c-0.6-1.9-0.1-3.3,0.4-4.1c1.3-2,4.4-3.2,9.2-3.6
							c4.4-0.4,25.3-0.2,26.1-0.2c0.1,0,0.2,0,0.3,0c4.3,0.7,5.1,3.1,5.2,4.4c0.2,2.7-2.1,5.5-3.8,6.1c-1.2,0.4-3.7,0.7-5.4,0.8
							c-0.1,2.6-0.2,8.8-0.1,21.6c12.1,2.6,33.3,12.8,35,35.6c1.8,24-12.4,41.5-19.2,45.8C-56.7,484.1-67.6,490.4-81.5,490.4z
							 M-91.1,376.1c0.4,0,0.8,0.1,1.1,0.4c0.4,0.3,0.6,0.8,0.6,1.3l0.5,24.7c0,0.9-0.6,1.6-1.4,1.8c-0.2,0-21.4,4-29.8,20.9
							c-8.3,16.8-6.8,40.2,15.4,54.8c22.5,14.7,44.7,2.1,49-0.6c5.3-3.4,19.3-19.7,17.6-42.6c-2-26.9-33.2-32.6-33.5-32.7
							c-0.8-0.1-1.4-0.9-1.5-1.7c-0.2-19.5,0.2-24.6,0.2-24.9c0.1-0.9,0.8-1.6,1.7-1.6c1.8-0.1,5.1-0.4,6.1-0.7
							c0.4-0.2,1.6-1.7,1.4-2.6c-0.1-0.7-1.5-1.1-2.2-1.2c-1.9,0-21.7-0.2-25.7,0.2c-4.1,0.3-6.1,1.3-6.6,2.1
							c-0.1,0.1-0.3,0.4,0,1.1c0.6,1.7,4.6,1.7,6.7,1.4C-91.3,376.1-91.2,376.1-91.1,376.1z"/>
					</g>
					<g id="XMLID_2248_">
						<path id="XMLID_2249_" class="st4" d="M-118.8,421.4c-1,0-1.7-0.8-1.8-1.7c0-1,0.8-1.8,1.7-1.8l75.8-0.8c0,0,0,0,0,0
							c1,0,1.7,0.8,1.8,1.7c0,1-0.8,1.8-1.7,1.8L-118.8,421.4C-118.8,421.4-118.8,421.4-118.8,421.4z"/>
					</g>
					<g id="XMLID_2244_">
						<path id="XMLID_2245_" class="st4" d="M-168.2,418.4c-0.9,0-1.9-0.2-2.7-0.7c-0.9-0.6-1.4-1.5-1.3-2.6c0.2-2,2.5-4,4.5-4.7
							c2-0.7,11.3-3.5,12-3.7c4.2-1.4,6.6-0.1,7.5,1.6c0.9,1.6,0.4,3.6-1.2,4.8c-1.7,1.4-4.5,2-7.4,2.6c-1.5,0.3-3,0.6-4.4,1.1
							c-2,0.6-3.4,1-4.7,1.3C-166.6,418.3-167.4,418.4-168.2,418.4z M-152.5,409.7c-0.5,0-1.2,0.1-2.2,0.4c0,0,0,0,0,0
							c-0.1,0-9.9,2.9-11.8,3.6c-0.6,0.2-1.3,0.7-1.7,1.2c0.4,0,0.9-0.1,1.6-0.2c1.1-0.2,2.5-0.6,4.4-1.2c1.5-0.5,3.1-0.8,4.7-1.1
							c2.4-0.5,4.8-1,5.9-1.9c0.3-0.2,0.3-0.4,0.3-0.4C-151.4,409.9-151.7,409.7-152.5,409.7z"/>
					</g>
					<g id="XMLID_2242_">
						<path id="XMLID_2243_" class="st4" d="M-142.8,477.3c-1.1,0-2.2-0.2-3.1-0.7c-4.1-1.9-6-7.2-7.5-11.1l-0.3-0.9
							c-1.8-4.9-13.6-46-14.1-47.8c-0.3-0.9,0.3-1.9,1.2-2.2c0.9-0.3,1.9,0.3,2.2,1.2c0.1,0.4,12.3,42.8,14,47.5l0.3,0.9
							c1.2,3.3,2.8,7.8,5.6,9.1c1.1,0.5,2.3,0.5,3.7,0c0.1,0,5.4-2.5-9.1-47.2l-0.2-0.7c-1.8-5.6-3.6-12.2-3.6-12.2
							c-0.3-0.9,0.3-1.9,1.2-2.2c0.9-0.3,1.9,0.3,2.2,1.2c0,0.1,1.8,6.6,3.6,12.1l0.2,0.7c1.3,3.9,5.1,15.7,7.7,26.8
							c4.7,20.1,2.1,23.8-0.7,24.8C-140.7,477.1-141.8,477.3-142.8,477.3z"/>
					</g>
					<g id="XMLID_2240_">
						<path id="XMLID_2241_" class="st4" d="M-163.3,428.1c-0.8,0-1.5-0.5-1.7-1.3c-0.2-0.9,0.3-1.9,1.3-2.1l14.2-3.5
							c0.9-0.2,1.9,0.3,2.1,1.3c0.2,0.9-0.3,1.9-1.3,2.1l-14.2,3.5C-163,428.1-163.2,428.1-163.3,428.1z"/>
					</g>
					<g id="XMLID_2238_">
						<circle id="XMLID_2239_" class="st4" cx="-85.2" cy="437.7" r="2.3"/>
					</g>
					<g id="XMLID_2236_">
						<circle id="XMLID_2237_" class="st4" cx="-73.6" cy="437.7" r="2.3"/>
					</g>
					<g id="XMLID_2234_">
						<path id="XMLID_2235_" class="st4" d="M-80.9,461.3c-15.1,0-19.2-13.9-19.3-14.1c-0.3-0.9,0.3-1.9,1.2-2.2
							c0.9-0.3,1.9,0.3,2.2,1.2c0.1,0.5,3.5,11.5,15.9,11.5c12.6,0,17.9-11.3,18.1-11.8c0.4-0.9,1.4-1.3,2.3-0.9
							c0.9,0.4,1.3,1.4,0.9,2.3C-59.9,448-66,461.3-80.9,461.3z"/>
					</g>
					<g id="XMLID_2232_">
						<circle id="XMLID_2233_" class="st4" cx="-170.4" cy="393.3" r="2.3"/>
					</g>
					<g id="XMLID_2230_">
						<circle id="XMLID_2231_" class="st4" cx="-157.6" cy="399.5" r="2.3"/>
					</g>
					<g id="XMLID_2228_">
						<circle id="XMLID_2229_" class="st4" cx="-78.6" cy="359.3" r="2.3"/>
					</g>
					<g id="XMLID_2226_">
						<circle id="XMLID_2227_" class="st4" cx="-64.6" cy="351.8" r="2.3"/>
					</g>
					<g id="XMLID_2224_">
						<circle id="XMLID_2225_" class="st4" cx="-82.8" cy="345.5" r="2.3"/>
					</g>
					<g id="XMLID_2222_">
						<circle id="XMLID_2223_" class="st4" cx="-96.2" cy="347.9" r="2.3"/>
					</g>
				</g>
			</g>
		</g>
	</g>
</g>
</svg>
