<?xml version="1.0" encoding="utf-8"?>
<!-- Generator: Adobe Illustrator 19.0.0, SVG Export Plug-In . SVG Version: 6.00 Build 0)  -->
<svg version="1.1" id="Capa_1" xmlns="http://www.w3.org/2000/svg" xmlns:xlink="http://www.w3.org/1999/xlink" x="0px" y="0px"
	 viewBox="-198 318.7 198.7 205.2" style="enable-background:new -198 318.7 198.7 205.2;" xml:space="preserve">
<style type="text/css">
	.st0{opacity:0.15;}
	.st1{fill:#99C66B;}
	.st2{opacity:0.45;fill:url(#XMLID_6_);}
	.st3{fill:#FFFFFF;}
	.st4{fill:#0F4747;}
</style>
<g id="Nuevo_símbolo">
	<g id="Nuevo_símbolo_1_">
		<g id="Nuevo_símbolo_2_">
			<g id="Nuevo_símbolo_3_">
				<g id="Nuevo_símbolo_4_">
					<g id="Nuevo_símbolo_5_">
						<g id="Nuevo_símbolo_6_">
							<g id="Nuevo_símbolo_7_">
								<g id="Nuevo_símbolo_8_">
									<g id="Nuevo_símbolo_9_">
										<g id="Nuevo_símbolo_10_">
											<g id="Nuevo_símbolo_11_">
												<circle id="XMLID_5_" class="st0" cx="-98.7" cy="424.6" r="99.3"/>
												<circle id="XMLID_4_" class="st1" cx="-98.7" cy="418" r="99.3"/>
												<g id="XMLID_2_">
													
														<linearGradient id="XMLID_6_" gradientUnits="userSpaceOnUse" x1="-395.1385" y1="-295.6978" x2="-215.3646" y2="-295.6978" gradientTransform="matrix(4.489700e-011 1 -1 4.489700e-011 -394.3576 723.2827)">
														<stop  offset="0" style="stop-color:#FFFFFF"/>
														<stop  offset="0.4877" style="stop-color:#FFFFFF;stop-opacity:0"/>
													</linearGradient>
													<circle id="XMLID_3_" class="st2" cx="-98.7" cy="418" r="89.9"/>
												</g>
											</g>
											<path id="XMLID_1470_" class="st3" d="M-63.4,401.7c0,0-5.3-5.9-6.5-8.3c-1.1-2.4-3.4-9.6-5.2-9.2
												c-1.8,0.4-7.6,3.1-10.5,5.1s-3.6,6.1-8.5,6.2c-4.9,0.2-10.1-2.4-10.9-2.6s-3-0.7-6.7,1.6s-8.7,9.3-8.7,9.3
												s8.1,1.2,8.9,1.1c0.8-0.1,40.9,0,40.9,0l7.1-1.8V401.7z"/>
											<path id="XMLID_1469_" class="st3" d="M-163.6,394.5c0,0-3.6,5.9-4,8.6c-0.4,2.6-1.6,6.9,2,6.7c3.6-0.2,4.9-0.4,7.2-2.4
												c2.3-2.1,1.6-4.2,0-6c-1.6-1.8-3.9-2-4.1-3.9C-162.8,395.6-163.6,394.5-163.6,394.5z"/>
											<path id="XMLID_1468_" class="st3" d="M-150.7,421c0,0-6.4,5.7-7.2,7.8c-0.8,2-0.8,7.3,1.8,9c2.6,1.7,4.4,1.1,6.2,0
												c1.8-1.1,2.3-3.1,2.4-4.4s-0.3-5.1-1.5-7.1c-1.3-2,0-5.2,0-5.2H-150.7z"/>
											<path id="XMLID_1467_" class="st3" d="M-166.3,445.8c0,0-4,7-3.5,9.9s3.9,8.5,6.2,8.2c2.3-0.3,4.8-5.2,5.2-6.8
												s0.4-2.2-1.5-5.4c-1.9-3.2-3.4-2.4-3.7-4c-0.3-1.6,0.1-3.9-0.4-3.5C-164.4,444.7-166.3,445.8-166.3,445.8z"/>
											<g id="XMLID_1310_">
												<g id="XMLID_1465_">
													<path id="XMLID_1466_" class="st4" d="M-93.4,397.5c-0.6,0-1.1-0.3-1.5-0.8l-12.6-19.1l-12.2,1.7
														c-0.7,0.1-1.4-0.2-1.8-0.8l-8.1-13.6c-0.5-0.8-0.2-1.8,0.5-2.4l26.3-17.6c0.8-0.5,1.8-0.3,2.4,0.4l8.6,12
														c0.3,0.5,0.4,1,0.2,1.6l-4.9,14.6l10.9,15.5c0.6,0.8,0.4,1.9-0.4,2.4c-0.8,0.6-1.9,0.4-2.4-0.4L-99.8,375
														c-0.3-0.5-0.4-1-0.2-1.6l4.9-14.6l-7.1-9.9l-23.5,15.7l6.7,11.1l12.2-1.7c0.7-0.1,1.3,0.2,1.7,0.8l13.2,20
														c0.5,0.8,0.3,1.9-0.5,2.4C-92.7,397.4-93.1,397.5-93.4,397.5z"/>
												</g>
												<g id="XMLID_1461_">
													<path id="XMLID_1462_" class="st4" d="M-106.1,372.8C-106.1,372.8-106.1,372.8-106.1,372.8l-10-0.1
														c-0.6,0-1.1-0.3-1.5-0.8l-3.9-6c-0.3-0.4-0.3-0.9-0.3-1.3c0.1-0.5,0.4-0.9,0.8-1.1l16-10.5c0.7-0.5,1.7-0.3,2.3,0.3
														l4.2,4.9c0.5,0.5,0.6,1.3,0.2,2l-6.3,11.7C-104.8,372.4-105.4,372.8-106.1,372.8z M-115.1,369.2l8,0.1l5.2-9.7
														l-2.4-2.8l-13.3,8.7L-115.1,369.2z"/>
												</g>
												<g id="XMLID_1459_">
													<path id="XMLID_1460_" class="st4" d="M-120.3,406.2c-0.4,0-0.8-0.2-1.2-0.5c-0.7-0.6-0.8-1.8-0.1-2.5
														c2.4-2.6,10.4-11.3,13.5-12.2c2.2-0.7,4.2,0.4,6.2,1.4c1.5,0.7,3,1.5,4.5,1.5c1.8,0,3,0.1,3.8,0.1c0.2,0,0.4,0,0.5,0
														c0.1-0.1,0.3-0.2,0.4-0.3c2-1.3,3.1-2.2,3.4-2.7c0.8-1.7,1.5-2.8,3.2-4.3c2.9-2.4,6.3-4.7,9-3.9c3,0.9,7.6,6.9,8.6,9.6
														c0.7,1.7,4.7,6.5,7.1,9.2c0.6,0.7,0.6,1.8-0.1,2.5c-0.7,0.6-1.8,0.6-2.5-0.1c-1.1-1.2-6.7-7.5-7.8-10.2
														c-0.9-2.4-5-7.1-6.4-7.5c-0.4-0.1-1.7-0.1-5.7,3.2c-1.3,1.1-1.7,1.7-2.4,3.1c-0.7,1.6-2.8,3-4.6,4.2
														c-0.2,0.1-0.4,0.2-0.4,0.3c-0.7,0.6-1.5,0.6-2.6,0.5c-0.7,0-1.8-0.1-3.6-0.1c-2.3,0-4.3-1-6.1-1.9
														c-1.4-0.7-2.7-1.4-3.6-1.1c-1.5,0.4-7.4,6.2-11.9,11.2C-119.3,406-119.8,406.2-120.3,406.2z"/>
												</g>
												<g id="XMLID_1455_">
													<path id="XMLID_1456_" class="st4" d="M-119.1,416.2c-5,0-9.1-0.4-11.8-1.7c-2.2-1.1-3.3-3.1-2.9-5.5
														c0.5-2.8,3.2-6,5.3-6.3c1.9-0.3,12.3,0,14.3,0.1c0.1,0,0.1,0,0.2,0c0,0,2.9,0.4,6.3,0.4c2.4,0,14-0.5,24.3-0.9
														c5.3-0.2,10.3-0.4,13.6-0.5c1.8-0.1,3.7-0.2,5.5-0.3c9.4-0.5,15.6-0.8,16.4,2.9c0.5,2.5,1.8,9.2-4.1,10.3
														c-2.8,0.6-17.8,0.7-37,0.8c-6.3,0-11.7,0.1-14.9,0.1c-2.3,0-4.7,0.1-6.9,0.2C-113.8,416.1-116.6,416.2-119.1,416.2z
														 M-125,406.1c-1.5,0-2.6,0-3,0.1c-0.6,0.2-2.3,2.1-2.4,3.6c0,0.5,0.1,1,1.1,1.5c3.3,1.7,10.6,1.4,18.4,1.2
														c2.2-0.1,4.6-0.2,6.9-0.2c3.3-0.1,8.7-0.1,15-0.1c13.4-0.1,33.7-0.2,36.4-0.7c1.5-0.3,2.2-1.4,1.4-6.1
														c-1.3-0.9-8.2-0.5-12.8-0.3c-1.8,0.1-3.7,0.2-5.5,0.3c-3.3,0.1-8.3,0.3-13.6,0.5c-10.3,0.4-22,0.9-24.5,0.9
														c-3.4,0-6.1-0.4-6.7-0.5C-117.5,406.2-122,406.1-125,406.1z"/>
												</g>
												<g id="XMLID_1453_">
													<path id="XMLID_1454_" class="st4" d="M-116.9,473.8c-0.9,0-1.6-0.6-1.7-1.5l-6.9-55.6c-0.1-1,0.6-1.8,1.5-2
														c1-0.1,1.8,0.6,2,1.5l6.9,55.6c0.1,1-0.6,1.8-1.5,2C-116.7,473.8-116.8,473.8-116.9,473.8z"/>
												</g>
												<g id="XMLID_1449_">
													<path id="XMLID_1450_" class="st4" d="M-81.8,432.3C-81.8,432.3-81.8,432.3-81.8,432.3c-3.8,0-6.8-3.1-6.8-6.8
														c0,0,0,0,0,0c0-1.8,0.7-3.5,2-4.8c1.3-1.3,3-1.9,4.7-1.9c0,0,0,0,0,0c3.7,0,6.7,3.1,6.7,6.8
														C-75.1,429.3-78.1,432.3-81.8,432.3z M-85.1,425.5c0,0.9,0.3,1.7,0.9,2.3s1.4,1,2.3,1c0,0,0,0,0,0
														c1.8,0,3.2-1.4,3.3-3.2c0-0.9-0.3-1.7-0.9-2.3c-0.6-0.6-1.4-1-2.3-1c0,0,0,0,0,0c-0.9,0-1.7,0.3-2.3,0.9
														C-84.7,423.8-85.1,424.6-85.1,425.5L-85.1,425.5z"/>
												</g>
												<g id="XMLID_1447_">
													<path id="XMLID_1448_" class="st4" d="M-52,447.7c-1.5,0-3.3-0.2-5.1-0.7c-8.9-2.2-23.3-14.6-23.9-15.1
														c-0.7-0.6-0.8-1.7-0.2-2.5c0.6-0.7,1.7-0.8,2.5-0.2c0.1,0.1,14.3,12.4,22.4,14.4c7.6,1.9,9.6-1.1,10.5-3.9
														c0.9-2.9-1-7.5-2.8-9.2c-2.1-2-8.1-6.3-8.1-6.3c-0.8-0.6-1-1.7-0.4-2.4c0.6-0.8,1.7-1,2.4-0.4c0.3,0.2,6.2,4.5,8.5,6.6
														c2.5,2.4,5.1,8.4,3.7,12.8C-44,445.4-47.2,447.7-52,447.7z"/>
												</g>
												<g id="XMLID_1445_">
													<path id="XMLID_1446_" class="st4" d="M-52.5,441.4c-2.1,0-4.7-0.8-7-1.5c-4.9-1.5-17.1-10.4-18.5-11.4
														c-0.8-0.6-0.9-1.7-0.4-2.4c0.6-0.8,1.7-0.9,2.4-0.4c3.6,2.7,13.8,9.8,17.4,10.9c4.4,1.3,6.7,1.7,6.9,1.1
														c0.6-1.5-1.2-3.3-5.2-5.4c-0.9-0.4-1.2-1.5-0.7-2.4c0.4-0.9,1.5-1.2,2.4-0.7c3.8,2,8.7,5.1,6.9,9.7
														C-49.1,440.7-50.6,441.4-52.5,441.4z"/>
												</g>
												<g id="XMLID_1443_">
													<path id="XMLID_1444_" class="st4" d="M-56,440.8L-56,440.8c-1,0-1.8-0.8-1.8-1.8l0.2-25.6c0-1,0.8-1.7,1.8-1.7
														c0,0,0,0,0,0c1,0,1.7,0.8,1.7,1.8l-0.2,25.6C-54.3,440-55.1,440.8-56,440.8z"/>
												</g>
												<g id="XMLID_1441_">
													<path id="XMLID_1442_" class="st4" d="M-58.2,473.6C-58.2,473.6-58.2,473.6-58.2,473.6c-1.1-0.1-1.8-0.9-1.7-1.8
														l1.4-26.6c0.1-1,0.9-1.7,1.8-1.7c1,0.1,1.7,0.9,1.7,1.8l-1.4,26.6C-56.5,472.9-57.3,473.6-58.2,473.6z"/>
												</g>
												<g id="XMLID_1437_">
													<path id="XMLID_1438_" class="st4" d="M-163.8,412c-1.2,0-2.4-0.5-3.4-1.5c-1.9-1.9-2.9-5.4-2.6-7.4
														c0.3-2.4,4.2-9.5,4.9-10.9c0.3-0.6,1-1,1.7-0.9c0.7,0.1,1.3,0.5,1.5,1.2c0,0,0.6,1.8,1.3,4.1c0.2,0.7,0.6,1.1,1.3,1.8
														c0.8,0.7,1.7,1.6,2.6,3.2c0.8,1.5,0.7,3.4-0.3,5.3c-1.2,2.3-3.7,4.7-6.4,5.1C-163.4,412-163.6,412-163.8,412z
														 M-163.7,397.6c-1.4,2.7-2.5,5.2-2.6,6c-0.1,1,0.5,3.3,1.6,4.4c0.5,0.5,0.9,0.5,1,0.5c1.2-0.2,3-1.6,3.8-3.2
														c0.4-0.8,0.6-1.6,0.3-2.1c-0.5-1-1.2-1.6-1.8-2.2C-162.2,400.2-163.2,399.3-163.7,397.6
														C-163.7,397.6-163.7,397.6-163.7,397.6z"/>
												</g>
												<g id="XMLID_1317_">
													<path id="XMLID_1318_" class="st4" d="M-153.9,441.2c-1.5,0-2.9-0.7-3.9-2c-2.1-2.6-2.5-7.4-1.7-10.3
														c1-3.7,7.5-9.2,8.7-10.3c0.6-0.5,1.3-0.5,2-0.2c0.6,0.4,1,1.1,0.9,1.8c-0.2,1-0.4,4.1,0.1,5.8c0.2,0.7,0.6,1.5,0.9,2.3
														c0.8,1.6,1.6,3.5,1.4,5.6c-0.4,3.5-3.6,7.2-8.3,7.3C-153.8,441.2-153.9,441.2-153.9,441.2z M-151.6,424.2
														c-2.1,2.1-4.1,4.4-4.5,5.7c-0.6,2-0.2,5.6,1,7.2c0.5,0.6,0.9,0.7,1.2,0.7c3-0.1,4.7-2.6,4.9-4.2
														c0.1-1.1-0.5-2.3-1.1-3.7c-0.4-0.9-0.9-1.8-1.1-2.8C-151.5,426.2-151.6,425.2-151.6,424.2z"/>
												</g>
												<g id="XMLID_1313_">
													<path id="XMLID_1314_" class="st4" d="M-162.9,466c-1.3,0-2.8-0.5-4.1-1.4c-1.5-1-4.1-3.5-4.2-8.4
														c-0.1-7.2,5.8-12.7,6-13c0.5-0.5,1.2-0.6,1.8-0.3c0.6,0.3,1.1,0.8,1.1,1.5c0,0,0.1,2.2,0.4,4c0.1,0.2,0.8,0.8,1.4,1.2
														c1.2,0.9,2.6,2,3.7,3.9c0.9,1.6,0.9,3.8,0,6.2s-2.8,5.3-4.7,6C-161.8,465.9-162.3,466-162.9,466z M-165.3,449
														c-1.2,1.9-2.4,4.4-2.3,7.2c0,3.1,1.4,4.7,2.5,5.5c1.2,0.8,2.2,0.9,2.5,0.8c0.5-0.2,2-1.9,2.7-4.2
														c0.4-1.3,0.5-2.4,0.1-3c-0.7-1.2-1.7-2-2.8-2.8C-163.8,451.6-165,450.6-165.3,449z"/>
												</g>
												<g id="XMLID_1311_">
													<path id="XMLID_1312_" class="st4" d="M-140.6,476.8c-0.2,0-0.3,0-0.5,0c-4.9-0.2-7.8-2.6-9.4-4.6
														c-1.2,1.6-3.1,3.5-5.8,4.2c-4.6,1.2-12-2.2-12.9-2.6c-0.9-0.4-1.2-1.5-0.8-2.3s1.5-1.2,2.3-0.8
														c1.9,0.9,7.6,3.1,10.5,2.4c3.3-0.9,5.1-4.8,5.1-4.9c0.3-0.6,0.9-1,1.7-1c0.7,0,1.3,0.5,1.6,1.1c0.1,0.2,1.9,4.8,7.9,5
														c5.7,0.3,6.7-5.4,6.7-5.7c0.1-0.7,0.6-1.3,1.3-1.4c0.7-0.2,1.4,0.1,1.8,0.7c0.1,0.1,2.4,3,8.7,4
														c5.6,0.8,8.3-6.7,8.3-6.8c0.2-0.6,0.8-1.1,1.4-1.2c0.7-0.1,1.3,0.2,1.7,0.8c1.4,2.1,5.9,7.8,9.6,8.1
														c3.5,0.3,7-4.2,8-5.9c0.3-0.5,0.9-0.9,1.5-0.9c0,0,0,0,0,0c0.6,0,1.2,0.3,1.5,0.8c0.1,0.2,3.8,5.9,10,5.3
														c5.6-0.5,5.3-5.5,5.3-6.1c-0.1-0.8,0.4-1.5,1.1-1.8c0.7-0.3,1.5,0,2,0.6c1.4,1.9,6,6.8,10,7.4c4,0.6,6.3-6.6,6.3-6.7
														c0.2-0.7,0.9-1.2,1.7-1.3c0.8,0,1.4,0.5,1.7,1.2c0,0.1,1.9,5.6,6.5,5.7c0.1,0,0.1,0,0.2,0c4.6,0,8.1-5.9,8.1-5.9
														c0.4-0.6,1.1-1,1.8-0.9c0.7,0.1,1.3,0.6,1.4,1.3c0,0.1,1.5,6.3,6.4,6.7c1,0.1,1.7,0.9,1.6,1.9c-0.1,1-0.9,1.7-1.9,1.6
														c-4.5-0.4-6.9-3.6-8.2-6.2c-2,2.3-5.3,5.1-9.5,4.9c-3.9-0.2-6.4-2.5-7.8-4.6c-1.6,2.9-4.4,6.3-8.7,5.6
														c-3.8-0.6-7.4-3.5-9.7-5.9c-1,2.7-3.2,5.3-7.9,5.8c-5.7,0.5-9.7-2.7-11.8-4.9c-1.9,2.4-5.5,6-10,5.6
														c-4.2-0.4-8.2-4.5-10.4-7.3c-1.7,3-5.2,7.1-10.8,6.3c-4.2-0.6-7-2-8.7-3.3C-133,473.8-135.7,476.8-140.6,476.8z"/>
												</g>
											</g>
										</g>
									</g>
								</g>
							</g>
						</g>
					</g>
				</g>
			</g>
		</g>
	</g>
</g>
</svg>
