<?xml version="1.0" encoding="utf-8"?>
<!-- Generator: Adobe Illustrator 19.0.0, SVG Export Plug-In . SVG Version: 6.00 Build 0)  -->
<svg version="1.1" id="Capa_1" xmlns="http://www.w3.org/2000/svg" xmlns:xlink="http://www.w3.org/1999/xlink" x="0px" y="0px"
	 viewBox="-198 318.7 198.7 205.2" style="enable-background:new -198 318.7 198.7 205.2;" xml:space="preserve">
<style type="text/css">
	.st0{opacity:0.15;}
	.st1{fill:#99C66B;}
	.st2{opacity:0.45;fill:url(#XMLID_6_);}
	.st3{fill:#FFFFFF;}
	.st4{fill:#0F4747;}
</style>
<g id="Nuevo_símbolo">
	<g id="Nuevo_símbolo_1_">
		<g id="Nuevo_símbolo_2_">
			<circle id="XMLID_5_" class="st0" cx="-98.7" cy="424.6" r="99.3"/>
			<circle id="XMLID_4_" class="st1" cx="-98.7" cy="418" r="99.3"/>
			<g id="XMLID_2_">
				
					<linearGradient id="XMLID_6_" gradientUnits="userSpaceOnUse" x1="-395.1385" y1="-295.6978" x2="-215.3646" y2="-295.6978" gradientTransform="matrix(4.489700e-011 1 -1 4.489700e-011 -394.3576 723.2827)">
					<stop  offset="0" style="stop-color:#FFFFFF"/>
					<stop  offset="0.4877" style="stop-color:#FFFFFF;stop-opacity:0"/>
				</linearGradient>
				<circle id="XMLID_3_" class="st2" cx="-98.7" cy="418" r="89.9"/>
			</g>
		</g>
		<circle id="XMLID_2758_" class="st3" cx="-57.2" cy="440.2" r="25"/>
		<g id="XMLID_2740_">
			<g id="XMLID_2754_">
				<path id="XMLID_2755_" class="st4" d="M-57.2,466.7c-14.4,0-26.2-11.8-26.2-26.2s11.8-26.2,26.2-26.2S-31,426-31,440.5
					S-42.7,466.7-57.2,466.7z M-57.2,417.8c-12.5,0-22.7,10.2-22.7,22.7s10.2,22.7,22.7,22.7c12.5,0,22.7-10.2,22.7-22.7
					S-44.7,417.8-57.2,417.8z"/>
			</g>
			<g id="XMLID_2752_">
				<path id="XMLID_2753_" class="st4" d="M-80.8,452.1L-80.8,452.1l-77.3-0.4c-0.5,0-0.9-0.2-1.2-0.5c-0.3-0.3-0.5-0.8-0.5-1.2
					l0.4-68.2c0-1,0.8-1.7,1.8-1.7h0l108.8,0.4c0.5,0,0.9,0.2,1.2,0.5c0.3,0.3,0.5,0.8,0.5,1.2l-0.4,34.8c0,1-0.8,1.7-1.8,1.7
					c-1,0-1.7-0.8-1.7-1.8l0.4-33.1l-105.3-0.4l-0.4,64.7l75.5,0.4c1,0,1.7,0.8,1.7,1.8C-79.1,451.3-79.9,452.1-80.8,452.1z"/>
			</g>
			<g id="XMLID_2750_">
				<path id="XMLID_2751_" class="st4" d="M-104.1,423.7c-0.4,0-0.7-0.1-1.1-0.4l-51.3-39c-0.8-0.6-0.9-1.7-0.3-2.5
					c0.6-0.8,1.7-0.9,2.5-0.3l50.2,38.2l54.1-39.1c0.8-0.6,1.9-0.4,2.4,0.4c0.6,0.8,0.4,1.9-0.4,2.4l-55.2,39.8
					C-103.4,423.6-103.7,423.7-104.1,423.7z"/>
			</g>
			<g id="XMLID_2748_">
				<path id="XMLID_2749_" class="st4" d="M-154.2,449.3c-0.5,0-0.9-0.2-1.3-0.5c-0.7-0.7-0.7-1.8,0-2.5l35.5-34.3
					c0.7-0.7,1.8-0.7,2.5,0c0.7,0.7,0.7,1.8,0,2.5l-35.5,34.3C-153.3,449.1-153.7,449.3-154.2,449.3z"/>
			</g>
			<g id="XMLID_2746_">
				<path id="XMLID_2747_" class="st4" d="M-73.7,423.7c-0.5,0-1-0.2-1.4-0.7l-11-14.2c-0.6-0.8-0.5-1.9,0.3-2.5
					c0.8-0.6,1.9-0.5,2.5,0.3l11,14.2c0.6,0.8,0.5,1.9-0.3,2.5C-73,423.6-73.3,423.7-73.7,423.7z"/>
			</g>
			<g id="XMLID_2741_">
				<g id="XMLID_2742_">
					<path id="XMLID_2743_" class="st4" d="M-51,453.3c-2.5,1.1-4.6,1.5-7.5,1.5c-6.8,0-12.9-4.9-12.9-13c0-8.4,6.1-15.7,15.4-15.7
						c7.3,0,12.5,5,12.5,11.9c0,6-3.4,9.8-7.8,9.8c-1.9,0-3.3-1-3.5-3.2H-55c-1.3,2.1-3.1,3.2-5.3,3.2c-2.7,0-4.6-2-4.6-5.4
						c0-5,3.7-9.6,9.7-9.6c1.8,0,3.9,0.5,4.9,1l-1.2,7.6c-0.4,2.4-0.1,3.5,1,3.6c1.8,0,4-2.2,4-7c0-5.4-3.5-9.5-9.9-9.5
						c-6.3,0-11.8,5-11.8,12.8c0,6.9,4.4,10.8,10.6,10.8c2.1,0,4.3-0.5,6-1.3L-51,453.3z M-54.7,436.3c-0.3-0.1-0.7-0.2-1.3-0.2
						c-2.7,0-4.9,2.7-4.9,5.9c0,1.6,0.7,2.6,2.1,2.6c1.5,0,3.1-1.9,3.5-4.3L-54.7,436.3z"/>
				</g>
			</g>
		</g>
	</g>
</g>
</svg>
