<?xml version="1.0" encoding="utf-8"?>
<!-- Generator: Adobe Illustrator 19.0.0, SVG Export Plug-In . SVG Version: 6.00 Build 0)  -->
<svg version="1.1" id="Capa_1" xmlns="http://www.w3.org/2000/svg" xmlns:xlink="http://www.w3.org/1999/xlink" x="0px" y="0px"
	 viewBox="-198 318.7 198.7 205.2" style="enable-background:new -198 318.7 198.7 205.2;" xml:space="preserve">
<style type="text/css">
	.st0{opacity:0.15;}
	.st1{fill:#99C66B;}
	.st2{opacity:0.45;fill:url(#XMLID_6_);}
	.st3{fill:#FFFFFF;}
	.st4{fill:#0F4747;}
</style>
<g id="Nuevo_símbolo">
	<g id="Nuevo_símbolo_1_">
		<g id="Nuevo_símbolo_2_">
			<g id="Nuevo_símbolo_3_">
				<circle id="XMLID_5_" class="st0" cx="-98.7" cy="424.6" r="99.3"/>
				<circle id="XMLID_4_" class="st1" cx="-98.7" cy="418" r="99.3"/>
				<g id="XMLID_2_">
					
						<linearGradient id="XMLID_6_" gradientUnits="userSpaceOnUse" x1="-395.1385" y1="-295.6978" x2="-215.3646" y2="-295.6978" gradientTransform="matrix(4.489700e-011 1 -1 4.489700e-011 -394.3576 723.2827)">
						<stop  offset="0" style="stop-color:#FFFFFF"/>
						<stop  offset="0.4877" style="stop-color:#FFFFFF;stop-opacity:0"/>
					</linearGradient>
					<circle id="XMLID_3_" class="st2" cx="-98.7" cy="418" r="89.9"/>
				</g>
			</g>
			<path id="XMLID_2683_" class="st3" d="M-115.1,415.2l36.6,0.8l5.8,14.8l-19.7,16c0,0-5.8,1-6.5,0.9c-0.8-0.2-22.9-18-22.9-18
				L-115.1,415.2z"/>
			<g id="XMLID_2668_">
				<g id="XMLID_2679_">
					<path id="XMLID_2680_" class="st4" d="M-95.3,373.1c-0.2,0-0.5,0-0.7,0c-4.1-0.2-7.9-1.9-10.6-5c-2.8-3-4.2-6.9-4-11v0
						c0.2-4.1,1.9-7.9,5-10.6c3-2.8,6.9-4.2,11-4c4.1,0.2,7.9,1.9,10.6,5c2.8,3,4.2,6.9,4,11s-1.9,7.9-5,10.6
						C-87.9,371.7-91.5,373.1-95.3,373.1z M-95.4,345.9c-3,0-5.8,1.1-8,3.1c-2.3,2.1-3.7,5.1-3.8,8.2v0c-0.1,3.2,1,6.2,3.1,8.5
						c2.1,2.3,5.1,3.7,8.2,3.8c3.2,0.1,6.2-1,8.5-3.1c2.3-2.1,3.7-5.1,3.8-8.2c0.1-3.2-1-6.2-3.1-8.5c-2.1-2.3-5.1-3.7-8.2-3.8
						C-95,345.9-95.2,345.9-95.4,345.9z"/>
				</g>
				<g id="XMLID_2677_">
					<path id="XMLID_2678_" class="st4" d="M-84,493.7c-1.9,0-3.9-0.4-5.5-1.2c-2.5-1.2-4-3.2-4.3-5.7c-0.6-5.1,6.4-15.3,13.4-24.7
						c0.4-0.5,0.7-1,1-1.3c0.2-1.6-5.7-7.8-12.6-13c-0.8-0.6-0.9-1.7-0.3-2.5c0.6-0.8,1.7-0.9,2.5-0.3c6.3,4.8,16.5,13.5,13.3,17.8
						c-0.3,0.3-0.6,0.8-1,1.4c-8.8,11.8-13.1,19.2-12.8,22.1c0.2,1.3,1,2.3,2.4,3c2.5,1.2,5.7,0.9,6.8,0.2
						c2.2-1.3,17-20.1,23.4-28.8c3.2-4.3-2.3-11.2-6.8-16.6c-0.8-0.9-1.5-1.9-2.2-2.7c-4.7-6.2-10.8-17.6-12.6-22.3
						c-1.7-4.6-2.6-19.8-2.6-20.4c0-0.7,0.4-1.4,1.1-1.7c0.1-0.1,3.5-1.5,7.3-2c2.8-0.4,6.2-0.3,9.9-0.2c4.2,0.1,8.6,0.3,11.9-0.4
						c2.1-0.4,3.1-3,3.1-5.2c0-2.8-1.5-6.4-5.9-7.3c-9.2-1.9-46-2.8-46.4-2.8c-10,0.1-37.2,0.6-42.2,1.8c-3,0.8-5,4-5.5,6.8
						c-0.3,2,0.1,3.7,1.3,4.4c2.7,1.8,8.4,1.2,13.5,0.8c2.4-0.2,4.7-0.4,6.8-0.4c1.3,0,2.4,0,3.4,0c4.8-0.1,7.4-0.1,8.8,2.3
						c1.5,2.5,1.5,20,1.2,21.2c-0.2,0.6-0.8,1.9-2.1,4.4c-1.4,2.6-3.1,5.9-3.7,7.5c-0.5,1.5-2.5,5-5.8,10.5
						c-3.1,5.2-6.9,11.7-7.6,13.9c-1.5,4.5-1.9,15.5,7.4,24.5c6.5,6.2,14.4,13.4,19.2,13.1c1-0.1,1.8-0.5,2.5-1.3
						c5.2-6.4-0.6-12.7-3.3-15.1c-6.1-5.4-11.6-11.1-9.8-16.5c1.5-4.6,11.5-12.7,12.6-13.6c0.8-0.6,1.9-0.5,2.5,0.3
						c0.6,0.8,0.5,1.9-0.3,2.5c-3.9,3.2-10.5,9.2-11.4,12c-1.2,3.5,4.4,9,8.7,12.8c7.2,6.3,8.6,13.9,3.8,19.9c-1.3,1.6-3,2.5-5,2.6
						c-4.9,0.3-11.2-3.8-21.8-14.1c-10.5-10.2-10-22.9-8.2-28.1c0.8-2.5,4.4-8.6,7.9-14.6c2.5-4.3,5.1-8.7,5.5-9.9
						c0.7-1.9,2.4-5.1,3.9-8c0.8-1.5,1.8-3.3,1.9-3.8c0.3-1.9,0-16.6-0.8-18.5c-0.4-0.6-2.5-0.6-5.8-0.5c-1,0-2.2,0-3.5,0
						c-1.9,0-4.2,0.2-6.5,0.4c-5.9,0.5-12.1,1.1-15.7-1.3c-2.3-1.5-3.4-4.5-2.8-8c0.6-3.8,3.5-8.4,8.1-9.6c6.4-1.6,41.5-1.9,43-1.9
						c1.6,0,37.5,0.9,47,2.9c6,1.3,8.7,6.3,8.7,10.7c0,4.4-2.4,7.9-5.9,8.6c-3.6,0.7-8.2,0.6-12.7,0.5c-3.5-0.1-6.8-0.2-9.3,0.1
						c-2.1,0.3-4.1,0.9-5.3,1.3c0.3,5,1.2,15,2.3,18.1c1.7,4.4,7.6,15.6,12.1,21.4c0.6,0.8,1.3,1.7,2.1,2.6
						c4.9,6.1,11.6,14.4,6.9,20.9c-3.3,4.6-21,27.7-24.4,29.7C-80.5,493.3-82.2,493.7-84,493.7z"/>
				</g>
				<g id="XMLID_2675_">
					<path id="XMLID_2676_" class="st4" d="M-77.9,418.1C-77.9,418.1-77.9,418.1-77.9,418.1l-37.4-0.7c-1,0-1.7-0.8-1.7-1.8
						c0-1,0.9-1.7,1.8-1.7l37.4,0.7c1,0,1.7,0.8,1.7,1.8C-76.1,417.3-76.9,418.1-77.9,418.1z"/>
				</g>
				<g id="XMLID_2673_">
					<path id="XMLID_2674_" class="st4" d="M-95.3,449.4c-1.4,0-2.9-0.6-4.4-1.2c-0.7-0.3-1.5-0.6-2.2-0.8
						c-2.5-0.8-15.5-11.7-21-16.4c-0.7-0.6-0.8-1.7-0.2-2.5c0.6-0.7,1.7-0.8,2.5-0.2c8.5,7.3,18.1,15.1,19.7,15.7
						c0.8,0.3,1.7,0.6,2.5,1c1.1,0.5,2.6,1.1,3.2,1c1.6-0.9,12-9.3,21.1-16.9c0.7-0.6,1.8-0.5,2.5,0.2c0.6,0.7,0.5,1.8-0.2,2.5
						c-9.2,7.7-20.5,17-22.2,17.6C-94.5,449.3-94.9,449.4-95.3,449.4z"/>
				</g>
				<g id="XMLID_2671_">
					<path id="XMLID_2672_" class="st4" d="M-100.1,447.7c-0.7,0-1.3-0.4-1.6-1.1c0,0-1.3-3-3.5-8.5c-2.4-5.9-1.8-20.9-1.8-21.5
						c0-1,0.9-1.7,1.8-1.7c1,0,1.7,0.9,1.7,1.8c-0.2,4.1-0.2,15.7,1.5,20c2.2,5.5,3.5,8.4,3.5,8.4c0.4,0.9,0,1.9-0.9,2.3
						C-99.6,447.7-99.8,447.7-100.1,447.7z"/>
				</g>
				<g id="XMLID_2669_">
					<path id="XMLID_2670_" class="st4" d="M-94.3,448.7c-0.2,0-0.4,0-0.6-0.1c-0.9-0.4-1.3-1.4-1-2.3c0-0.1,4.3-10.7,5.5-15.1
						c1.2-4.3,1.3-14.1,1.3-14.2c0-1,0.8-1.7,1.7-1.7c0,0,0,0,0,0c1,0,1.7,0.8,1.7,1.8c0,0.4-0.2,10.4-1.5,15.1
						c-1.3,4.6-5.4,15-5.6,15.4C-93,448.3-93.6,448.7-94.3,448.7z"/>
				</g>
			</g>
		</g>
	</g>
</g>
</svg>
