<?xml version="1.0" encoding="utf-8"?>
<!-- Generator: Adobe Illustrator 19.0.0, SVG Export Plug-In . SVG Version: 6.00 Build 0)  -->
<svg version="1.1" id="Capa_1" xmlns="http://www.w3.org/2000/svg" xmlns:xlink="http://www.w3.org/1999/xlink" x="0px" y="0px"
	 viewBox="-198 318.7 198.7 205.2" style="enable-background:new -198 318.7 198.7 205.2;" xml:space="preserve">
<style type="text/css">
	.st0{opacity:0.15;}
	.st1{fill:#99C66B;}
	.st2{opacity:0.45;fill:url(#XMLID_6_);}
	.st3{fill:#FFFFFF;}
	.st4{fill:#0F4747;}
</style>
<g id="Nuevo_símbolo">
	<g id="Nuevo_símbolo_1_">
		<g id="Nuevo_símbolo_2_">
			<g id="Nuevo_símbolo_3_">
				<g id="Nuevo_símbolo_4_">
					<g id="Nuevo_símbolo_5_">
						<circle id="XMLID_5_" class="st0" cx="-98.7" cy="424.6" r="99.3"/>
						<circle id="XMLID_4_" class="st1" cx="-98.7" cy="418" r="99.3"/>
						<g id="XMLID_2_">
							
								<linearGradient id="XMLID_6_" gradientUnits="userSpaceOnUse" x1="-395.1385" y1="-295.6978" x2="-215.3646" y2="-295.6978" gradientTransform="matrix(4.489700e-011 1 -1 4.489700e-011 -394.3576 723.2827)">
								<stop  offset="0" style="stop-color:#FFFFFF"/>
								<stop  offset="0.4877" style="stop-color:#FFFFFF;stop-opacity:0"/>
							</linearGradient>
							<circle id="XMLID_3_" class="st2" cx="-98.7" cy="418" r="89.9"/>
						</g>
					</g>
					<path id="XMLID_2354_" class="st3" d="M-86.1,382.4c0,0-16.5-0.6-22.8,9.5c-6.3,10-7.2,24.7-1.7,30.8
						c5.6,6.1,17.8,12.8,26,12.1c8.2-0.7,19.7-6.5,22.5-11.9c2.8-5.4,4.8-18.4,2.2-24.7c-2.6-6.3-10.6-11.9-16.2-13.2
						C-81.6,383.7-86.1,382.4-86.1,382.4z"/>
					<g id="XMLID_2321_">
						<g id="XMLID_2350_">
							<path id="XMLID_2351_" class="st4" d="M-100.2,480.8c-1.7,0-3.1-0.3-4.2-1c-1.2-0.8-2.1-2-2.3-3.5c0-0.3,0-0.5,0-0.8
								c0.3-1.2,7.9-28.3,34.5-35.6c17.4-4.8,19.2-12.5,20.5-18.1c0.6-2.5,1.1-4.9,3.1-6.4c11.6-9,23.3-6.9,29.7-0.9
								c4.7,4.4,6,10.4,3.1,14.6c-0.4,0.6-0.9,1.3-1.4,2.1c-7,10.4-23.4,34.8-45.1,39.8c-7,1.6-13.5,3.6-19.3,5.4
								C-89.8,478.9-95.9,480.8-100.2,480.8z M-103.2,476.1c0.2,0.5,0.4,0.7,0.6,0.8c2.5,1.5,10.9-1,19.8-3.7
								c5.8-1.8,12.5-3.8,19.5-5.5c20.4-4.7,36.2-28.3,43-38.4c0.5-0.8,1-1.5,1.4-2.1c1.9-2.7,0.8-6.9-2.6-10.1
								c-4.9-4.6-14.5-7.2-25.1,1.1c-0.9,0.7-1.3,2.4-1.8,4.4c-1.4,6.1-3.5,15.4-22.9,20.7C-94.2,449.7-102.1,472.7-103.2,476.1z"/>
						</g>
						<g id="XMLID_2348_">
							<path id="XMLID_2349_" class="st4" d="M-132.4,493.3c-0.6,0-1.1-0.3-1.5-0.8c-0.5-0.8-0.3-1.9,0.5-2.4
								c0.2-0.2,23.6-15.5,26-35.1c1.1-8.6-2.1-16.8-9.3-24.6c-21.7-23.2-59.6,1-59.9,1.2c-0.8,0.5-1.9,0.3-2.4-0.5
								c-0.5-0.8-0.3-1.9,0.5-2.4c0.4-0.3,40.7-26.1,64.4-0.7c8,8.5,11.4,17.7,10.2,27.4c-2.6,21.3-26.6,37-27.6,37.6
								C-131.8,493.2-132.1,493.3-132.4,493.3z"/>
						</g>
						<g id="XMLID_2344_">
							<path id="XMLID_2345_" class="st4" d="M-86.2,436.7c-16.6,0-30.2-12.6-30.2-28s13.5-28,30.2-28c16.6,0,30.2,12.6,30.2,28
								S-69.6,436.7-86.2,436.7z M-86.2,384.2c-14.7,0-26.7,11-26.7,24.5s12,24.5,26.7,24.5c14.7,0,26.7-11,26.7-24.5
								S-71.5,384.2-86.2,384.2z"/>
						</g>
						<g id="XMLID_2342_">
							<ellipse id="XMLID_2343_" class="st4" cx="-96.9" cy="415.4" rx="5.9" ry="5.2"/>
						</g>
						<g id="XMLID_2340_">
							<path id="XMLID_2341_" class="st4" d="M-85.8,402.2c-0.4,0-0.9-0.2-1.2-0.5l-7.7-7.3c-0.7-0.7-0.7-1.8-0.1-2.5
								c0.7-0.7,1.8-0.7,2.5-0.1l7.7,7.3c0.7,0.7,0.7,1.8,0.1,2.5C-84.9,402.1-85.4,402.2-85.8,402.2z"/>
						</g>
						<g id="XMLID_2338_">
							<path id="XMLID_2339_" class="st4" d="M-73.6,418.8c-0.6,0-1.1-0.3-1.5-0.8l-5.6-8.5c-0.5-0.8-0.3-1.9,0.5-2.4
								c0.8-0.5,1.9-0.3,2.4,0.5l5.6,8.5c0.5,0.8,0.3,1.9-0.5,2.4C-72.9,418.8-73.2,418.8-73.6,418.8z"/>
						</g>
						<g id="XMLID_2334_">
							<g id="XMLID_2335_">
								<path id="XMLID_2336_" class="st4" d="M-159,385.1l2.2-6c0.4-1,0.7-1.8,1.2-2.8l0,0l-5.2,1.8l-1-2.9l9.7-3.3l0.7,2.2
									l-2.1,5.7c-0.4,1-0.7,2-1.2,2.8l0,0l5.7-1.9l1,2.9l-10.3,3.5L-159,385.1z"/>
							</g>
						</g>
						<g id="XMLID_2330_">
							<g id="XMLID_2331_">
								<path id="XMLID_2332_" class="st4" d="M-102.4,364.3l3.8-5.1c0.7-0.9,1.2-1.5,1.9-2.3l0-0.1l-5.5,0.2l-0.1-3.1l10.3-0.4
									l0.1,2.3l-3.6,4.9c-0.7,0.8-1.3,1.7-2,2.4l0,0.1l6-0.2l0.1,3.1l-10.9,0.4L-102.4,364.3z"/>
							</g>
						</g>
						<g id="XMLID_2326_">
							<g id="XMLID_2327_">
								<path id="XMLID_2328_" class="st4" d="M-73.6,359.8l7.2-5.8c1.3-1,2.3-1.7,3.5-2.5l0-0.1l-7.8-1.7l1-4.4l14.6,3.3l-0.7,3.3
									l-6.9,5.5c-1.2,0.9-2.4,1.9-3.6,2.6l0,0.1l8.5,1.9l-1,4.4l-15.5-3.5L-73.6,359.8z"/>
							</g>
						</g>
						<g id="XMLID_2322_">
							<g id="XMLID_2323_">
								<path id="XMLID_2324_" class="st4" d="M-134.6,380.4l3.9-9.7c0.7-1.7,1.3-2.9,2.1-4.5l0-0.1l-8.7,2.7l-1.5-4.9l16.2-5
									l1.1,3.7l-3.7,9.3c-0.7,1.6-1.3,3.2-2.1,4.6l0,0.1l9.5-2.9l1.5,4.9l-17.2,5.3L-134.6,380.4z"/>
							</g>
						</g>
					</g>
				</g>
			</g>
		</g>
	</g>
</g>
</svg>
