<?xml version="1.0" encoding="utf-8"?>
<!-- Generator: Adobe Illustrator 19.0.0, SVG Export Plug-In . SVG Version: 6.00 Build 0)  -->
<svg version="1.1" id="Capa_1" xmlns="http://www.w3.org/2000/svg" xmlns:xlink="http://www.w3.org/1999/xlink" x="0px" y="0px"
	 viewBox="-198 318.7 198.7 205.2" style="enable-background:new -198 318.7 198.7 205.2;" xml:space="preserve">
<style type="text/css">
	.st0{opacity:0.15;}
	.st1{fill:#99C66B;}
	.st2{opacity:0.45;fill:url(#XMLID_6_);}
	.st3{fill:#FFFFFF;}
	.st4{fill:#0F4747;}
</style>
<g id="Nuevo_símbolo">
	<g id="Nuevo_símbolo_1_">
		<g id="Nuevo_símbolo_2_">
			<g id="Nuevo_símbolo_3_">
				<g id="Nuevo_símbolo_4_">
					<g id="Nuevo_símbolo_5_">
						<g id="Nuevo_símbolo_6_">
							<g id="Nuevo_símbolo_7_">
								<g id="Nuevo_símbolo_8_">
									<g id="Nuevo_símbolo_9_">
										<circle id="XMLID_5_" class="st0" cx="-98.7" cy="424.6" r="99.3"/>
										<circle id="XMLID_4_" class="st1" cx="-98.7" cy="418" r="99.3"/>
										<g id="XMLID_2_">
											
												<linearGradient id="XMLID_6_" gradientUnits="userSpaceOnUse" x1="-395.1385" y1="-295.6978" x2="-215.3646" y2="-295.6978" gradientTransform="matrix(4.489700e-011 1 -1 4.489700e-011 -394.3576 723.2827)">
												<stop  offset="0" style="stop-color:#FFFFFF"/>
												<stop  offset="0.4877" style="stop-color:#FFFFFF;stop-opacity:0"/>
											</linearGradient>
											<circle id="XMLID_3_" class="st2" cx="-98.7" cy="418" r="89.9"/>
										</g>
									</g>
									<polygon id="XMLID_2400_" class="st3" points="-87.6,384.3 -75.1,391.8 -60.5,366.8 -47.8,370.6 -73.6,401 -90.2,389.7 
																			"/>
									<g id="XMLID_2379_">
										<g id="XMLID_2396_">
											<path id="XMLID_2397_" class="st4" d="M-88,452.1c-1.6,0-3.3-0.1-5-0.4c-14.6-2.5-36.3-13.8-39.3-20.5
												c-2.6-5.6-2.9-7.4-3-7.7c-0.1-0.7,0.2-1.4,0.9-1.8l36.4-20.6c0.4-0.2,0.8-0.3,1.3-0.2c0.7,0.2,16.4,4,23.7,8.2
												c7.6,4.4,17.3,18.8,13.8,27C-62.2,443.2-74.5,452.1-88,452.1z M-131.5,424.1c0.3,1,1,2.8,2.3,5.7
												c2.1,4.6,21.8,15.9,36.7,18.5c14.1,2.4,27.4-7.3,30-13.5c2.4-5.8-5.4-18.6-12.4-22.6c-6.1-3.5-19.1-6.9-22.1-7.6
												L-131.5,424.1z"/>
										</g>
										<g id="XMLID_2392_">
											<path id="XMLID_2393_" class="st4" d="M-133.6,425c-0.4,0-0.8-0.1-1.1-0.4c-0.3-0.3-7.9-6.4-12.8-16.5
												c-5.2-10.7-4.4-26.8-2.1-37.3c2.5-11.8,20-17.4,20.8-17.7c0.2-0.1,0.4-0.1,0.5-0.1c0.6-0.3,1-0.5,1.1-0.6
												c0.1,0,0.2-0.1,0.3-0.1c0.7-0.2,16.9-5,24.6,4.8c7.4,9.4,6.9,44,6.9,45.5c0,1-0.8,1.7-1.8,1.7c-1,0-1.7-0.8-1.7-1.8
												c0.2-9.7-0.6-36.3-6.1-43.3c-5.9-7.5-19.2-4.1-20.7-3.7c-1.3,0.7-13.8,7.5-15.9,21.2c-2.3,14.8,9.6,45.5,9.7,45.8
												c0.3,0.7,0,1.6-0.6,2C-132.8,424.9-133.2,425-133.6,425z M-138.6,361.9c-3.5,2.4-6.6,5.7-7.5,9.6
												c-2.2,10-3,25.2,1.8,35.1c1.9,3.9,4.3,7.2,6.4,9.8c-3.5-10.3-8.9-28.9-7.2-40.1C-144.1,370.3-141.5,365.5-138.6,361.9z"
												/>
										</g>
										<g id="XMLID_2390_">
											<path id="XMLID_2391_" class="st4" d="M-96.2,467.1c-12.4,0-29.2-7.5-34.2-15.7c-5.3-8.6-5.6-26.8-5.6-27.5
												c0-1,0.8-1.8,1.7-1.8c0,0,0,0,0,0c1,0,1.7,0.8,1.7,1.7c0,0.2,0.4,18,5.1,25.8c4.7,7.7,22.2,14.9,33.4,13.9
												c11.7-1.1,23.3-7,26.5-13.6c3.5-7.2,5.7-16.1,5.7-16.2c0.2-0.9,1.2-1.5,2.1-1.3c0.9,0.2,1.5,1.2,1.3,2.1
												c-0.1,0.4-2.4,9.3-6,16.8c-3.7,7.7-16.3,14.4-29.3,15.6C-94.5,467.1-95.4,467.1-96.2,467.1z"/>
										</g>
										<g id="XMLID_2388_">
											<path id="XMLID_2389_" class="st4" d="M-99.6,485c-12.7,0-23.2-7-23.7-7.3c-0.5-0.3-0.8-0.9-0.8-1.6l1.2-17.6
												c0.1-1,0.9-1.7,1.9-1.6c1,0.1,1.7,0.9,1.6,1.9l-1.1,16.5c2.8,1.7,12.2,6.7,22.6,6.1c10-0.6,17.2-4.4,19.7-5.9l-2.9-13.3
												c-0.2-0.9,0.4-1.9,1.3-2.1c0.9-0.2,1.9,0.4,2.1,1.3l3.2,14.5c0.2,0.7-0.1,1.4-0.7,1.8c-0.4,0.3-9,6.4-22.5,7.2
												C-98.4,485-99,485-99.6,485z"/>
										</g>
										<g id="XMLID_2384_">
											<path id="XMLID_2385_" class="st4" d="M-88.3,443.2c-1.9,0-3.8-0.2-5.8-0.5c-6.6-1.1-25.4-10.4-26.6-17.1
												c-1.2-6.2,15.5-12.7,22.7-15.2c0.3-0.1,0.6-0.1,0.9-0.1c0.1,0,5.1,1,10.6,2.4c4.6,1.2,12.1,7.5,15.4,13
												c1.7,2.8,2.3,5.3,1.7,7.4C-71,439.2-78.8,443.2-88.3,443.2z M-97.4,413.8c-11.7,4.1-20.3,9.3-19.9,11.1
												c0.8,4.1,16.7,13.2,23.8,14.3c11.2,1.9,19.5-2.2,20.7-7c0.3-1.1-0.2-2.8-1.3-4.7c-3-5.1-9.8-10.5-13.2-11.4
												C-91.9,415-96,414.1-97.4,413.8z"/>
										</g>
										<g id="XMLID_2380_">
											<path id="XMLID_2381_" class="st4" d="M-73.5,402.6c-0.4,0-0.7-0.1-1-0.3l-15.7-11.2c-0.5-0.4-0.8-1.1-0.7-1.7l1-6
												c0.1-0.6,0.5-1.1,1-1.3c0.5-0.2,1.2-0.2,1.7,0.2l11.1,7.5l13.4-23.6c0.4-0.7,1.1-1,1.9-0.9l13.5,2.8
												c0.6,0.1,1.1,0.6,1.3,1.1c0.2,0.6,0.1,1.2-0.3,1.7l-25.7,31.1C-72.5,402.3-73,402.6-73.5,402.6z M-87.3,388.8l13.5,9.6
												l22.8-27.6l-9.4-1.9L-74.1,393c-0.2,0.4-0.6,0.7-1.1,0.8c-0.5,0.1-1,0-1.4-0.3l-10.4-7.1L-87.3,388.8z"/>
										</g>
									</g>
								</g>
							</g>
						</g>
					</g>
				</g>
			</g>
		</g>
	</g>
</g>
</svg>
