<?xml version="1.0" encoding="utf-8"?>
<!-- Generator: Adobe Illustrator 19.0.0, SVG Export Plug-In . SVG Version: 6.00 Build 0)  -->
<svg version="1.1" id="Capa_1" xmlns="http://www.w3.org/2000/svg" xmlns:xlink="http://www.w3.org/1999/xlink" x="0px" y="0px"
	 viewBox="-198 318.7 198.7 205.2" style="enable-background:new -198 318.7 198.7 205.2;" xml:space="preserve">
<style type="text/css">
	.st0{opacity:0.15;}
	.st1{fill:#99C66B;}
	.st2{opacity:0.45;fill:url(#XMLID_10_);}
	.st3{fill:#FFFFFF;}
	.st4{fill:#0F4747;}
</style>
<g id="Nuevo_símbolo">
	<g id="Nuevo_símbolo_2">
		<circle id="XMLID_9_" class="st0" cx="-98.7" cy="424.6" r="99.3"/>
		<circle id="XMLID_8_" class="st1" cx="-98.7" cy="418" r="99.3"/>
		<g id="XMLID_6_">
			
				<linearGradient id="XMLID_10_" gradientUnits="userSpaceOnUse" x1="-395.1385" y1="-295.6978" x2="-215.3646" y2="-295.6978" gradientTransform="matrix(4.489700e-011 1 -1 4.489700e-011 -394.3576 723.2827)">
				<stop  offset="0" style="stop-color:#FFFFFF"/>
				<stop  offset="0.4877" style="stop-color:#FFFFFF;stop-opacity:0"/>
			</linearGradient>
			<circle id="XMLID_7_" class="st2" cx="-98.7" cy="418" r="89.9"/>
		</g>
	</g>
	<path id="XMLID_2850_" class="st3" d="M-80.2,440.4l-78.9-4.4c0,0-4,8.2-2.9,12.6c1.1,4.4,16.4,23.5,24.9,27.4
		c8.5,3.8,15.1,4.8,20,1.9s36.1-35.9,36.1-35.9L-80.2,440.4z"/>
	<g id="XMLID_2819_">
		<g id="XMLID_2846_">
			<path id="XMLID_2847_" class="st4" d="M-125.5,481.7c-4.9,0-10.6-1.7-16.5-7.6c-2.8-2.8-5.5-5.1-7.8-7.2
				c-4.7-4.1-8.8-7.7-11.1-12.3c-4.1-8-5.8-14.7,8.1-29c11.2-11.5,35.4-32.1,45.7-40.9c2.2-1.9,3.9-3.3,4.1-3.6
				c2.8-2.8,5.7-2.8,8.6,0c0.3,0.2,24.1,23.8,29.2,28.8c0.7,0.7,1.3,1.3,1.9,1.8c4.9,4.5,4.6,6.7-1.7,14.6
				c-5.2,6.5-45.2,52-52.8,54.2C-120.1,481.1-122.7,481.7-125.5,481.7z M-98.8,382.5c-0.6,0-1.1,0.5-1.7,1.1
				c-0.3,0.3-1.3,1.2-4.4,3.7c-9.4,8-34.4,29.3-45.5,40.7c-13.3,13.6-10.6,18.9-7.5,25c2.1,4.1,5.7,7.3,10.3,11.3
				c2.4,2.1,5.2,4.5,8,7.4c7.9,7.9,15.2,7.1,20.7,5.5c5.6-1.6,42.6-42.5,51-53c5.4-6.8,5.2-7,2.1-9.9c-0.6-0.5-1.3-1.2-2-1.9
				c-5-5-28.9-28.6-29.2-28.8l0,0C-97.7,382.8-98.3,382.5-98.8,382.5z"/>
		</g>
		<g id="XMLID_2844_">
			<path id="XMLID_2845_" class="st4" d="M-123.7,427.7c-0.5,0-0.9-0.2-1.2-0.5l-8.5-8.6c-0.7-0.7-0.7-1.8,0-2.5
				c0.7-0.7,1.8-0.7,2.5,0l8.5,8.6c0.7,0.7,0.7,1.8,0,2.5C-122.8,427.6-123.2,427.7-123.7,427.7z"/>
		</g>
		<g id="XMLID_2842_">
			<path id="XMLID_2843_" class="st4" d="M-111,417c-0.5,0-0.9-0.2-1.2-0.5l-8.5-8.6c-0.7-0.7-0.7-1.8,0-2.5c0.7-0.7,1.8-0.7,2.5,0
				l8.5,8.6c0.7,0.7,0.7,1.8,0,2.5C-110.1,416.8-110.6,417-111,417z"/>
		</g>
		<g id="XMLID_2840_">
			<path id="XMLID_2841_" class="st4" d="M-99.7,405.9c-0.5,0-0.9-0.2-1.2-0.5l-8.5-8.6c-0.7-0.7-0.7-1.8,0-2.5
				c0.7-0.7,1.8-0.7,2.5,0l8.5,8.6c0.7,0.7,0.7,1.8,0,2.5C-98.8,405.8-99.3,405.9-99.7,405.9z"/>
		</g>
		<g id="XMLID_2838_">
			<path id="XMLID_2839_" class="st4" d="M-79.6,442C-79.6,442-79.6,442-79.6,442l-80-3.8c-1,0-1.7-0.9-1.7-1.8c0-1,0.8-1.7,1.8-1.7
				l79.9,3.8c1,0,1.7,0.9,1.7,1.8C-77.9,441.3-78.6,442-79.6,442z"/>
		</g>
		<g id="XMLID_2834_">
			<path id="XMLID_2835_" class="st4" d="M-53.9,414.7c-0.6,0-1.2-0.1-1.9-0.5c-3.4-1.6-17.5-15.6-31.7-29.8
				c-3.7-3.7-6.7-6.7-7.4-7.3c-0.7-0.6-1-1.5-1-2.4c0.3-3.6,7.8-8.8,11-10.9c0.7-0.5,1.6-0.3,2.2,0.2c0.2,0.2,22.1,22.8,29.8,30.1
				c7.4,7,9.4,8.9,6.4,13.3C-48.2,410.7-50.7,414.7-53.9,414.7z M-92.2,374.8c1,1,3.6,3.5,7.2,7.2c9,9,27.6,27.6,30.8,29.1
				c1.2,0.6,3.7-3.4,4.9-5.4c0,0,0-0.1,0.1-0.1c1.2-1.8,1.3-1.9-5.9-8.8c-6.8-6.5-24.5-24.6-28.9-29.2
				C-88.1,370.4-91.6,373.5-92.2,374.8z"/>
		</g>
		<g id="XMLID_2832_">
			<path id="XMLID_2833_" class="st4" d="M-86.5,382.5c-0.5,0-1-0.2-1.3-0.6c-0.6-0.7-0.5-1.8,0.2-2.5l9.8-8.1
				c0.7-0.6,1.8-0.5,2.5,0.2c0.6,0.7,0.5,1.8-0.2,2.5l-9.8,8.1C-85.7,382.3-86.1,382.5-86.5,382.5z"/>
		</g>
		<g id="XMLID_2830_">
			<path id="XMLID_2831_" class="st4" d="M-79.6,390.3c-0.4,0-0.9-0.2-1.2-0.5c-0.7-0.7-0.7-1.8,0-2.5l9.2-9.5
				c0.7-0.7,1.8-0.7,2.5,0c0.7,0.7,0.7,1.8,0,2.5l-9.2,9.5C-78.6,390.1-79.1,390.3-79.6,390.3z"/>
		</g>
		<g id="XMLID_2828_">
			<path id="XMLID_2829_" class="st4" d="M-73.5,395.9c-0.5,0-0.9-0.2-1.3-0.5c-0.7-0.7-0.7-1.8,0-2.5l9.2-8.9
				c0.7-0.7,1.8-0.7,2.5,0c0.7,0.7,0.7,1.8,0,2.5l-9.2,8.9C-72.6,395.7-73.1,395.9-73.5,395.9z"/>
		</g>
		<g id="XMLID_2826_">
			<path id="XMLID_2827_" class="st4" d="M-64.3,401.6c-0.5,0-1-0.2-1.3-0.6c-0.6-0.7-0.6-1.8,0.2-2.5l6.6-5.7
				c0.7-0.6,1.8-0.6,2.5,0.2s0.6,1.8-0.2,2.5l-6.6,5.7C-63.5,401.5-63.9,401.6-64.3,401.6z"/>
		</g>
		<g id="XMLID_2824_">
			<path id="XMLID_2825_" class="st4" d="M-57.7,408.4c-0.4,0-0.8-0.1-1.1-0.4c-0.8-0.6-0.9-1.7-0.3-2.5l5.4-6.8
				c0.6-0.8,1.7-0.9,2.5-0.3c0.8,0.6,0.9,1.7,0.3,2.5l-5.4,6.8C-56.7,408.1-57.2,408.4-57.7,408.4z"/>
		</g>
		<g id="XMLID_2820_">
			<path id="XMLID_2821_" class="st4" d="M-46.8,395.9c-0.5,0-0.9-0.2-1.2-0.5l-28.2-28.7c-0.7-0.7-0.7-1.8,0-2.4
				c6.7-7,19.1-1.8,23.4,0.3c1.4-2,4.2-5.3,7.7-5.9c1.9-0.3,3.7,0.2,5.2,1.4c1.7,1.4,2.6,3,2.6,4.7c-0.1,3.2-3.3,5.5-6.1,7.7
				c-0.4,0.3-0.8,0.6-1.2,0.9c3.6,10.4-0.3,21.1-0.4,21.5c-0.2,0.6-0.7,1-1.3,1.1C-46.5,395.8-46.7,395.9-46.8,395.9z M-72.4,365.5
				l24.8,25.2c0.9-3.8,1.9-10.9-0.8-17.5c-0.3-0.7-0.1-1.5,0.5-2c0.7-0.6,1.5-1.2,2.3-1.8c2-1.5,4.7-3.5,4.7-4.9
				c0-0.7-0.7-1.4-1.3-1.9c-0.8-0.6-1.5-0.9-2.4-0.7c-2.6,0.5-5.4,4.3-6.2,5.7c-0.5,0.8-1.5,1.1-2.4,0.6
				C-53.2,368.2-65.8,361.2-72.4,365.5z"/>
		</g>
	</g>
</g>
</svg>
