<?xml version="1.0" encoding="utf-8"?>
<!-- Generator: Adobe Illustrator 19.0.0, SVG Export Plug-In . SVG Version: 6.00 Build 0)  -->
<svg version="1.1" id="Capa_1" xmlns="http://www.w3.org/2000/svg" xmlns:xlink="http://www.w3.org/1999/xlink" x="0px" y="0px"
	 viewBox="-198 318.7 198.7 205.2" style="enable-background:new -198 318.7 198.7 205.2;" xml:space="preserve">
<style type="text/css">
	.st0{opacity:0.15;}
	.st1{fill:#99C66B;}
	.st2{opacity:0.45;fill:url(#XMLID_6_);}
	.st3{fill:#FFFFFF;}
	.st4{fill:#0F4747;}
</style>
<g id="Nuevo_símbolo">
	<g id="Nuevo_símbolo_1_">
		<g id="Nuevo_símbolo_2_">
			<g id="Nuevo_símbolo_3_">
				<g id="Nuevo_símbolo_4_">
					<g id="Nuevo_símbolo_5_">
						<circle id="XMLID_5_" class="st0" cx="-98.7" cy="424.6" r="99.3"/>
						<circle id="XMLID_4_" class="st1" cx="-98.7" cy="418" r="99.3"/>
						<g id="XMLID_2_">
							
								<linearGradient id="XMLID_6_" gradientUnits="userSpaceOnUse" x1="-395.1385" y1="-295.6978" x2="-215.3646" y2="-295.6978" gradientTransform="matrix(4.489700e-011 1 -1 4.489700e-011 -394.3576 723.2827)">
								<stop  offset="0" style="stop-color:#FFFFFF"/>
								<stop  offset="0.4877" style="stop-color:#FFFFFF;stop-opacity:0"/>
							</linearGradient>
							<circle id="XMLID_3_" class="st2" cx="-98.7" cy="418" r="89.9"/>
						</g>
					</g>
					<polygon id="XMLID_2567_" class="st3" points="-115,386.7 -130.1,419.3 -130.4,447 -101.3,447.7 -95.7,427.5 -85.8,415.3 					
						"/>
					<g id="XMLID_2547_">
						<g id="XMLID_2563_">
							<path id="XMLID_2564_" class="st4" d="M-102.4,452.1c-0.4,0-0.9-0.2-1.2-0.5c-0.5-0.5-0.7-1.1-0.5-1.8l6.4-21.9
								c0.1-0.2,0.2-0.4,0.3-0.6l2.1-2.5c6.4-7.7,22.5-26.7,32.3-37.4c12.3-13.5,14.9-15.4,23.4-12c4.2,1.7,7.2,4.5,8.4,7.8
								c0.9,2.5,0.8,5.1-0.4,7.3c-2.1,4-41.6,47.7-46.1,52.6c-0.2,0.2-0.4,0.4-0.7,0.5l-23.5,8.3
								C-102,452.1-102.2,452.1-102.4,452.1z M-94.4,429.4l-5.4,18.2l19.8-7c17.5-19.4,43.8-48.9,45.3-51.6c0.7-1.3,0.8-2.9,0.2-4.4
								c-0.9-2.4-3.2-4.4-6.5-5.8c-6.1-2.5-7.2-2.3-19.5,11.1c-9.8,10.7-25.8,29.7-32.2,37.3L-94.4,429.4z"/>
						</g>
						<g id="XMLID_2561_">
							<path id="XMLID_2562_" class="st4" d="M-130.3,449.4c-0.4,0-0.9-0.2-1.2-0.5c-0.3-0.3-0.5-0.8-0.5-1.2l-0.5-28.1
								c0-0.3,0.1-0.5,0.2-0.8l16.4-34.1c0.3-0.5,0.7-0.9,1.3-1c0.6-0.1,1.1,0.1,1.5,0.5L-85,414c0.7,0.7,0.6,1.8-0.1,2.5
								c-0.7,0.7-1.8,0.6-2.5-0.1l-26.3-27.9l-15.1,31.4l0.4,25.9l26.3-0.9c0.9-0.1,1.8,0.7,1.8,1.7c0,1-0.7,1.8-1.7,1.8
								L-130.3,449.4C-130.2,449.4-130.3,449.4-130.3,449.4z"/>
						</g>
						<g id="XMLID_2559_">
							<path id="XMLID_2560_" class="st4" d="M-129.8,421.1c-0.9,0-1.7-0.7-1.7-1.6c-0.1-1,0.7-1.8,1.6-1.9l42.4-2.8
								c1-0.1,1.8,0.7,1.9,1.6c0.1,1-0.7,1.8-1.6,1.9l-42.4,2.8C-129.7,421.1-129.8,421.1-129.8,421.1z"/>
						</g>
						<g id="XMLID_2557_">
							<path id="XMLID_2558_" class="st4" d="M-79.1,442.9c-0.4,0-0.9-0.2-1.2-0.5l-15-13.8c-0.7-0.7-0.8-1.8-0.1-2.5
								c0.7-0.7,1.8-0.8,2.5-0.1l15,13.8c0.7,0.7,0.8,1.8,0.1,2.5C-78.2,442.7-78.7,442.9-79.1,442.9z"/>
						</g>
						<g id="XMLID_2555_">
							<path id="XMLID_2556_" class="st4" d="M-52,411.1c-0.4,0-0.8-0.1-1.1-0.4l-15.2-13.1c-0.7-0.6-0.8-1.7-0.2-2.5
								c0.6-0.7,1.7-0.8,2.5-0.2l15.2,13.1c0.7,0.6,0.8,1.7,0.2,2.5C-51,410.9-51.5,411.1-52,411.1z"/>
						</g>
						<g id="XMLID_2553_">
							<path id="XMLID_2554_" class="st4" d="M-46.9,406.8c-0.4,0-0.8-0.1-1.1-0.4L-63.9,393c-0.7-0.6-0.8-1.7-0.2-2.5
								c0.6-0.7,1.7-0.8,2.5-0.2l15.9,13.4c0.7,0.6,0.8,1.7,0.2,2.5C-45.9,406.6-46.4,406.8-46.9,406.8z"/>
						</g>
						<g id="XMLID_2551_">
							<path id="XMLID_2552_" class="st4" d="M-43,402.2c-0.4,0-0.8-0.1-1.1-0.4L-60,388.4c-0.7-0.6-0.8-1.7-0.2-2.5
								c0.6-0.7,1.7-0.8,2.5-0.2l15.9,13.4c0.7,0.6,0.8,1.7,0.2,2.5C-42,402-42.5,402.2-43,402.2z"/>
						</g>
						<g id="XMLID_2549_">
							<path id="XMLID_2550_" class="st4" d="M-149.6,474.5c-0.5,0-0.9-0.2-1.2-0.5c-0.3-0.3-0.5-0.8-0.5-1.2l-1.4-105.5
								c0-1,0.7-1.7,1.7-1.8l80.8-2.1c0.5,0,0.9,0.2,1.3,0.5c0.3,0.3,0.5,0.8,0.5,1.3v31.6c0,1-0.8,1.8-1.8,1.8s-1.8-0.8-1.8-1.8
								V367l-77.3,2l1.3,102l79.6-1.5l-0.7-39c0-1,0.8-1.8,1.7-1.8c0,0,0,0,0,0c1,0,1.7,0.8,1.7,1.7l0.7,40.8c0,1-0.8,1.8-1.7,1.8
								L-149.6,474.5C-149.6,474.5-149.6,474.5-149.6,474.5z"/>
						</g>
						<polygon id="XMLID_2548_" class="st4" points="-98.5,440.8 -93.3,446.8 -101.5,449.3 						"/>
					</g>
				</g>
			</g>
		</g>
	</g>
</g>
</svg>
