<?xml version="1.0" encoding="utf-8"?>
<!-- Generator: Adobe Illustrator 19.0.0, SVG Export Plug-In . SVG Version: 6.00 Build 0)  -->
<svg version="1.1" id="Capa_1" xmlns="http://www.w3.org/2000/svg" xmlns:xlink="http://www.w3.org/1999/xlink" x="0px" y="0px"
	 viewBox="-198 318.7 198.7 205.2" style="enable-background:new -198 318.7 198.7 205.2;" xml:space="preserve">
<style type="text/css">
	.st0{opacity:0.15;}
	.st1{fill:#99C66B;}
	.st2{opacity:0.45;fill:url(#XMLID_6_);}
	.st3{fill:#FFFFFF;}
	.st4{fill:#0F4747;}
</style>
<g id="Nuevo_símbolo">
	<g id="Nuevo_símbolo_1_">
		<g id="Nuevo_símbolo_2_">
			<g id="Nuevo_símbolo_3_">
				<g id="Nuevo_símbolo_4_">
					<g id="Nuevo_símbolo_5_">
						<g id="Nuevo_símbolo_6_">
							<g id="Nuevo_símbolo_7_">
								<g id="Nuevo_símbolo_8_">
									<g id="Nuevo_símbolo_9_">
										<g id="Nuevo_símbolo_10_">
											<g id="Nuevo_símbolo_11_">
												<g id="Nuevo_símbolo_12_">
													<g id="Nuevo_símbolo_13_">
														<circle id="XMLID_5_" class="st0" cx="-98.7" cy="424.6" r="99.3"/>
														<circle id="XMLID_4_" class="st1" cx="-98.7" cy="418" r="99.3"/>
														<g id="XMLID_2_">
															
																<linearGradient id="XMLID_6_" gradientUnits="userSpaceOnUse" x1="-395.1385" y1="-295.6978" x2="-215.3646" y2="-295.6978" gradientTransform="matrix(4.489700e-011 1 -1 4.489700e-011 -394.3576 723.2827)">
																<stop  offset="0" style="stop-color:#FFFFFF"/>
																<stop  offset="0.4877" style="stop-color:#FFFFFF;stop-opacity:0"/>
															</linearGradient>
															<circle id="XMLID_3_" class="st2" cx="-98.7" cy="418" r="89.9"/>
														</g>
													</g>
													<path id="XMLID_1911_" class="st3" d="M-76.6,404.1c0,0,2.9-14.1,0-16.7c-2.9-2.5-5.1-6.1-14.5-4s-23.7,6.7-35.3,18.1
														c-11.7,11.4-20.1,26.8-21.3,30.7c-1.2,3.9-1.1,15.2,0.9,18.7c2,3.4,11.8,4,17.2,3.2c5.3-0.8,23.3-10.6,31.8-20.6
														c8.5-10,20.6-27.8,20.6-27.8L-76.6,404.1z"/>
													<g id="XMLID_1894_">
														<g id="XMLID_1909_">
															<path id="XMLID_1910_" class="st4" d="M-171.6,450c-0.7,0-1.4-0.4-1.6-1.1c-0.4-0.9,0.1-1.9,1-2.3
																c0.2-0.1,17-6.9,30.2-28c14.8-23.6,33.9-35.4,46.2-36.7c12.5-1.3,15,0.4,18.8,3.7l0.2,0.2c7.3,6.3-0.4,22-1.3,23.8
																c-0.4,0.9-1.5,1.2-2.4,0.8c-0.9-0.4-1.2-1.5-0.8-2.4c2.1-4.1,6.5-15.7,2.1-19.6l-0.2-0.2c-3.1-2.7-4.6-4-16.2-2.9
																c-11.1,1.1-29.5,12.6-43.6,35c-13.9,22.1-31.2,29.1-31.9,29.4C-171.1,449.9-171.4,450-171.6,450z"/>
														</g>
														<g id="XMLID_1907_">
															<path id="XMLID_1908_" class="st4" d="M-84.9,457.8c-0.5,0-1,0-1.5-0.2c-2.1-0.4-3.7-1.7-4.7-3.7
																c-3.1-6.3,0.6-18.6,5.1-28c2.2-4.6,5.4-10.8,8.7-17c-3.8,5.3-8.1,11.2-12.6,17.6c-17.2,23.9-38,32-51,29.3
																c-3.4-0.7-6-2.5-7.8-5.4c-4.7-7.8-1-20.7-0.9-21.3c0.3-0.9,1.2-1.5,2.2-1.2c0.9,0.3,1.5,1.2,1.2,2.2
																c0,0.1-3.4,12.1,0.5,18.5c1.2,2,3,3.2,5.5,3.7c11.9,2.4,31.2-5.3,47.5-27.9c15.8-22.1,28.2-39.4,28.2-39.4
																c0.5-0.8,1.6-1,2.4-0.5c0.8,0.5,1.1,1.5,0.6,2.3c-0.1,0.3-14.8,27.2-21.3,40.5c-5.2,10.6-7.2,20.6-5.1,24.9
																c0.5,1,1.3,1.6,2.3,1.9c4.6,1,13.7-6.4,18.4-11.3c0.7-0.7,1.8-0.7,2.5-0.1c0.7,0.7,0.7,1.8,0.1,2.5
																C-66.1,446.7-77,457.8-84.9,457.8z"/>
														</g>
														<g id="XMLID_1905_">
															<path id="XMLID_1906_" class="st4" d="M-157.7,404.1c-0.4,0-0.8-0.1-1.1-0.4c-0.8-0.6-0.9-1.7-0.3-2.5
																c0.8-1,19.9-24.8,39.2-33.8c8.3-3.9,13.9-6.4,17.5-8.1l-19.9-1.3c-1-0.1-1.7-0.9-1.6-1.9c0.1-1,0.9-1.7,1.9-1.6
																l26.8,1.8c0.8,0.1,1.5,0.6,1.6,1.4s-0.3,1.6-1,1.9c0,0-4.9,2.2-23.8,11c-18.6,8.7-37.8,32.6-38,32.8
																C-156.7,403.9-157.2,404.1-157.7,404.1z"/>
														</g>
														<g id="XMLID_1903_">
															<path id="XMLID_1904_" class="st4" d="M-108.6,378.7c-0.3,0-0.7-0.1-1-0.3c-0.8-0.6-1-1.6-0.4-2.4l13.3-19
																c0.6-0.8,1.6-1,2.4-0.4c0.8,0.6,1,1.6,0.4,2.4l-13.3,19C-107.5,378.5-108,378.7-108.6,378.7z"/>
														</g>
														<g id="XMLID_1901_">
															<path id="XMLID_1902_" class="st4" d="M-134.9,484.7c-17.1,0-26.2-18.2-26.3-18.4c-0.4-0.9-0.1-1.9,0.8-2.3
																c0.9-0.4,1.9-0.1,2.3,0.8c0.4,0.8,9.7,19.3,27.1,16.1c18.3-3.3,33.8-16.1,33.9-16.2c0.6-0.5,1.6-0.5,2.2,0
																c0.6,0.5,0.8,1.5,0.4,2.2l-8.1,14.8c-0.5,0.8-1.5,1.2-2.4,0.7c-0.8-0.5-1.2-1.5-0.7-2.4l4.4-7.9
																c-6.4,4.2-17.1,10.1-29.1,12.3C-131.9,484.5-133.4,484.7-134.9,484.7z"/>
														</g>
														<g id="XMLID_1899_">
															<path id="XMLID_1900_" class="st4" d="M-116.8,468.2c-0.9,0-1.7-0.8-1.7-1.7c0-1,0.7-1.8,1.7-1.8l20.8-0.5
																c0,0,0,0,0,0c0.9,0,1.7,0.8,1.7,1.7c0,1-0.7,1.8-1.7,1.8L-116.8,468.2C-116.8,468.2-116.8,468.2-116.8,468.2z"/>
														</g>
														<g id="XMLID_1897_">
															<path id="XMLID_1898_" class="st4" d="M-50.3,432.3c-0.1,0-0.1,0-0.2,0c-1-0.1-1.6-1-1.5-2c0-0.1,1.7-13.2,5.3-25.5
																c3.7-12.4,18.3-32.5,19-33.3c0.6-0.8,1.7-0.9,2.4-0.4c0.8,0.6,0.9,1.7,0.4,2.4c-0.1,0.2-14.9,20.4-18.4,32.2
																c-3.5,12-5.2,24.8-5.2,24.9C-48.7,431.6-49.4,432.3-50.3,432.3z"/>
														</g>
														<g id="XMLID_1895_">
															<path id="XMLID_1896_" class="st4" d="M-50.4,434.6c-0.1,0-0.1,0-0.2,0c-0.6-0.1-1.1-0.4-1.4-0.9l-10.3-18.3
																c-0.5-0.8-0.2-1.9,0.7-2.4c0.8-0.5,1.9-0.2,2.4,0.7l9,16.1l13-15.9c0.6-0.7,1.7-0.9,2.5-0.2c0.7,0.6,0.9,1.7,0.2,2.5
																L-49,434C-49.3,434.4-49.8,434.6-50.4,434.6z"/>
														</g>
													</g>
												</g>
											</g>
										</g>
									</g>
								</g>
							</g>
						</g>
					</g>
				</g>
			</g>
		</g>
	</g>
</g>
</svg>
