<?xml version="1.0" encoding="utf-8"?>
<!-- Generator: Adobe Illustrator 19.0.0, SVG Export Plug-In . SVG Version: 6.00 Build 0)  -->
<svg version="1.1" id="Capa_1" xmlns="http://www.w3.org/2000/svg" xmlns:xlink="http://www.w3.org/1999/xlink" x="0px" y="0px"
	 viewBox="-198 318.7 198.7 205.2" style="enable-background:new -198 318.7 198.7 205.2;" xml:space="preserve">
<style type="text/css">
	.st0{opacity:0.15;}
	.st1{fill:#99C66B;}
	.st2{opacity:0.45;fill:url(#XMLID_6_);}
	.st3{fill:#FFFFFF;}
	.st4{fill:#0F4747;}
</style>
<g id="Nuevo_símbolo">
	<g id="Nuevo_símbolo_1_">
		<g id="Nuevo_símbolo_2_">
			<g id="Nuevo_símbolo_3_">
				<g id="Nuevo_símbolo_4_">
					<g id="Nuevo_símbolo_5_">
						<g id="Nuevo_símbolo_6_">
							<circle id="XMLID_5_" class="st0" cx="-98.7" cy="424.6" r="99.3"/>
							<circle id="XMLID_4_" class="st1" cx="-98.7" cy="418" r="99.3"/>
							<g id="XMLID_2_">
								
									<linearGradient id="XMLID_6_" gradientUnits="userSpaceOnUse" x1="-395.1385" y1="-295.6978" x2="-215.3646" y2="-295.6978" gradientTransform="matrix(4.489700e-011 1 -1 4.489700e-011 -394.3576 723.2827)">
									<stop  offset="0" style="stop-color:#FFFFFF"/>
									<stop  offset="0.4877" style="stop-color:#FFFFFF;stop-opacity:0"/>
								</linearGradient>
								<circle id="XMLID_3_" class="st2" cx="-98.7" cy="418" r="89.9"/>
							</g>
						</g>
						<path id="XMLID_2192_" class="st3" d="M-157.2,390.5v50.6c0,0,15.2-5.8,21.3-5.3c6.1,0.5,23.1,5.3,23.1,5.3l1.7-50.6
							c0,0-10.1-8.9-22.8-6.6C-146.5,386.1-157.2,390.5-157.2,390.5z"/>
						<g id="XMLID_2160_">
							<g id="XMLID_2190_">
								<path id="XMLID_2191_" class="st4" d="M-100.3,462.3C-100.4,462.3-100.4,462.3-100.3,462.3c-1,0-1.8-0.8-1.8-1.8l1.7-81.8
									c0-1,0.8-1.7,1.8-1.7c1,0,1.7,0.8,1.7,1.8l-1.7,81.8C-98.6,461.6-99.4,462.3-100.3,462.3z"/>
							</g>
							<g id="XMLID_2185_">
								<path id="XMLID_2186_" class="st4" d="M-169.9,470.2c-0.1,0-0.3,0-0.4-0.1c-0.8-0.2-1.3-0.9-1.3-1.7v-87.3
									c0-0.6,0.3-1.2,0.8-1.5c0.7-0.5,18.5-11.5,37-10.9c16,0.5,30.9,6.3,34.9,7.9c3.5-2.9,17.3-12.7,38.4-9.9
									c23.5,3.1,29.1,8.4,29.7,9c0.3,0.4,0.5,0.8,0.5,1.3l-0.1,0.9l4.4,5.1c0.3,0.4,0.5,0.8,0.4,1.3l-6.2,76.3
									c0,0.2-0.1,0.3-0.1,0.5l-1.1,2.8c-0.3,0.7-0.9,1.1-1.6,1.1h0c-0.7,0-1.3-0.4-1.6-1.1c0,0-0.7-1.6-2.8-3.7
									c-4.1-3.9-12.3-8.6-28.4-8.3c-25.6,0.4-31.3,9.2-31.4,9.3c-0.3,0.6-1,0.9-1.6,0.8c-0.7-0.1-1.2-0.5-1.5-1.1
									c0-0.1-4.7-9.6-30.6-9.1c-26.4,0.5-35.7,17-35.8,17.1C-168.7,469.8-169.3,470.2-169.9,470.2z M-168.2,382.2v81
									c4.9-5.5,15.7-14.2,35.5-14.5c21.2-0.3,29.5,5.7,32.4,9.1c3.2-3.1,12-8.7,32.6-9.1c13.8-0.2,22.3,3,27.5,6.5l6-77.4
									c-1.8-1.3-8.6-5.1-27-7.5c-22.4-3-36.3,9.6-36.4,9.8c-0.5,0.5-1.3,0.6-1.9,0.3c-0.2-0.1-16.9-7.5-34.6-8.1
									C-149.3,371.8-164.5,380-168.2,382.2z M-37.2,457.4c0.2,0.2,0.3,0.3,0.5,0.5c0.6,0.5,1,1.1,1.5,1.5l6-74.6l-1.7-1.9
									l-5.7,73.3C-36.6,456.7-36.9,457.1-37.2,457.4z"/>
							</g>
							<g id="XMLID_2183_">
								<path id="XMLID_2184_" class="st4" d="M-164.9,471.9c-0.2,0-0.4,0-0.6-0.1l-5-1.7c-0.9-0.3-1.4-1.3-1.1-2.2s1.3-1.4,2.2-1.1
									l4.2,1.4c4-3,22.6-16,38.3-14.9c15.1,1.1,23.2,9.2,25.4,11.7h3.6c0.9-0.7,3-2.1,5.4-3.4c12.3-6.7,24.6-9.5,34.8-7.8
									c11.7,1.9,17,7.4,19,10.4l2.9-2.2c0.8-0.6,1.9-0.4,2.5,0.4c0.6,0.8,0.4,1.9-0.4,2.5l-4.5,3.4c-0.4,0.3-1,0.4-1.5,0.3
									c-0.5-0.1-0.9-0.5-1.2-1c-0.1-0.3-3.6-7.9-17.5-10.2c-9.4-1.6-20.9,1.1-32.5,7.4c-2.9,1.6-5.4,3.5-5.4,3.5
									c-0.3,0.2-0.7,0.4-1.1,0.4h-5.1c-0.6,0-1.1-0.3-1.4-0.7c-0.1-0.1-7.6-9.9-23.4-11c-16-1.1-36.5,14.5-36.7,14.7
									C-164.1,471.7-164.5,471.9-164.9,471.9z"/>
							</g>
							<g id="XMLID_2179_">
								<path id="XMLID_2180_" class="st4" d="M-156.7,443.5c-0.3,0-0.7-0.1-1-0.3c-0.5-0.3-0.8-0.9-0.8-1.5v-51.3
									c0-0.5,0.3-1.1,0.7-1.4c0.3-0.2,6.5-4.8,21.4-6.2c15.1-1.4,26,5.9,26.4,6.2c0.5,0.3,0.8,0.9,0.8,1.5l-2,51.3
									c0,0.5-0.3,1-0.7,1.4c-0.4,0.3-1,0.4-1.5,0.2c-0.1,0-12.5-3.9-22.5-4.1c-9.9-0.3-19.9,4-20,4.1
									C-156.3,443.5-156.5,443.5-156.7,443.5z M-136.9,435.8c0.3,0,0.7,0,1,0c8,0.2,17.2,2.5,21.3,3.7l1.8-48.1
									c-2.7-1.6-11.8-6.2-23.3-5.1c-11.2,1.1-17,4-18.9,5.1v47.8C-151.4,437.9-144.3,435.8-136.9,435.8z"/>
							</g>
							<g id="XMLID_2177_">
								<path id="XMLID_2178_" class="st4" d="M-43.7,423.9c-0.1,0-0.3,0-0.5-0.1c-0.2,0-16.7-4.4-26.9-3.8
									c-10.3,0.6-19,3.8-19.1,3.8c-0.9,0.3-1.9-0.1-2.2-1c-0.3-0.9,0.1-1.9,1-2.2c0.4-0.1,9.3-3.4,20.1-4
									c10.8-0.6,27.3,3.8,28,3.9c0.9,0.2,1.5,1.2,1.2,2.1C-42.2,423.4-42.9,423.9-43.7,423.9z"/>
							</g>
							<g id="XMLID_2175_">
								<path id="XMLID_2176_" class="st4" d="M-43.7,436.4c-0.1,0-0.3,0-0.5-0.1c-0.2,0-16.7-4.4-26.9-3.8
									c-10.3,0.6-19,3.8-19.1,3.8c-0.9,0.3-1.9-0.1-2.2-1c-0.3-0.9,0.1-1.9,1-2.2c0.4-0.1,9.3-3.4,20.1-4c10.8-0.6,27.3,3.8,28,4
									c0.9,0.2,1.5,1.2,1.2,2.1C-42.2,435.9-42.9,436.4-43.7,436.4z"/>
							</g>
							<g id="XMLID_2173_">
								<circle id="XMLID_2174_" class="st4" cx="-138.5" cy="403.3" r="1.7"/>
							</g>
							<g id="XMLID_2171_">
								<circle id="XMLID_2172_" class="st4" cx="-130.9" cy="403.3" r="1.7"/>
							</g>
							<g id="XMLID_2169_">
								<path id="XMLID_2170_" class="st4" d="M-133.8,423.9c-0.2,0-0.4,0-0.7,0c-10.6-0.4-13.4-8.9-13.5-9.3
									c-0.3-0.9,0.2-1.9,1.1-2.2c0.9-0.3,1.9,0.2,2.2,1.1c0.1,0.3,2.3,6.5,10.3,6.8c8.1,0.3,11.1-6,11.3-6.3
									c0.4-0.9,1.4-1.3,2.3-0.9c0.9,0.4,1.3,1.4,0.9,2.3C-120,415.9-123.7,423.9-133.8,423.9z"/>
							</g>
							<g id="XMLID_2167_">
								<path id="XMLID_2168_" class="st4" d="M-59.7,408c-0.7,0-1.3-0.4-1.6-1.1l-7.6-18.4l-9.9,18.6c-0.5,0.9-1.5,1.2-2.4,0.7
									c-0.9-0.5-1.2-1.5-0.7-2.4l11.6-21.9c0.3-0.6,0.9-1,1.6-0.9c0.7,0,1.3,0.5,1.5,1.1l9,21.9c0.4,0.9-0.1,1.9-1,2.3
									C-59.2,407.9-59.5,408-59.7,408z"/>
							</g>
							<g id="XMLID_2165_">
								<path id="XMLID_2166_" class="st4" d="M-76.2,400.2c-0.9,0-1.7-0.7-1.7-1.6c-0.1-1,0.6-1.8,1.6-1.9l12.9-1
									c1-0.1,1.8,0.6,1.9,1.6c0.1,1-0.6,1.8-1.6,1.9l-12.9,1C-76.1,400.2-76.1,400.2-76.2,400.2z"/>
							</g>
							<g id="XMLID_2163_">
								<path id="XMLID_2164_" class="st4" d="M-76.2,408h-6.4c-1,0-1.8-0.8-1.8-1.8s0.8-1.8,1.8-1.8h6.4c1,0,1.8,0.8,1.8,1.8
									S-75.2,408-76.2,408z"/>
							</g>
							<g id="XMLID_2161_">
								<path id="XMLID_2162_" class="st4" d="M-57.5,408h-4.9c-1,0-1.8-0.8-1.8-1.8s0.8-1.8,1.8-1.8h4.9c1,0,1.8,0.8,1.8,1.8
									S-56.5,408-57.5,408z"/>
							</g>
						</g>
					</g>
				</g>
			</g>
		</g>
	</g>
</g>
</svg>
