<?xml version="1.0" encoding="utf-8"?>
<!-- Generator: Adobe Illustrator 19.0.0, SVG Export Plug-In . SVG Version: 6.00 Build 0)  -->
<svg version="1.1" id="Capa_1" xmlns="http://www.w3.org/2000/svg" xmlns:xlink="http://www.w3.org/1999/xlink" x="0px" y="0px"
	 viewBox="-198 318.7 198.7 205.2" style="enable-background:new -198 318.7 198.7 205.2;" xml:space="preserve">
<style type="text/css">
	.st0{opacity:0.15;}
	.st1{fill:#99C66B;}
	.st2{opacity:0.45;fill:url(#XMLID_6_);}
	.st3{fill:#FFFFFF;}
	.st4{fill:#0F4747;}
</style>
<g id="Nuevo_símbolo">
	<g id="Nuevo_símbolo_1_">
		<g id="Nuevo_símbolo_2_">
			<g id="Nuevo_símbolo_3_">
				<g id="Nuevo_símbolo_4_">
					<g id="Nuevo_símbolo_5_">
						<g id="Nuevo_símbolo_6_">
							<g id="Nuevo_símbolo_7_">
								<g id="Nuevo_símbolo_8_">
									<g id="Nuevo_símbolo_9_">
										<circle id="XMLID_5_" class="st0" cx="-98.7" cy="424.6" r="99.3"/>
										<circle id="XMLID_4_" class="st1" cx="-98.7" cy="418" r="99.3"/>
										<g id="XMLID_2_">
											
												<linearGradient id="XMLID_6_" gradientUnits="userSpaceOnUse" x1="-395.1385" y1="-295.6978" x2="-215.3646" y2="-295.6978" gradientTransform="matrix(4.489700e-011 1 -1 4.489700e-011 -394.3576 723.2827)">
												<stop  offset="0" style="stop-color:#FFFFFF"/>
												<stop  offset="0.4877" style="stop-color:#FFFFFF;stop-opacity:0"/>
											</linearGradient>
											<circle id="XMLID_3_" class="st2" cx="-98.7" cy="418" r="89.9"/>
										</g>
									</g>
									<polygon id="XMLID_2157_" class="st3" points="-86.1,415.6 -85.3,432.9 -55.1,454.7 -15.2,435.7 -14.4,418.4 -48.1,397.6 
																			"/>
									<g id="XMLID_2104_">
										<g id="XMLID_2153_">
											<path id="XMLID_2154_" class="st4" d="M-124.7,490.6c-0.4,0-0.7-0.1-1-0.3l-47.7-34.1c-0.5-0.3-0.7-0.9-0.7-1.4v-18.5
												c0-0.7,0.4-1.3,1-1.6c0.6-0.3,1.3-0.2,1.8,0.1l47.1,33.8l38.8-17.3c0.5-0.2,1.2-0.2,1.7,0.1c0.5,0.3,0.8,0.9,0.8,1.5
												v17.7c0,0.7-0.4,1.3-1,1.6l-40,18.2C-124.2,490.5-124.5,490.6-124.7,490.6z M-170.7,453.8l46.2,33l38.1-17.3v-13.9
												l-37.3,16.6c-0.6,0.3-1.2,0.2-1.7-0.2l-45.2-32.4V453.8z"/>
										</g>
										<g id="XMLID_2151_">
											<path id="XMLID_2152_" class="st4" d="M-84.7,454.7c-0.3,0-0.7-0.1-1-0.3l-49.5-32.6l-36.6,16c-0.9,0.4-1.9,0-2.3-0.9
												c-0.4-0.9,0-1.9,0.9-2.3l37.4-16.4c0.5-0.2,1.2-0.2,1.7,0.1l50.3,33.1c0.8,0.5,1,1.6,0.5,2.4
												C-83.6,454.4-84.1,454.7-84.7,454.7z"/>
										</g>
										<g id="XMLID_2149_">
											<path id="XMLID_2150_" class="st4" d="M-124.7,490.6C-124.7,490.6-124.7,490.6-124.7,490.6c-1,0-1.8-0.8-1.8-1.8
												l0.3-18.2c0-1,0.8-1.7,1.7-1.7c0,0,0,0,0,0c1,0,1.7,0.8,1.7,1.8l-0.3,18.2C-123,489.8-123.8,490.6-124.7,490.6z"/>
										</g>
										<g id="XMLID_2147_">
											<path id="XMLID_2148_" class="st4" d="M-136.1,447.1c-5.3,0-9.3-2.4-9.3-5.5c0.1-2.1,0.1-4.6,0-5.1
												c-0.2-0.9,0.4-1.9,1.4-2c0.9-0.2,1.9,0.4,2.1,1.4c0.2,0.8,0.1,3.6,0,5.8c0,0.4,2,1.9,5.8,1.9s5.8-1.5,5.8-2v-5.4
												c0-1,0.8-1.8,1.8-1.8c1,0,1.8,0.8,1.8,1.8v5.4C-126.8,444.8-130.8,447.1-136.1,447.1z"/>
										</g>
										<g id="XMLID_2143_">
											<path id="XMLID_2144_" class="st4" d="M-136.1,441.7c-5.3,0-9.3-2.4-9.3-5.5s4-5.5,9.3-5.5s9.3,2.4,9.3,5.5
												S-130.8,441.7-136.1,441.7z M-136.1,434.3c-3.8,0-5.8,1.5-5.8,2s2,2,5.8,2s5.8-1.5,5.8-2S-132.3,434.3-136.1,434.3z"/>
										</g>
										<g id="XMLID_2141_">
											<path id="XMLID_2142_" class="st4" d="M-118.4,458.9c-5.3,0-9.3-2.4-9.3-5.5c0.1-2.1,0.1-4.6,0-5.1
												c-0.2-0.9,0.4-1.9,1.4-2c0.9-0.2,1.9,0.4,2.1,1.4c0.2,0.8,0.1,3.6,0,5.8c0,0.4,2,1.9,5.8,1.9s5.8-1.5,5.8-2V448
												c0-1,0.8-1.8,1.8-1.8s1.8,0.8,1.8,1.8v5.4C-109,456.5-113,458.9-118.4,458.9z"/>
										</g>
										<g id="XMLID_2137_">
											<path id="XMLID_2138_" class="st4" d="M-118.4,453.5c-5.3,0-9.3-2.4-9.3-5.5s4-5.5,9.3-5.5s9.3,2.4,9.3,5.5
												S-113,453.5-118.4,453.5z M-118.4,446c-3.8,0-5.8,1.5-5.8,2s2,2,5.8,2s5.8-1.5,5.8-2S-114.5,446-118.4,446z"/>
										</g>
										<g id="XMLID_2133_">
											<path id="XMLID_2134_" class="st4" d="M-117.2,424.3c-0.4,0-0.7-0.1-1-0.3l-47.7-34.1c-0.5-0.3-0.7-0.9-0.7-1.4V370
												c0-0.7,0.4-1.3,1-1.6c0.6-0.3,1.3-0.2,1.8,0.1l47.1,33.8l38.8-17.3c0.5-0.2,1.2-0.2,1.7,0.1c0.5,0.3,0.8,0.9,0.8,1.5
												v17.7c0,0.7-0.4,1.3-1,1.6l-40,18.2C-116.7,424.3-116.9,424.3-117.2,424.3z M-163.1,387.6l46.2,33l38.1-17.3v-13.9
												l-37.3,16.6c-0.6,0.3-1.2,0.2-1.7-0.2l-45.2-32.4V387.6z"/>
										</g>
										<g id="XMLID_2131_">
											<path id="XMLID_2132_" class="st4" d="M-77.1,388.4c-0.3,0-0.7-0.1-1-0.3l-49.5-32.6l-36.6,16c-0.9,0.4-1.9,0-2.3-0.9
												c-0.4-0.9,0-1.9,0.9-2.3l37.4-16.4c0.5-0.2,1.2-0.2,1.7,0.1l50.3,33.1c0.8,0.5,1,1.6,0.5,2.4
												C-76,388.1-76.6,388.4-77.1,388.4z"/>
										</g>
										<g id="XMLID_2129_">
											<path id="XMLID_2130_" class="st4" d="M-117.2,424.3C-117.2,424.3-117.2,424.3-117.2,424.3c-1,0-1.8-0.8-1.8-1.8
												l0.3-18.2c0-1,0.8-1.7,1.7-1.7c0,0,0,0,0,0c1,0,1.7,0.8,1.7,1.8l-0.3,18.2C-115.4,423.6-116.2,424.3-117.2,424.3z"/>
										</g>
										<g id="XMLID_2127_">
											<path id="XMLID_2128_" class="st4" d="M-128.6,380.9c-5.3,0-9.3-2.4-9.3-5.5c0.1-2.1,0.1-4.6,0-5.1
												c-0.2-0.9,0.4-1.9,1.4-2c0.9-0.2,1.9,0.4,2.1,1.4c0.2,0.8,0.1,3.6,0,5.8c0,0.4,2,1.9,5.8,1.9c3.8,0,5.8-1.5,5.8-2V370
												c0-1,0.8-1.8,1.8-1.8s1.8,0.8,1.8,1.8v5.4C-119.3,378.5-123.3,380.9-128.6,380.9z"/>
										</g>
										<g id="XMLID_2123_">
											<path id="XMLID_2124_" class="st4" d="M-128.6,375.5c-5.3,0-9.3-2.4-9.3-5.5s4-5.5,9.3-5.5c5.3,0,9.3,2.4,9.3,5.5
												S-123.3,375.5-128.6,375.5z M-128.6,368c-3.8,0-5.8,1.5-5.8,2s2,2,5.8,2c3.8,0,5.8-1.5,5.8-2S-124.8,368-128.6,368z"/>
										</g>
										<g id="XMLID_2121_">
											<path id="XMLID_2122_" class="st4" d="M-110.8,392.6c-5.3,0-9.3-2.4-9.3-5.5c0.1-2.1,0.1-4.6,0-5.1
												c-0.2-0.9,0.4-1.9,1.4-2c0.9-0.2,1.9,0.4,2.1,1.4c0.2,0.8,0.1,3.6,0,5.8c0,0.4,2,1.9,5.8,1.9s5.8-1.5,5.8-2v-5.4
												c0-1,0.8-1.8,1.8-1.8s1.8,0.8,1.8,1.8v5.4C-101.5,390.3-105.5,392.6-110.8,392.6z"/>
										</g>
										<g id="XMLID_2117_">
											<path id="XMLID_2118_" class="st4" d="M-110.8,387.2c-5.3,0-9.3-2.4-9.3-5.5s4-5.5,9.3-5.5s9.3,2.4,9.3,5.5
												S-105.5,387.2-110.8,387.2z M-110.8,379.8c-3.8,0-5.8,1.5-5.8,2s2,2,5.8,2s5.8-1.5,5.8-2S-107,379.8-110.8,379.8z"/>
										</g>
										<g id="XMLID_2113_">
											<path id="XMLID_2114_" class="st4" d="M-54.5,456.1c-0.4,0-0.7-0.1-1-0.3l-31.2-22c-0.5-0.3-0.7-0.9-0.7-1.4v-18.5
												c0-0.7,0.4-1.3,0.9-1.6c0.6-0.3,1.3-0.3,1.8,0.1l30.6,21.7l38.8-17.3c0.5-0.2,1.2-0.2,1.7,0.1c0.5,0.3,0.8,0.9,0.8,1.5
												v17.7c0,0.7-0.4,1.3-1,1.6l-40,18.2C-54,456-54.2,456.1-54.5,456.1z M-83.9,431.4l29.6,20.9l38.1-17.3v-13.9l-37.3,16.6
												c-0.6,0.3-1.2,0.2-1.7-0.2l-28.7-20.3V431.4z"/>
										</g>
										<g id="XMLID_2111_">
											<path id="XMLID_2112_" class="st4" d="M-14.4,420.2c-0.3,0-0.6-0.1-0.9-0.3l-32.9-20.5l-36.6,16c-0.9,0.4-1.9,0-2.3-0.9
												c-0.4-0.9,0-1.9,0.9-2.3l37.4-16.4c0.5-0.2,1.1-0.2,1.6,0.1l33.7,21c0.8,0.5,1.1,1.6,0.6,2.4
												C-13.3,419.9-13.9,420.2-14.4,420.2z"/>
										</g>
										<g id="XMLID_2109_">
											<path id="XMLID_2110_" class="st4" d="M-49.3,424.7c-5.3,0-9.3-2.4-9.3-5.5c0.1-2.1,0.1-4.6,0-5.1
												c-0.2-0.9,0.4-1.9,1.4-2c1-0.2,1.9,0.4,2.1,1.4c0.2,0.8,0.1,3.6,0,5.8c0,0.4,2,1.9,5.8,1.9c3.8,0,5.8-1.5,5.8-2v-5.4
												c0-1,0.8-1.8,1.8-1.8s1.8,0.8,1.8,1.8v5.4C-40,422.4-44,424.7-49.3,424.7z"/>
										</g>
										<g id="XMLID_2105_">
											<path id="XMLID_2106_" class="st4" d="M-49.3,419.3c-5.3,0-9.3-2.4-9.3-5.5s4-5.5,9.3-5.5c5.3,0,9.3,2.4,9.3,5.5
												S-44,419.3-49.3,419.3z M-49.3,411.9c-3.8,0-5.8,1.5-5.8,2s2,2,5.8,2c3.8,0,5.8-1.5,5.8-2S-45.5,411.9-49.3,411.9z"/>
										</g>
									</g>
								</g>
							</g>
						</g>
					</g>
				</g>
			</g>
		</g>
	</g>
</g>
</svg>
