<?xml version="1.0" encoding="utf-8"?>
<!-- Generator: Adobe Illustrator 19.0.0, SVG Export Plug-In . SVG Version: 6.00 Build 0)  -->
<svg version="1.1" id="Capa_1" xmlns="http://www.w3.org/2000/svg" xmlns:xlink="http://www.w3.org/1999/xlink" x="0px" y="0px"
	 viewBox="-198 318.7 198.7 205.2" style="enable-background:new -198 318.7 198.7 205.2;" xml:space="preserve">
<style type="text/css">
	.st0{opacity:0.15;}
	.st1{fill:#99C66B;}
	.st2{opacity:0.45;fill:url(#XMLID_6_);}
	.st3{fill:#FFFFFF;}
	.st4{fill:#0F4747;}
</style>
<g id="Nuevo_símbolo">
	<g id="Nuevo_símbolo_1_">
		<g id="Nuevo_símbolo_2_">
			<g id="Nuevo_símbolo_3_">
				<circle id="XMLID_5_" class="st0" cx="-98.7" cy="424.6" r="99.3"/>
				<circle id="XMLID_4_" class="st1" cx="-98.7" cy="418" r="99.3"/>
				<g id="XMLID_2_">
					
						<linearGradient id="XMLID_6_" gradientUnits="userSpaceOnUse" x1="-395.1385" y1="-295.6978" x2="-215.3646" y2="-295.6978" gradientTransform="matrix(4.489700e-011 1 -1 4.489700e-011 -394.3576 723.2827)">
						<stop  offset="0" style="stop-color:#FFFFFF"/>
						<stop  offset="0.4877" style="stop-color:#FFFFFF;stop-opacity:0"/>
					</linearGradient>
					<circle id="XMLID_3_" class="st2" cx="-98.7" cy="418" r="89.9"/>
				</g>
			</g>
			<path id="XMLID_2286_" class="st3" d="M-118.6,387.9c0,0-9.1,1.4-10.8,4.7c-1.7,3.4-3.2,11.1,0.9,13.4c4.1,2.3,7.3,5.9,12.7,2.1
				c5.3-3.7,6.7-9,7.1-12.5c0.4-3.5-2.1-4.8-4.1-5.4C-114.9,389.5-118.6,387.9-118.6,387.9z"/>
			<path id="XMLID_2285_" class="st3" d="M-69.6,416.9c0,0-5.3,3.4-5.7,6.3c-0.4,2.8,1.7,6.2,3.5,8.6s5.3,4.5,9.9,3.7
				c4.6-0.7,6.2-1.5,7-3.7c0.7-2.2,0.5-8.1-1.4-10.4s-5.3-3.1-7.6-3.3C-66.1,417.8-69.6,416.9-69.6,416.9z"/>
			<path id="XMLID_2284_" class="st3" d="M-86.7,443.3c0,0-6.7,0.7-7.8,3.1c-1.1,2.5-2.9,7.5-0.7,10.1s5.2,5.8,10.7,5.6
				c5.5-0.2,8.5-1.1,9.2-3.1s1.9-6,0.9-8.9s-2.9-4-6-5.3C-83.5,443.4-86.7,443.3-86.7,443.3z"/>
			<g id="XMLID_2257_">
				<g id="XMLID_2282_">
					<path id="XMLID_2283_" class="st4" d="M-88.2,416.1c-0.4,0-0.9-0.2-1.2-0.5c-0.7-0.7-0.7-1.8,0-2.5c0,0,1.7-1.7,21.7-21.8
						c2.2-2.2,4.3-4.4,6.4-6.4c13.5-13.5,23.3-23.3,20.4-26.3c-1.3-1.3-2.5-1.9-3.8-1.9c0,0,0,0,0,0c-3.1,0-7.3,3-13.9,9.7
						c-10,10.3-33.1,44.5-33.4,44.8c-0.5,0.8-1.6,1-2.4,0.5c-0.8-0.5-1-1.6-0.5-2.4c1-1.4,23.5-34.8,33.8-45.3
						c7.4-7.6,12.2-10.8,16.3-10.8c0,0,0,0,0.1,0c2.3,0,4.3,0.9,6.3,2.9c5.4,5.4-2.7,13.5-20.4,31.2c-2,2-4.1,4.1-6.3,6.4
						c-20,20.2-21.7,21.8-21.7,21.8C-87.3,415.9-87.8,416.1-88.2,416.1z"/>
				</g>
				<g id="XMLID_2280_">
					<path id="XMLID_2281_" class="st4" d="M-83.7,479.2c-2.4,0-4.6-0.2-6.5-0.6c-7.8-1.6-11.6-5.2-15.7-9.1
						c-2.7-2.5-5.4-5.1-9.5-7.3c-3.1-1.6-8.3-2.3-14.4-3.1c-13.5-1.8-30.3-4-37.6-18.3c-12-23.4-7.5-44.2,12.5-58.6
						c22.9-16.4,39.4-9.1,51.4-3.8c12.3,5.4,24.9,9.3,25.1,9.3c0.9,0.3,1.4,1.3,1.2,2.2c-0.3,0.9-1.3,1.4-2.2,1.2
						c-0.1,0-13-4-25.4-9.5c-11.9-5.2-26.7-11.7-48,3.5c-23.7,17-19.3,38.8-11.5,54.2c6.5,12.7,22.3,14.8,34.9,16.4
						c6.4,0.8,11.9,1.6,15.5,3.5c4.5,2.4,7.5,5.2,10.3,7.8c3.8,3.7,7.2,6.8,13.9,8.2c12.5,2.5,35.4-3.3,44.8-23.9
						c9.7-21.2-3.3-40.7-8.6-45.9c-5.5-5.4-15.5-9.3-15.6-9.3c-0.9-0.4-1.3-1.4-1-2.3c0.4-0.9,1.4-1.3,2.3-1
						c0.4,0.2,10.8,4.2,16.8,10.1c5.8,5.6,19.9,26.8,9.4,49.9C-50.3,471.8-69.7,479.2-83.7,479.2z"/>
				</g>
				<g id="XMLID_2276_">
					<path id="XMLID_2277_" class="st4" d="M-87.1,423.2c-2,0-4.2-1.5-7.5-3.6c-5.4-3.6-9-6.2-9-9.6c0-1.5,0.7-2.7,2-3.4
						c1.8-1,4.6-0.7,6.7,0.8c2.4,1.6,9.5,7,10.4,7.7c0.5,0.3,2.1,1.4,2.2,3.3c0.1,1-0.3,2.4-2.2,3.9
						C-85.3,422.9-86.2,423.2-87.1,423.2z M-99,409.5c-0.3,0-0.6,0.1-0.8,0.2c-0.1,0.1-0.2,0.1-0.2,0.3c0,1.8,4.3,4.6,7.4,6.7
						c4.9,3.3,5.4,3.3,6.2,2.7c0.7-0.5,0.8-0.8,0.8-0.8c0-0.1-0.4-0.5-0.6-0.6c-0.1,0-0.2-0.1-0.2-0.1c-0.1-0.1-7.8-6-10.2-7.6
						C-97.5,409.7-98.4,409.5-99,409.5z"/>
				</g>
				<g id="XMLID_2274_">
					<path id="XMLID_2275_" class="st4" d="M-114.1,441.8c-2,0-3.1-0.3-3.2-0.4c-0.8-0.2-1.3-0.9-1.3-1.7s0.6-1.5,1.4-1.6
						c1.2-0.3,4.5-1.2,6-2.7c0.9-0.9,1.1-5.3,1.3-8.6c0.1-2.2,0.2-4.4,0.5-6.4c0.9-6.6,8.9-8.7,9.3-8.8c0.9-0.2,1.9,0.3,2.1,1.3
						s-0.3,1.9-1.3,2.1c-0.1,0-6.1,1.6-6.7,5.9c-0.3,1.8-0.4,4-0.4,6c-0.2,4.4-0.4,8.2-1.8,10.3c1.7-0.5,3.6-1.4,5.7-2.6
						c9-5.4,10-7.7,10.5-10.7l0.7-3.8c0.2-1,1.1-1.6,2-1.4c1,0.2,1.6,1.1,1.4,2l-0.7,3.8c-0.8,4.4-2.8,7.5-12.2,13.1
						C-106.5,441.1-111.2,441.8-114.1,441.8z"/>
				</g>
				<g id="XMLID_2270_">
					<path id="XMLID_2271_" class="st4" d="M-120.1,410.8c-1,0-2-0.1-3-0.3c-3.6-0.7-6.5-2.7-8.2-5.6c-1.8-3.1-2.2-7.2-1-11.1
						c2.4-7.8,12.1-7.1,12.5-7.1c0,0,0,0,0.1,0c11.4,1.3,13.2,7.3,12.6,12.1c-0.4,4-2.3,7.4-5.3,9.6
						C-114.6,409.9-117.2,410.8-120.1,410.8z M-120.7,390.2c-1.8,0-6.9,0.4-8.2,4.6c-0.9,3-0.7,6,0.6,8.3c1.2,2,3.2,3.4,5.9,3.9
						c2.9,0.6,5.8,0.1,7.9-1.5c2.2-1.6,3.6-4.1,3.9-7.1c0.3-3-0.3-7.2-9.5-8.2C-120.1,390.2-120.4,390.2-120.7,390.2z"/>
				</g>
				<g id="XMLID_2266_">
					<path id="XMLID_2267_" class="st4" d="M-136.6,443.3c-2.9,0-5.8-0.8-7.6-1.5c-11.1-4.2-11.3-11.4-9.6-16.7
						c2.6-7.8,10.1-8.6,13.8-8c0.1,0,0.3,0.1,0.4,0.1l0,0c0,0,1.1,0.5,6.4,2.6c6.4,2.5,8.7,8.7,6.3,16.6c-0.8,2.7-2.4,4.7-4.7,5.8
						C-133.2,443-134.9,443.3-136.6,443.3z M-142.2,420.4c-2.3,0-6.6,0.7-8.3,5.7c-1.9,5.7,0.5,9.6,7.5,12.3c4,1.5,7.6,1.7,9.8,0.6
						c1.4-0.7,2.4-1.9,2.9-3.7c1.1-3.5,2-9.9-4.2-12.3c-4.2-1.7-5.8-2.3-6.4-2.5C-141.1,420.5-141.5,420.4-142.2,420.4z"/>
				</g>
				<g id="XMLID_2262_">
					<path id="XMLID_2263_" class="st4" d="M-82.5,463.8c-2.6,0-5.4-0.6-7.9-1.8c-2.9-1.3-5.1-3.7-6.2-6.8c-1.1-3.1-0.9-6.5,0.4-9.2
						c2.6-5.1,9.7-4.9,10.3-4.9c0.5,0,2.8,0.2,7.5,2.3c2.8,1.2,4.9,3.5,6,6.3c1.1,2.8,0.9,5.9-0.4,8.7
						C-74.6,462.3-78.4,463.8-82.5,463.8z M-86.4,444.7c-1.1,0-5.4,0.2-6.7,3c-0.9,1.9-1,4.3-0.3,6.5c0.5,1.5,1.7,3.6,4.4,4.7
						c4.9,2.2,11.1,2.1,12.9-1.8c0.9-2,1-4.1,0.3-6c-0.7-1.9-2.2-3.5-4.1-4.3c-4.3-1.9-6.2-2-6.2-2c0,0,0,0-0.1,0l0,0
						C-86.1,444.7-86.2,444.7-86.4,444.7z"/>
				</g>
				<g id="XMLID_2258_">
					<path id="XMLID_2259_" class="st4" d="M-63.4,437.7c-6.9,0-11.7-5.8-13.3-9.8c-1.9-4.9,2.3-10.2,2.5-10.4
						c0.2-0.2,0.4-0.4,0.6-0.5c2.9-1.4,4.9-1.3,10.2-1.1c6.4,0.3,9.6,5.9,10.5,11c0.5,2.7-0.1,5.2-1.5,7.1c-1.2,1.5-3.5,3.3-8,3.6
						C-62.8,437.7-63.1,437.7-63.4,437.7z M-71.7,420c-1,1.3-2.6,4.4-1.7,6.6c1.3,3.3,5.2,8,10.7,7.6c2.6-0.2,4.5-1,5.5-2.3
						c1.1-1.4,1.1-3.1,0.8-4.3c-0.3-1.9-1.8-7.9-7.2-8.1C-68.6,419.2-69.9,419.2-71.7,420z"/>
				</g>
			</g>
		</g>
	</g>
</g>
</svg>
