<?xml version="1.0" encoding="utf-8"?>
<!-- Generator: Adobe Illustrator 19.0.0, SVG Export Plug-In . SVG Version: 6.00 Build 0)  -->
<svg version="1.1" id="Capa_1" xmlns="http://www.w3.org/2000/svg" xmlns:xlink="http://www.w3.org/1999/xlink" x="0px" y="0px"
	 viewBox="-198 318.7 198.7 205.2" style="enable-background:new -198 318.7 198.7 205.2;" xml:space="preserve">
<style type="text/css">
	.st0{opacity:0.15;}
	.st1{fill:#99C66B;}
	.st2{opacity:0.45;fill:url(#XMLID_6_);}
	.st3{fill:#FFFFFF;}
	.st4{fill:#0F4747;}
</style>
<g id="Nuevo_símbolo">
	<g id="Nuevo_símbolo_1_">
		<g id="Nuevo_símbolo_2_">
			<circle id="XMLID_5_" class="st0" cx="-98.7" cy="424.6" r="99.3"/>
			<circle id="XMLID_4_" class="st1" cx="-98.7" cy="418" r="99.3"/>
			<g id="XMLID_2_">
				
					<linearGradient id="XMLID_6_" gradientUnits="userSpaceOnUse" x1="-395.1385" y1="-295.6978" x2="-215.3646" y2="-295.6978" gradientTransform="matrix(4.489700e-011 1 -1 4.489700e-011 -394.3576 723.2827)">
					<stop  offset="0" style="stop-color:#FFFFFF"/>
					<stop  offset="0.4877" style="stop-color:#FFFFFF;stop-opacity:0"/>
				</linearGradient>
				<circle id="XMLID_3_" class="st2" cx="-98.7" cy="418" r="89.9"/>
			</g>
		</g>
		<polygon id="XMLID_2816_" class="st3" points="-53.9,394.3 -54.8,406.1 -80.4,406.7 -80.6,421.9 -54.3,420.6 -53.4,431.7 
			-30.5,410 		"/>
		<g id="XMLID_2795_">
			<g id="XMLID_2812_">
				<path id="XMLID_2813_" class="st4" d="M-107,489.2c-0.4,0-0.8-0.2-1.2-0.5l-33.9-30.8c-0.4-0.3-0.6-0.8-0.6-1.3l-1-99.6
					c0-0.7,0.4-1.3,1-1.6c0.6-0.3,1.4-0.2,1.9,0.3l34.7,31.3c0.4,0.3,0.6,0.8,0.6,1.3l0.2,99.1c0,0.7-0.4,1.3-1,1.6
					C-106.5,489.2-106.8,489.2-107,489.2z M-139.2,455.9l30.4,27.6l-0.2-94.4l-31.1-28.1L-139.2,455.9z"/>
			</g>
			<g id="XMLID_2810_">
				<path id="XMLID_2811_" class="st4" d="M-66.8,407.5C-66.8,407.5-66.8,407.5-66.8,407.5c-1,0-1.8-0.8-1.8-1.8l0.2-47.4h-72.2
					c-1,0-1.8-0.8-1.8-1.8s0.8-1.8,1.8-1.8h73.9c0.5,0,0.9,0.2,1.2,0.5c0.3,0.3,0.5,0.8,0.5,1.2l-0.2,49.2
					C-65,406.8-65.8,407.5-66.8,407.5z"/>
			</g>
			<g id="XMLID_2806_">
				<path id="XMLID_2807_" class="st4" d="M-53.2,434c-0.2,0-0.4,0-0.6-0.1c-0.6-0.2-1.1-0.8-1.1-1.5l-0.6-9.9l-24.5,1.1
					c-0.5,0-0.9-0.1-1.3-0.5c-0.3-0.3-0.5-0.8-0.6-1.2l-0.5-14.8c0-0.5,0.2-0.9,0.5-1.3c0.3-0.3,0.8-0.5,1.2-0.5l24.4-0.2v-11.8
					c0-0.7,0.4-1.3,1-1.6c0.6-0.3,1.3-0.2,1.8,0.1l23.3,17c0.4,0.3,0.7,0.8,0.7,1.3c0,0.5-0.1,1-0.5,1.4L-52,433.4
					C-52.3,433.8-52.8,434-53.2,434z M-53.9,418.8c0.9,0,1.7,0.7,1.7,1.6l0.5,7.8l17.9-17.9l-18.8-13.7v10.1c0,1-0.8,1.7-1.7,1.8
					l-24.4,0.2l0.4,11.2L-53.9,418.8C-54,418.8-54,418.8-53.9,418.8z"/>
			</g>
			<g id="XMLID_2804_">
				<path id="XMLID_2805_" class="st4" d="M-66.3,461.3c-1,0-1.7-0.8-1.8-1.7l-0.2-37.1c0-1,0.8-1.8,1.7-1.8c0,0,0,0,0,0
					c1,0,1.7,0.8,1.8,1.7l0.2,37.1C-64.5,460.6-65.3,461.3-66.3,461.3L-66.3,461.3z"/>
			</g>
			<g id="XMLID_2802_">
				<path id="XMLID_2803_" class="st4" d="M-166.2,459.2c-0.9,0-1.7-0.8-1.7-1.7c0-1,0.7-1.8,1.7-1.8l25.2-0.7c1,0,1.8,0.7,1.8,1.7
					c0,1-0.7,1.8-1.7,1.8L-166.2,459.2C-166.1,459.2-166.1,459.2-166.2,459.2z"/>
			</g>
			<g id="XMLID_2800_">
				<path id="XMLID_2801_" class="st4" d="M-31.2,461.6C-31.2,461.6-31.2,461.6-31.2,461.6l-74.9-0.2c-1,0-1.7-0.8-1.7-1.8
					c0-1,0.8-1.7,1.8-1.7c0,0,0,0,0,0l74.9,0.2c1,0,1.7,0.8,1.7,1.8C-29.4,460.8-30.2,461.6-31.2,461.6z"/>
			</g>
			<g id="XMLID_2796_">
				<path id="XMLID_2797_" class="st4" d="M-118.7,432.8c-2.5,0-4.3-3-4.3-7.1s1.8-7.1,4.3-7.1s4.3,3,4.3,7.1
					S-116.2,432.8-118.7,432.8z M-118.7,422.3c-0.3,0.5-0.8,1.6-0.8,3.4c0,1.8,0.5,2.9,0.8,3.4c0.3-0.5,0.8-1.6,0.8-3.4
					C-117.9,423.9-118.3,422.7-118.7,422.3z"/>
			</g>
		</g>
	</g>
</g>
</svg>
