<?xml version="1.0" encoding="utf-8"?>
<!-- Generator: Adobe Illustrator 19.0.0, SVG Export Plug-In . SVG Version: 6.00 Build 0)  -->
<svg version="1.1" id="Capa_1" xmlns="http://www.w3.org/2000/svg" xmlns:xlink="http://www.w3.org/1999/xlink" x="0px" y="0px"
	 viewBox="-198 318.7 198.7 205.2" style="enable-background:new -198 318.7 198.7 205.2;" xml:space="preserve">
<style type="text/css">
	.st0{opacity:0.15;}
	.st1{fill:#99C66B;}
	.st2{opacity:0.45;fill:url(#XMLID_6_);}
	.st3{fill:#0F4747;}
	.st4{fill:#FFFFFF;}
</style>
<g id="Nuevo_símbolo">
	<circle id="XMLID_5_" class="st0" cx="-98.7" cy="424.6" r="99.3"/>
	<circle id="XMLID_4_" class="st1" cx="-98.7" cy="418" r="99.3"/>
	<g id="XMLID_2_">
		
			<linearGradient id="XMLID_6_" gradientUnits="userSpaceOnUse" x1="-395.1385" y1="-295.6978" x2="-215.3646" y2="-295.6978" gradientTransform="matrix(4.489700e-011 1 -1 4.489700e-011 -394.3576 723.2827)">
			<stop  offset="0" style="stop-color:#FFFFFF"/>
			<stop  offset="0.4877" style="stop-color:#FFFFFF;stop-opacity:0"/>
		</linearGradient>
		<circle id="XMLID_3_" class="st2" cx="-98.7" cy="418" r="89.9"/>
	</g>
</g>
<g id="XMLID_2405_">
	<path id="XMLID_2512_" class="st3" d="M-171,431.4c0,0-2.5,4.6,0,5.6c2.5,1.1,5.6,2.4,6,3c0.4,0.6-0.3,4.4-1.1,4.9
		c-0.8,0.4-6.9,4.1-7.1,5.9c-0.2,1.8,1.6,6.9,2.8,7.4s6,3.3,6,3.3l2-3.3v-2.2c0,0-5.5,0.3-6.3-1.7c-0.8-2-2-4.4,0.8-6.4
		s5.3-4.4,6.4-6.3c1.1-1.8,1.5-4.8-0.5-5.7c-2-0.9-5.2-2.3-5.4-3.7c-0.2-1.4-0.7-2.3-1.8-2C-170.1,430.6-171,431.4-171,431.4z"/>
	<path id="XMLID_2513_" class="st3" d="M-150.3,430.4c0,0,9.6,5.3,11.2,5.3c1.6,0,4.8-1.7,7-3.3c2.2-1.6,10.8-6.8,14.1-5.8
		c3.3,1,3.4,2.9,3,3.7c-0.4,0.8-1.2,2.6-1.2,2.6l4.5,2.1c0,0,0.5-6.8,0.4-8.6s-2.8-5-4.1-5.1s-5.6,0.5-11.2,2.9
		c-5.6,2.3-10.4,7.1-12,7.2c-1.6,0.1-6-2.3-7.5-3c-1.5-0.6-5.3-0.3-5.3-0.3L-150.3,430.4z"/>
	<g id="XMLID_2587_">
		<g id="XMLID_2592_">
			<path id="XMLID_2509_" class="st3" d="M-162.5,462.4C-162.5,462.4-162.5,462.4-162.5,462.4c-2.7-0.1-6.5-1-9.2-3.6
				c-0.8-0.8-3.5-3.6-3.3-7.3c0.1-1.6,0.8-3.9,3.6-6.1c4.5-3.4,5.2-4.4,5.2-5.4c-0.2,0-0.4-0.1-0.6-0.1c-1.3-0.2-3.3-0.6-5.2-2.2
				c-1.5-1.3-1.8-2.7-1.8-3.6c0.1-2.8,2.9-4.8,3.3-5.1c0.2-0.1,0.4-0.2,0.7-0.3l5.4-1.1c0.8-0.2,1.7,0.3,2,1.1
				c0.3,0.8,0,1.7-0.8,2.1c-0.8,0.5-1.7,1.2-2.1,1.7c0.5,0.3,1.1,0.5,1.7,0.8c2.5,1.2,5.7,2.6,5.4,5.7c-0.3,3.2-1.2,4.9-5.9,8.7
				c-2.5,2.1-3.3,3.8-3.3,4.8c0,0.2,0.1,0.6,0.6,0.8c1.4,0.8,3.6,0.5,4.4,0.3c0.9-0.2,1.9,0.3,2.1,1.3c0.2,0.9-0.3,1.9-1.2,2.1
				c-0.4,0.1-4,1-7-0.6c-1.4-0.8-2.2-2-2.4-3.6c-0.1-1.4,0.3-2.8,1.3-4.3c-1.2,1-1.8,2-1.8,3.2c-0.1,1.7,1.1,3.5,2.2,4.5
				c2,1.9,4.9,2.6,6.9,2.6c1,0,1.7,0.8,1.7,1.8C-160.8,461.6-161.6,462.4-162.5,462.4z M-169.1,432.4c-0.6,0.6-1.2,1.3-1.2,1.8
				c0,0.1,0,0.4,0.5,0.8c1.3,1.1,2.5,1.3,3.6,1.5c1.2,0.2,3.4,0.6,3.5,3c0,0.8-0.1,1.5-0.3,2.2c1-1.2,1-2,1.2-3.1
				c0.1-0.6-2.2-1.6-3.4-2.2c-0.8-0.4-1.6-0.8-2.4-1.2c-1.4-0.8-1.6-2-1.6-2.6C-169.1,432.6-169.1,432.5-169.1,432.4z"/>
		</g>
		<g id="XMLID_2591_">
			<path id="XMLID_2506_" class="st3" d="M-148.8,480.7c-2.5,0-4.7-0.8-6.9-1.7c-4.4-1.8-7.1-9.4-8.2-13.8
				c-0.6-2.1-0.5-8.4,0.6-12.8c1.4-5.4,5.9-6.4,10.1-7.3c4.4-0.9,10.9-0.2,11.6-0.2c2.7,0.2,5.2-1.6,7.8-3.5c1.1-0.8,1.8-1.8,2.6-3
				c1.1-1.6,2.5-3.5,5.1-5.5c5.2-4,9.3-2.3,11.8-1.3c3.1,1.2,8,5.5,12.3,13.7c5.4,10-1.3,15.9-3.9,18.2c-4.6,4-11.4,3.9-16.3,3.1
				c-3.8-0.6-5.5-2.8-6.6-4.2c-0.2-0.3-0.6-0.7-0.8-0.9c-0.7,0.2-0.9,0.7-1.3,3c-0.2,0.9-0.3,1.9-0.7,3.1c-1.2,4.4-3.6,7.1-9.5,10.6
				C-143.9,480-146.5,480.7-148.8,480.7z M-147.6,448.1c-1.7,0-3.4,0.1-4.9,0.4c-4.3,0.9-6.6,1.5-7.5,4.8c-1.1,4.1-1,9.8-0.6,11
				c1.6,6.1,4,10.6,6.1,11.4c3.9,1.6,6.8,2.4,11.7-0.6c5.1-3,7-5,7.9-8.5c0.3-1,0.4-2,0.6-2.8c0.4-2.4,0.9-4.8,3.7-5.8
				c2.3-0.7,3.6,0.9,4.5,2.1c1,1.2,2,2.5,4.4,2.9c5.9,0.9,10.7,0.1,13.5-2.3c3.7-3.3,6.7-7.2,3.1-13.9c-4-7.4-8.2-11.1-10.6-12.1
				c-2.2-0.9-4.7-1.9-8.4,0.9c-2.2,1.7-3.3,3.2-4.3,4.7c-1,1.4-1.9,2.7-3.4,3.8c-3.2,2.4-6.4,4.5-10.2,4.2c0,0,0,0-0.1,0
				C-142,448.4-144.6,448.1-147.6,448.1z"/>
		</g>
		<g id="XMLID_2590_">
			<path id="XMLID_2503_" class="st3" d="M-147,468.7c-3.9,0-8.1-2-8.7-2.3c-0.6-0.3-0.9-0.8-1-1.5c0-0.6,0.3-1.2,0.8-1.6
				c0,0,2.4-1.6,5.5-4.9c3.4-3.8,8.1-4,9.1-4c1.9-0.2,4.8,0.5,5.5,3.7c1.1,4.4-4.5,8.3-8,9.9C-144.7,468.5-145.8,468.7-147,468.7z
				 M-151.4,464.4c2.2,0.7,4.8,1.2,6.3,0.5c3.5-1.6,6.5-4.5,6.1-5.9c-0.3-1.1-1.2-1.1-1.8-1c-0.1,0-0.2,0-0.3,0l0,0
				c0,0-3.9-0.1-6.6,2.8C-149.1,462.3-150.4,463.5-151.4,464.4z"/>
		</g>
		<g id="XMLID_2589_">
			<path id="XMLID_2500_" class="st3" d="M-123.4,458.3c-1,0-2-0.1-2.9-0.5c-1.5-0.6-2.4-1.6-2.8-3c-1.3-4.8,4.4-8.4,4.6-8.5
				c0.1-0.1,0.3-0.2,0.5-0.2c0.2,0,3.8-1,7.3-0.8l0.3,0c2.1,0.1,2.1,0.1,3.5-0.3c0.4-0.1,0.8-0.3,1.4-0.4c0.6-0.2,1.2,0,1.7,0.4
				c0.5,0.4,0.7,1,0.5,1.6c-0.5,2.6-3.3,7.7-6.6,9.7C-117.7,457.3-120.7,458.3-123.4,458.3z M-122.8,449.4c-1.1,0.7-3.4,2.7-2.9,4.5
				c0.1,0.2,0.2,0.5,0.7,0.7c1.7,0.7,5.4-0.1,7.2-1.2c1.3-0.8,2.8-2.7,3.8-4.5c-0.6,0.1-1.3,0-2.6-0.1l-0.3,0
				C-119.4,448.6-122,449.2-122.8,449.4z"/>
		</g>
		<g id="XMLID_2588_">
			<path id="XMLID_2499_" class="st3" d="M-138.1,437.7c-0.5,0-1.1-0.1-1.7-0.3c-0.2-0.1-0.4-0.1-0.7-0.2c-1.3-0.4-2.5-1.2-3.8-2
				c-1.5-1-3.3-2.2-5.2-2.6c-2.9-0.6-5.2,1.3-5.2,1.3c-0.6,0.5-1.3,0.5-2,0.2c-0.6-0.4-1-1.1-0.9-1.8l0.6-3.9
				c0.1-0.4,0.3-0.8,0.6-1.1c0.4-0.3,1.9-1.4,5.8-1.7c4.1-0.3,6.4,0.8,9.9,3.1c0.4,0.2,1.5,1,1.8,1c0.1,0,0.5-0.3,0.9-0.6
				c0.4-0.3,0.9-0.6,1.5-1c0.8-0.5,1.7-1.1,2.8-1.8c3.8-2.5,8.6-5.5,11.7-6.4c2.8-0.8,8.5-2.4,12.1,4.4c3.1,6-0.4,11.4-0.5,11.6
				c-0.5,0.8-1.6,1-2.4,0.5c-0.8-0.5-1-1.6-0.5-2.4c0.1-0.2,2.5-3.9,0.4-8c-1.9-3.7-4.1-3.8-8.1-2.7c-2.5,0.7-7.5,3.9-10.7,6
				c-1.1,0.7-2.1,1.3-2.9,1.8c-0.6,0.3-1,0.6-1.4,0.9c-2.5,1.7-3.5,1.6-6.6-0.4c-2.4-1.6-3.9-2.4-5.9-2.5c2.5,0.6,4.6,1.9,6.2,3
				c1.1,0.7,2.1,1.4,2.8,1.6c0.3,0.1,0.6,0.2,0.9,0.3c0.2,0.1,0.5,0.2,0.5,0.2c0.5-0.1,3-1.8,5-3.2c6.7-4.8,11.4-7.4,15.4-6.3
				c2.2,0.6,3.5,1.5,4.1,2.8c0.5,1.1,0.5,2.4-0.1,3.9l-0.8,2c-0.4,0.9-1.4,1.3-2.3,1c-0.9-0.4-1.3-1.4-1-2.3l0.8-2
				c0.3-0.7,0.2-1,0.2-1c0-0.1-0.3-0.5-2-1c-2.6-0.7-6.8,1.8-12.3,5.8C-135.1,436.6-136.6,437.7-138.1,437.7z"/>
		</g>
	</g>
	<path id="XMLID_2473_" class="st3" d="M-127.3,388.6c0,0,2.9,13.4,10.7,17.5c7.7,4.1,19.7,5.4,24.1,5.5c4.4,0.1,10.2-2,15-5.1
		c4.9-3,8.7-12.3,8.7-12.3s-19.3-5.4-32.4-5.6S-127.3,388.6-127.3,388.6z"/>
	<path id="XMLID_2515_" class="st4" d="M-107.4,363.7l2.7,5.2c0,0-1.1,11.5,2.2,12.9c3.3,1.5,9.2,1.4,11.4-1.3s2.5-9.7,2.5-9.7
		l4.6-4.3l-3.9-3.2c0,0-3.9,1.6-5.2,0.8s-2.3-2.1-2.3-2.1s-2.7,1.8-4.3,1.3s-4-2.2-4-2.2L-107.4,363.7z"/>
	<g id="XMLID_2529_">
		<g id="XMLID_2577_">
			<path id="XMLID_2486_" class="st3" d="M-68.4,390.7c0,0-0.1,0-0.1,0c-1-0.1-1.7-0.9-1.6-1.9l0.6-8.3c0-0.5,0.3-0.9,0.6-1.2
				c0,0,3.1-2.5,6-5.7c1.9-2.1,4.1-5.1,5.4-7c-1.2-0.7-2.9-1.7-5.2-3.1c-3.8-2.4-7.6-6.8-9-8.4c-1.9,0-6.7-0.1-10.9-1.2
				c-4.2-1.1-9.2-4.5-11.4-6.2c-1.8,1.5-5.6,3.9-12,3.9c-6,0.1-9.7-0.5-11.4-0.8c-1.5,1.8-5,5.5-10,7.1c-2.7,0.8-4.5,1.4-5.6,1.7
				c1.2,2.3,3.1,6.3,4.3,8.2c1.7,2.8,4.3,5.9,4.3,5.9c0.3,0.3,0.4,0.8,0.4,1.2l-0.6,9c-0.1,1-0.9,1.7-1.9,1.6
				c-1-0.1-1.7-0.9-1.6-1.9l0.5-8.3c-0.9-1.1-2.8-3.5-4.2-5.8c-1.8-3-5.3-10.1-5.4-10.4c-0.2-0.5-0.2-1.1,0-1.5
				c0.2-0.5,0.7-0.8,1.2-0.9c0.1,0,1.6-0.3,7.4-2.2c5.5-1.8,8.9-6.7,9-6.7c0.4-0.6,1.3-0.9,2-0.7c0,0,3.4,1.1,11.5,1
				c7.5-0.1,10.4-3.7,10.6-3.8c0.3-0.4,0.7-0.6,1.2-0.7c0.5-0.1,0.9,0.1,1.3,0.4c0.1,0.1,6.6,5.3,11.3,6.5c4.9,1.2,10.8,1,10.8,1
				c0.5,0,1.1,0.2,1.4,0.7c0,0.1,4.6,5.7,8.7,8.3c4.3,2.7,6.7,3.9,6.7,3.9c0.5,0.2,0.8,0.6,0.9,1.1c0.1,0.5,0,1-0.2,1.4
				c-0.2,0.2-3.7,5.6-6.8,9c-2.3,2.6-4.7,4.7-5.8,5.6l-0.6,7.6C-66.8,390-67.5,390.7-68.4,390.7z"/>
		</g>
		<g id="XMLID_2576_">
			<path id="XMLID_2483_" class="st3" d="M-126.7,390.4c-0.1,0-0.2,0-0.4,0c-2.3-0.2-4-2.2-3.8-4.5c0.1-1.1,0.6-2.1,1.5-2.8
				c0.8-0.7,1.9-1,3-1c2.3,0.2,4,2.2,3.8,4.5C-122.7,388.8-124.5,390.4-126.7,390.4z M-126.7,385.7c-0.2,0-0.3,0.1-0.4,0.1
				c-0.1,0.1-0.2,0.2-0.2,0.4c0,0.3,0.2,0.7,0.6,0.7c0.2,0,0.4-0.1,0.5-0.1c0.1-0.1,0.2-0.2,0.2-0.4
				C-126,386-126.3,385.7-126.7,385.7C-126.6,385.7-126.7,385.7-126.7,385.7z"/>
		</g>
		<g id="XMLID_2575_">
			<path id="XMLID_2480_" class="st3" d="M-68.5,395.6c-0.1,0-0.2,0-0.4,0c-2.3-0.2-4.1-2.3-3.9-4.6v0c0.1-1.1,0.6-2.2,1.5-2.9
				c0.9-0.7,2-1.1,3.1-1c1.1,0.1,2.2,0.6,2.9,1.5c0.7,0.9,1.1,2,1,3.1c-0.1,1.1-0.6,2.2-1.5,2.9C-66.6,395.2-67.5,395.6-68.5,395.6z
				 M-69.3,391.3c0,0.3,0.1,0.5,0.2,0.5c0.1,0.1,0.2,0.2,0.5,0.3c0.3,0,0.5-0.1,0.5-0.2c0.1-0.1,0.2-0.2,0.3-0.5
				c0-0.3-0.1-0.5-0.2-0.5c-0.1-0.1-0.2-0.2-0.5-0.3C-68.9,390.6-69.2,390.9-69.3,391.3L-69.3,391.3z"/>
		</g>
		<g id="XMLID_2574_">
			<path id="XMLID_2477_" class="st3" d="M-96.4,384.8c-0.3,0-0.6,0-1,0c-4.3-0.4-7.6-3-8.9-7c-0.9-2.7-0.3-7-0.1-8.7l-2.9-4.2
				c-0.3-0.4-0.4-0.9-0.3-1.4s0.4-0.9,0.8-1.1l5.3-3c0.4-0.2,0.9-0.3,1.4-0.2c0.5,0.1,0.8,0.4,1.1,0.9c0,0,0.7,1.3,1.7,1.3
				c1.1,0.1,2.4-0.8,2.8-1.2c0.5-0.4,1.1-0.5,1.7-0.3c0.6,0.2,1,0.6,1.2,1.2c0.1,0.2,0.4,1,1.7,1c0,0,0.1,0,0.1,0
				c1.4,0,1.8-0.5,1.8-0.5c0.2-0.5,0.6-0.9,1.1-1c0.6-0.2,1.2,0,1.6,0.4l4.3,3.9c0.3,0.3,0.6,0.7,0.6,1.2c0,0.5-0.1,0.9-0.4,1.3
				l-3.6,4c-0.1,2.4-0.7,7.9-2.5,9.7l-0.4,0.4C-90.6,382.7-92.6,384.8-96.4,384.8z M-105.3,364.5l2.2,3.2c0.3,0.4,0.4,0.9,0.3,1.3
				c-0.3,1.4-0.8,5.6-0.1,7.7c0.8,2.6,2.9,4.3,5.8,4.5c2.8,0.2,4-1,5.4-2.5l0.4-0.4c0.6-0.7,1.3-4.5,1.5-8c0-0.4,0.2-0.8,0.4-1.1
				l2.8-3.1l-1.7-1.5c-0.8,0.5-1.9,0.9-3.5,1c-2,0.1-3.3-0.7-4.1-1.6c-0.9,0.5-2.2,1-3.5,0.9c-1.5-0.1-2.7-0.8-3.6-1.7L-105.3,364.5
				z"/>
		</g>
		<g id="XMLID_2573_">
			<path id="XMLID_2476_" class="st3" d="M-69.9,390c-0.2,0-0.3,0-0.5-0.1c-0.1,0-9.3-2.6-26.5-4.2c-17.2-1.6-28.1-0.6-28.2-0.6
				c-1,0.1-1.8-0.6-1.9-1.6s0.6-1.8,1.6-1.9c0.5,0,11.3-1.1,28.8,0.5c17.5,1.6,26.7,4.2,27.1,4.3c0.9,0.3,1.5,1.2,1.2,2.2
				C-68.4,389.5-69.1,390-69.9,390z"/>
		</g>
		<g id="XMLID_2572_">
			<path id="XMLID_2487_" class="st3" d="M-126,376.7c-0.9,0-1.7-0.7-1.7-1.6c-0.1-1,0.6-1.8,1.6-1.9c0,0,1.3-0.1,2.6-0.3
				c1.5-0.2,15.7-0.1,18.6-0.1c1,0,1.7,0.8,1.7,1.8c0,1-0.8,1.7-1.8,1.7h0c-6.4,0-17-0.1-18,0.1c-1.5,0.2-2.8,0.3-2.8,0.3
				C-125.9,376.7-126,376.7-126,376.7z"/>
		</g>
		<g id="XMLID_2571_">
			<path id="XMLID_2488_" class="st3" d="M-67.8,382.4c-0.3,0-0.6-0.1-0.9-0.2c0,0-2.5-1.4-6.2-2.1c-4-0.8-13.9-2.3-14-2.3
				c-1-0.1-1.6-1-1.5-2c0.1-1,1-1.6,2-1.5c0.4,0.1,10.1,1.5,14.2,2.3c4.3,0.8,7.2,2.5,7.3,2.5c0.8,0.5,1.1,1.5,0.7,2.4
				C-66.6,382.1-67.2,382.4-67.8,382.4z"/>
		</g>
		<g id="XMLID_2570_">
			<path id="XMLID_2489_" class="st3" d="M-70.3,396.5c-0.3,0-0.6-0.1-0.8-0.2c-0.3-0.1-3.5-1.5-21-3.7c-19-2.4-33.2-0.9-33.3-0.9
				c-1,0.1-1.8-0.6-1.9-1.6c-0.1-1,0.6-1.8,1.6-1.9c0.6-0.1,14.7-1.5,34.1,0.9c18.4,2.3,21.8,3.8,22.4,4.1c0.8,0.5,1,1.6,0.5,2.4
				C-69.2,396.2-69.8,396.5-70.3,396.5z"/>
		</g>
		<g id="XMLID_2569_">
			<path id="XMLID_2490_" class="st3" d="M-91.9,413c-4,0-9.7-0.5-17.7-2.1c-16.8-3.2-18.9-21.9-18.9-22.1c-0.1-1,0.6-1.8,1.6-1.9
				c1-0.1,1.8,0.6,1.9,1.6l0,0c0.1,0.7,1.9,16.3,16.1,19c15.7,3,21.4,1.9,23.2,1.3c3-1.1,10.4-4.2,13.6-10.9
				c1.5-3.1,1.8-4.4,1.8-4.4c0.2-0.9,1.1-1.6,2-1.4c0.9,0.2,1.6,1.1,1.4,2c0,0.3-0.4,1.8-2.1,5.3c-3.7,7.8-12.2,11.4-15.6,12.7
				C-86.1,412.6-88.4,413-91.9,413z"/>
		</g>
	</g>
	<polygon id="XMLID_2516_" class="st4" points="-69.3,431.4 -69.3,441.2 -77.5,447.3 -67.7,451.8 -64.9,463.5 -58.2,454.8 
		-47.7,455.5 -52.5,445.7 -47.7,435.7 -60.8,438.6 -68.3,430.4 	"/>
	<g id="XMLID_2578_">
		<g id="XMLID_2586_">
			<path id="XMLID_2496_" class="st3" d="M-65.5,465.2c-0.1,0-0.3,0-0.4,0c-0.6-0.2-1.1-0.7-1.3-1.3l-2.5-10.5l-10.5-3.6
				c-0.7-0.2-1.1-0.8-1.2-1.5s0.3-1.3,0.9-1.7l9.3-5.3l0.9-11.6c0.1-0.7,0.5-1.2,1.1-1.5c0.6-0.2,1.3-0.1,1.8,0.3l8,7.4l11.5-3
				c0.7-0.2,1.4,0.1,1.8,0.6c0.4,0.5,0.5,1.3,0.2,1.9l-4.8,10.1l5.4,9c0.3,0.6,0.3,1.3,0,1.8c-0.3,0.6-1,0.9-1.6,0.8l-10.5-0.9
				l-6.8,8.2C-64.5,465-65,465.2-65.5,465.2z M-75.3,447.8l7.8,2.6c0.6,0.2,1,0.7,1.1,1.3l1.9,8l5.2-6.2c0.4-0.4,0.9-0.7,1.5-0.6
				l8,0.7l-4.1-6.9c-0.3-0.5-0.3-1.1-0.1-1.6l3.6-7.6l-8.8,2.3c-0.6,0.2-1.2,0-1.6-0.4l-6.1-5.6l-0.7,8.9c0,0.6-0.4,1.1-0.9,1.4
				L-75.3,447.8z"/>
		</g>
		<g id="XMLID_2585_">
			<path id="XMLID_2493_" class="st3" d="M-110.3,490.9c-1.1,0-2.1-0.8-2.5-1.9c-0.5-1.8,0.3-4.8,4.3-7.5
				c3.5-2.3,25.5-21.6,36.6-31.6c0.7-0.6,1.8-0.6,2.5,0.1c0.6,0.7,0.6,1.8-0.1,2.5c-1.1,1-22.5,20-32.5,28.3c5.4-4.3,11.9-9.6,16-13
				c2.1-1.7,3.9-3.2,5.1-4.2c6.9-5.6,12.3-10,12.3-10c0.8-0.6,1.9-0.5,2.5,0.2c0.6,0.7,0.5,1.8-0.2,2.5c0,0-5.4,4.5-12.3,10
				c-1.3,1-3,2.5-5.1,4.2C-107.5,490-109,490.8-110.3,490.9C-110.2,490.9-110.2,490.9-110.3,490.9z M-106.4,484.3
				C-106.4,484.3-106.5,484.4-106.4,484.3c-0.6,0.4-1.1,0.8-1.5,1.1C-107.4,485.1-106.9,484.7-106.4,484.3z"/>
		</g>
		<g id="XMLID_2584_">
			<path id="XMLID_2492_" class="st3" d="M-73.2,431.3c-0.4,0-0.9-0.2-1.2-0.5l-8.5-8.4c-0.7-0.7-0.7-1.8,0-2.5
				c0.7-0.7,1.8-0.7,2.5,0l8.5,8.4c0.7,0.7,0.7,1.8,0,2.5C-72.3,431.1-72.8,431.3-73.2,431.3z"/>
		</g>
		<g id="XMLID_2583_">
			<path id="XMLID_2491_" class="st3" d="M-80.4,437.8c-0.2,0-0.3,0-0.5-0.1l-10.4-2.8c-0.9-0.3-1.5-1.2-1.2-2.1
				c0.3-0.9,1.2-1.5,2.1-1.2l10.4,2.8c0.9,0.3,1.5,1.2,1.2,2.1C-79,437.2-79.7,437.8-80.4,437.8z"/>
		</g>
		<g id="XMLID_2582_">
			<path id="XMLID_2514_" class="st3" d="M-67.3,426c-0.9,0-1.7-0.7-1.7-1.6l-0.8-11.6c-0.1-1,0.7-1.8,1.6-1.9
				c1-0.1,1.8,0.7,1.9,1.6l0.8,11.6c0.1,1-0.7,1.8-1.6,1.9C-67.2,425.9-67.2,426-67.3,426z"/>
		</g>
		<g id="XMLID_2581_">
			<path id="XMLID_2517_" class="st3" d="M-53.4,477.9c0,0-0.1,0-0.1,0c-1-0.1-1.7-0.9-1.6-1.9c0-0.2,0-0.3,0.1-0.5
				c-0.1-1.4-1.1-6-2.1-9.9c-0.2-0.9,0.3-1.9,1.3-2.1c0.9-0.2,1.9,0.3,2.1,1.3c2.8,11.2,2.3,11.8,1.7,12.5
				C-52.3,477.7-52.9,477.9-53.4,477.9z"/>
		</g>
		<g id="XMLID_2580_">
			<path id="XMLID_2518_" class="st3" d="M-39.3,471.8c-0.5,0-1-0.2-1.3-0.6l-7.8-8.7c-0.6-0.7-0.6-1.8,0.1-2.5
				c0.7-0.6,1.8-0.6,2.5,0.1l7.8,8.7c0.6,0.7,0.6,1.8-0.1,2.5C-38.5,471.7-38.9,471.8-39.3,471.8z"/>
		</g>
		<g id="XMLID_2579_">
			<path id="XMLID_2519_" class="st3" d="M-28.8,458.8c-0.1,0-0.3,0-0.4,0l-12.6-2.8c-0.9-0.2-1.5-1.1-1.3-2.1
				c0.2-0.9,1.1-1.5,2.1-1.3l12.6,2.8c0.9,0.2,1.5,1.1,1.3,2.1C-27.2,458.2-27.9,458.8-28.8,458.8z"/>
		</g>
	</g>
</g>
</svg>
